<svg xmlns="http://www.w3.org/2000/svg" version="1.1" style="font-family:Lato, &#x27;Helvetica Neue&#x27;, Helvetica, Arial, &#x27;Liberation Sans&#x27;, sans-serif;font-size:18px;background-color:white;text-rendering:geometricPrecision;-webkit-font-smoothing:antialiased" width="850" height="676.55" viewBox="0 0 850 676.55"><defs><style>@import url(https://ourworldindata.org/fonts.css)</style></defs><defs><pattern id="noDataPattern" patternUnits="userSpaceOnUse" width="4" height="4" patternTransform="rotate(-45 2 2)"><path d="M -1,2 l 6,0" stroke="#ccc" stroke-width="0.7"></path></pattern></defs><rect class="background-fill" fill="white" width="850" height="676.55"></rect><g id="header" class="HeaderView"><g id="logo" transform="translate(769, 16) scale(1)"><svg className="owidLogo" xmlns="http://www.w3.org/2000/svg" width="65" height="36" viewBox="0 0 65 36"  fill="none"><path fill="#002147" d="M0 0h64.8v36H0z"/><path fill="#CE261E" d="M0 33.3h64.8V36H0z"/><path fill="#fff" d="M13.796 10.575c0 .636-.106 1.226-.318 1.77a4.193 4.193 0 0 1-.894 1.404 4.084 4.084 0 0 1-1.386.93c-.54.22-1.138.33-1.794.33-.656 0-1.256-.11-1.8-.33a4.149 4.149 0 0 1-1.392-.93 4.193 4.193 0 0 1-.894-1.404A4.833 4.833 0 0 1 5 10.575c0-.636.106-1.224.318-1.764a4.18 4.18 0 0 1 .894-1.41 4.076 4.076 0 0 1 1.392-.924 4.684 4.684 0 0 1 1.8-.336c.656 0 1.254.112 1.794.336.54.224 1.002.534 1.386.93.384.392.682.86.894 1.404.212.54.318 1.128.318 1.764Zm-1.656 0c0-.476-.064-.902-.192-1.278a2.671 2.671 0 0 0-.54-.966 2.332 2.332 0 0 0-.864-.606 2.94 2.94 0 0 0-1.14-.21c-.424 0-.806.07-1.146.21-.34.14-.63.342-.87.606a2.742 2.742 0 0 0-.546.966 3.955 3.955 0 0 0-.192 1.278c0 .476.064.904.192 1.284.128.376.31.696.546.96.24.26.53.46.87.6.34.14.722.21 1.146.21.424 0 .804-.07 1.14-.21.34-.14.628-.34.864-.6.236-.264.416-.584.54-.96a4.01 4.01 0 0 0 .192-1.284ZM16.104 8.757v3.912c0 .376.086.668.258.876.176.204.438.306.786.306.256 0 .496-.056.72-.168a2.58 2.58 0 0 0 .636-.474V8.757h1.482v6.156h-.906c-.192 0-.318-.09-.378-.27l-.102-.492a4.65 4.65 0 0 1-.396.354 2.577 2.577 0 0 1-.438.27 2.35 2.35 0 0 1-.498.168 2.345 2.345 0 0 1-.57.066c-.336 0-.634-.056-.894-.168a1.821 1.821 0 0 1-.648-.486 2.157 2.157 0 0 1-.402-.738 3.233 3.233 0 0 1-.132-.948V8.757h1.482ZM21.328 14.913V8.757h.87c.152 0 .258.028.318.084.06.056.1.152.12.288l.09.744c.22-.38.478-.68.774-.9.296-.22.628-.33.996-.33.304 0 .556.07.756.21l-.192 1.11c-.012.072-.038.124-.078.156a.278.278 0 0 1-.162.042 1.01 1.01 0 0 1-.246-.042 1.646 1.646 0 0 0-.414-.042c-.308 0-.572.086-.792.258-.22.168-.406.416-.558.744v3.834h-1.482ZM27.347 6.237h1.356a.57.57 0 0 1 .348.102c.096.064.16.152.192.264l1.476 5.19c.036.128.068.268.096.42.032.148.062.306.09.474a5.968 5.968 0 0 1 .228-.894l1.704-5.19a.575.575 0 0 1 .186-.252.543.543 0 0 1 .348-.114h.474a.57.57 0 0 1 .348.102.497.497 0 0 1 .192.264l1.692 5.19c.088.256.164.54.228.852.028-.156.056-.306.084-.45.032-.144.064-.278.096-.402l1.476-5.19c.028-.1.09-.186.186-.258a.563.563 0 0 1 .348-.108h1.266l-2.694 8.676h-1.458l-1.896-5.928-.078-.246a9.504 9.504 0 0 1-.072-.282c-.024.1-.05.194-.078.282-.024.088-.048.17-.072.246l-1.914 5.928H30.04l-2.694-8.676ZM42.771 8.661c.46 0 .876.074 1.248.222.376.148.696.358.96.63s.468.604.612.996c.144.392.216.83.216 1.314 0 .488-.072.928-.216 1.32a2.85 2.85 0 0 1-.612 1.002 2.653 2.653 0 0 1-.96.636 3.35 3.35 0 0 1-1.248.222c-.46 0-.878-.074-1.254-.222a2.712 2.712 0 0 1-.966-.636 2.922 2.922 0 0 1-.618-1.002 3.807 3.807 0 0 1-.216-1.32c0-.484.072-.922.216-1.314.148-.392.354-.724.618-.996.268-.272.59-.482.966-.63a3.397 3.397 0 0 1 1.254-.222Zm0 5.202c.512 0 .89-.172 1.134-.516.248-.344.372-.848.372-1.512s-.124-1.17-.372-1.518c-.244-.348-.622-.522-1.134-.522-.52 0-.904.176-1.152.528-.248.348-.372.852-.372 1.512s.124 1.164.372 1.512c.248.344.632.516 1.152.516ZM46.723 14.913V8.757h.87c.152 0 .258.028.318.084.06.056.1.152.12.288l.09.744c.22-.38.478-.68.774-.9.296-.22.628-.33.996-.33.304 0 .556.07.756.21l-.192 1.11c-.012.072-.038.124-.078.156a.278.278 0 0 1-.162.042 1.01 1.01 0 0 1-.246-.042 1.646 1.646 0 0 0-.414-.042c-.308 0-.572.086-.792.258-.22.168-.406.416-.558.744v3.834h-1.482ZM52.96 5.997v8.916h-1.482V5.997h1.482ZM58.732 14.913c-.192 0-.318-.09-.378-.27l-.12-.594a3.68 3.68 0 0 1-.402.39c-.14.116-.292.216-.456.3-.16.084-.334.148-.522.192a2.372 2.372 0 0 1-.6.072c-.336 0-.644-.07-.924-.21a2.098 2.098 0 0 1-.726-.606 3.033 3.033 0 0 1-.468-.99 5.072 5.072 0 0 1-.162-1.344c0-.456.062-.88.186-1.272s.302-.732.534-1.02c.232-.288.51-.512.834-.672a2.384 2.384 0 0 1 1.092-.246 2.103 2.103 0 0 1 1.536.606V5.997h1.482v8.916h-.906Zm-1.974-1.086c.308 0 .57-.064.786-.192.216-.128.42-.31.612-.546v-2.76a1.452 1.452 0 0 0-.552-.432 1.597 1.597 0 0 0-.636-.126c-.224 0-.428.042-.612.126a1.21 1.21 0 0 0-.462.384c-.124.168-.22.384-.288.648-.068.26-.102.568-.102.924 0 .36.028.666.084.918.06.248.144.452.252.612.108.156.24.27.396.342.156.068.33.102.522.102ZM16.331 20.757v6.156H14.85v-6.156h1.481Zm.223-1.794a.844.844 0 0 1-.078.36.963.963 0 0 1-.21.294.995.995 0 0 1-.3.204.963.963 0 0 1-.372.072.948.948 0 0 1-.367-.072 1.018 1.018 0 0 1-.498-.498.963.963 0 0 1 0-.732.995.995 0 0 1 .205-.3.929.929 0 0 1 .293-.198.899.899 0 0 1 .738 0 .912.912 0 0 1 .3.198.943.943 0 0 1 .288.672ZM17.771 26.913v-6.156h.906c.192 0 .318.09.378.27l.102.486a2.934 2.934 0 0 1 .828-.618c.156-.076.322-.134.498-.174.176-.04.368-.06.576-.06.336 0 .634.058.894.174.26.112.476.272.648.48.176.204.308.45.396.738.092.284.138.598.138.942v3.918h-1.482v-3.918c0-.376-.088-.666-.264-.87-.172-.208-.432-.312-.78-.312-.256 0-.496.058-.72.174a2.58 2.58 0 0 0-.636.474v4.452h-1.482ZM34.22 22.575c0 .636-.106 1.22-.318 1.752-.212.532-.51.99-.894 1.374a4 4 0 0 1-1.386.894 4.87 4.87 0 0 1-1.794.318h-3.312v-8.676h3.312a4.79 4.79 0 0 1 1.794.324 4 4 0 0 1 1.386.894c.384.38.682.836.894 1.368.212.532.318 1.116.318 1.752Zm-1.65 0c0-.476-.064-.902-.192-1.278a2.68 2.68 0 0 0-.546-.96 2.332 2.332 0 0 0-.864-.606 2.94 2.94 0 0 0-1.14-.21h-1.686v6.108h1.686c.424 0 .804-.07 1.14-.21.34-.14.628-.34.864-.6a2.75 2.75 0 0 0 .546-.96 4.01 4.01 0 0 0 .192-1.284ZM39.98 26.913h-.665c-.14 0-.25-.02-.33-.06-.08-.044-.14-.13-.18-.258l-.132-.438c-.156.14-.31.264-.462.372a2.804 2.804 0 0 1-.462.264c-.16.072-.33.126-.51.162-.18.036-.38.054-.6.054-.26 0-.5-.034-.72-.102a1.618 1.618 0 0 1-.57-.318 1.448 1.448 0 0 1-.366-.522 1.852 1.852 0 0 1-.132-.726c0-.232.06-.46.18-.684.124-.228.328-.432.612-.612.284-.184.662-.336 1.134-.456.472-.12 1.058-.188 1.758-.204v-.36c0-.412-.088-.716-.264-.912-.172-.2-.424-.3-.756-.3a1.837 1.837 0 0 0-1.02.276c-.116.068-.224.13-.324.186a.664.664 0 0 1-.33.084.429.429 0 0 1-.258-.078.614.614 0 0 1-.174-.192l-.27-.474c.708-.648 1.562-.972 2.562-.972.36 0 .68.06.96.18.284.116.524.28.72.492.196.208.344.458.444.75.104.292.156.612.156.96v3.888Zm-2.88-.924c.153 0 .293-.014.42-.042.129-.028.249-.07.36-.126.117-.056.227-.124.33-.204.109-.084.217-.182.325-.294v-1.038c-.432.02-.794.058-1.086.114-.288.052-.52.12-.696.204a.923.923 0 0 0-.378.294.664.664 0 0 0-.108.366c0 .26.076.446.228.558.156.112.358.168.606.168ZM43.22 27.01c-.532 0-.942-.15-1.23-.45-.288-.305-.432-.723-.432-1.255v-3.438h-.624a.31.31 0 0 1-.21-.078c-.056-.052-.084-.13-.084-.234v-.588l.99-.162.312-1.68a.302.302 0 0 1 .108-.186.365.365 0 0 1 .222-.066h.768v1.938h1.62v1.056h-1.62v3.336c0 .192.048.342.144.45a.488.488 0 0 0 .384.162c.092 0 .168-.01.228-.03.064-.024.118-.048.162-.072.048-.024.09-.046.126-.066a.194.194 0 0 1 .108-.036.16.16 0 0 1 .108.036c.028.02.058.052.09.096l.444.72c-.216.18-.464.316-.744.408a2.77 2.77 0 0 1-.87.138ZM50.423 26.913h-.666c-.14 0-.25-.02-.33-.06-.08-.044-.14-.13-.18-.258l-.132-.438c-.156.14-.31.264-.462.372a2.804 2.804 0 0 1-.462.264c-.16.072-.33.126-.51.162-.18.036-.38.054-.6.054-.26 0-.5-.034-.72-.102a1.618 1.618 0 0 1-.57-.318 1.448 1.448 0 0 1-.366-.522 1.852 1.852 0 0 1-.132-.726c0-.232.06-.46.18-.684.124-.228.328-.432.612-.612.284-.184.662-.336 1.134-.456.472-.12 1.058-.188 1.758-.204v-.36c0-.412-.088-.716-.264-.912-.172-.2-.424-.3-.756-.3a1.837 1.837 0 0 0-1.02.276c-.116.068-.224.13-.324.186a.664.664 0 0 1-.33.084.429.429 0 0 1-.258-.078.614.614 0 0 1-.174-.192l-.27-.474c.708-.648 1.562-.972 2.562-.972.36 0 .68.06.96.18.284.116.524.28.72.492.196.208.344.458.444.75.104.292.156.612.156.96v3.888Zm-2.88-.924c.152 0 .292-.014.42-.042.128-.028.248-.07.36-.126.116-.056.226-.124.33-.204.108-.084.216-.182.324-.294v-1.038c-.432.02-.794.058-1.086.114-.288.052-.52.12-.696.204a.923.923 0 0 0-.378.294.664.664 0 0 0-.108.366c0 .26.076.446.228.558.156.112.358.168.606.168Z"/></svg></g><a id="title" href="https://ourworldindata.org/grapher/annual-co2-emissions-per-country?country=CHN~BRA~IND~IDN~RUS~ZAF" style="font-family:&#x27;Playfair Display&#x27;, Georgia, &#x27;Times New Roman&#x27;, &#x27;Liberation Serif&#x27;, serif" target="_blank" rel="noopener"><text font-size="24.75" font-weight="600" x="16.0" y="40.0" fill="#5b5b5b"><tspan x="16" y="40.0075">Annual CO₂ emissions</tspan></text></a><g id="subtitle" class="markdown-text-wrap"><text x="16.0" y="63.9" style="font-size:14.625px;line-height:1.2" fill="#5b5b5b"><tspan x="16" y="63.9">Carbon dioxide (CO₂) emissions from <tspan class="dod-span" data-id="fossilemissions">fossil fuels and industry<tspan style="font-feature-settings:&quot;sups&quot;">¹</tspan></tspan>. Land-use change is not included.</tspan></text></g></g><g id="chart-area" style="pointer-events:none"><g id="line-chart" class="LineChart"><defs><clipPath id="boundsClip-2"><rect x="72.02000000000001" y="73.25" width="838" height="488.55"></rect></clipPath></defs><rect x="16" y="83.25" width="818" height="468.55" fill="none"></rect><g id="dual-axis" class="DualAxisView"><g id="horizontal-axis" class="HorizontalAxis"><g id="tick__1830"><line x1="82" y1="530.8" x2="82" y2="536.3" stroke="#999" stroke-width="1"></line><text x="82.02000000000001" y="549.8" fill="#5b5b5b" text-anchor="start" font-size="13.5">1830</text></g><g id="tick__2022"><line x1="725.2" y1="530.8" x2="725.2" y2="536.3" stroke="#999" stroke-width="1"></line><text x="725.155" y="549.8" fill="#5b5b5b" text-anchor="end" font-size="13.5">2022</text></g><g id="tick__1850"><line x1="149" y1="530.8" x2="149" y2="536.3" stroke="#999" stroke-width="1"></line><text x="149" y="549.8" fill="#5b5b5b" text-anchor="middle" font-size="13.5">1850</text></g><g id="tick__1900"><line x1="316.5" y1="530.8" x2="316.5" y2="536.3" stroke="#999" stroke-width="1"></line><text x="316.5" y="549.8" fill="#5b5b5b" text-anchor="middle" font-size="13.5">1900</text></g><g id="tick__1950"><line x1="484" y1="530.8" x2="484" y2="536.3" stroke="#999" stroke-width="1"></line><text x="484" y="549.8" fill="#5b5b5b" text-anchor="middle" font-size="13.5">1950</text></g><g id="tick__2000"><line x1="651.5" y1="530.8" x2="651.5" y2="536.3" stroke="#999" stroke-width="1"></line><text x="651.5" y="549.8" fill="#5b5b5b" text-anchor="middle" font-size="13.5">2000</text></g></g><g id="vertical-axis" class="VerticalAxis"><g id="tick-labels"><text id="tick-label__0-t" x="77.02" y="531.3" dy=".32em" text-anchor="end" fill="#5b5b5b" font-size="13.5">0 t</text><text id="tick-label__2-billion-t" x="77.02" y="453.7" dy=".32em" text-anchor="end" fill="#5b5b5b" font-size="13.5">2 billion t</text><text id="tick-label__4-billion-t" x="77.02" y="376.2" dy=".32em" text-anchor="end" fill="#5b5b5b" font-size="13.5">4 billion t</text><text id="tick-label__6-billion-t" x="77.02" y="298.6" dy=".32em" text-anchor="end" fill="#5b5b5b" font-size="13.5">6 billion t</text><text id="tick-label__8-billion-t" x="77.02" y="221" dy=".32em" text-anchor="end" fill="#5b5b5b" font-size="13.5">8 billion t</text><text id="tick-label__10-billion-t" x="77.02" y="143.4" dy=".32em" text-anchor="end" fill="#5b5b5b" font-size="13.5">10 billion t</text></g></g><g id="horizontal-grid-lines" class="AxisGridLines horizontalLines"><line id="grid-line__0" x1="82.02" y1="531.3" x2="725.15" y2="531.3" stroke="#999" stroke-width="1"></line><line id="grid-line__2000000000" x1="82.02" y1="453.7" x2="725.15" y2="453.7" stroke="#ddd" stroke-width="1" stroke-dasharray="3,2"></line><line id="grid-line__4000000000" x1="82.02" y1="376.2" x2="725.15" y2="376.2" stroke="#ddd" stroke-width="1" stroke-dasharray="3,2"></line><line id="grid-line__6000000000" x1="82.02" y1="298.6" x2="725.15" y2="298.6" stroke="#ddd" stroke-width="1" stroke-dasharray="3,2"></line><line id="grid-line__8000000000" x1="82.02" y1="221" x2="725.15" y2="221" stroke="#ddd" stroke-width="1" stroke-dasharray="3,2"></line><line id="grid-line__10000000000" x1="82.02" y1="143.4" x2="725.15" y2="143.4" stroke="#ddd" stroke-width="1" stroke-dasharray="3,2"></line></g></g><g clip-path="url(#boundsClip-2)"><g id="line-labels" class="LineLabels"><g id="mark__China" class="legendMark" style="cursor:default"><g id="connector" class="indicator"><path d="M729.155,89.3 H742.655 V90 H756.155" stroke="#999" stroke-width="0.5" fill="none"></path></g><rect id="background" x="725.155" y="83.25" width="70.37" height="13.5" fill="#fff" opacity="0"></rect><text id="label" font-size="13.50" font-weight="400" x="760.2" y="95.0" fill="#2c8465"><tspan x="760.155" y="94.995">China</tspan></text></g><g id="mark__India" class="legendMark" style="cursor:default"><g id="connector" class="indicator"><path d="M729.155,421.5 H742.655 V421.5 H756.155" stroke="#999" stroke-width="0.5" fill="none"></path></g><rect id="background" x="725.155" y="414.75" width="64.43" height="13.5" fill="#fff" opacity="0"></rect><text id="label" font-size="13.50" font-weight="400" x="760.2" y="426.5" fill="#6d3e91"><tspan x="760.155" y="426.495">India</tspan></text></g><g id="mark__Russia" class="legendMark" style="cursor:default"><g id="connector" class="indicator"><path d="M729.155,467.2 H742.655 V467.2 H756.155" stroke="#999" stroke-width="0.5" fill="none"></path></g><rect id="background" x="725.155" y="460.45" width="76.31" height="13.5" fill="#fff" opacity="0"></rect><text id="label" font-size="13.50" font-weight="400" x="760.2" y="472.2" fill="#883039"><tspan x="760.155" y="472.195">Russia</tspan></text></g><g id="mark__Indonesia" class="legendMark" style="cursor:default"><g id="connector" class="indicator"><path d="M729.155,503 H738.155 V494.8666666666667 H756.155" stroke="#999" stroke-width="0.5" fill="none"></path></g><rect id="background" x="725.155" y="488.1166666666667" width="93.86000000000001" height="13.5" fill="#fff" opacity="0"></rect><text id="label" font-size="13.50" font-weight="400" x="760.2" y="499.9" fill="#286bbb"><tspan x="760.155" y="499.8616666666667">Indonesia</tspan></text></g><g id="mark__Brazil" class="legendMark" style="cursor:default"><g id="connector" class="indicator"><path d="M729.155,512.5 H747.155 V510.3666666666667 H756.155" stroke="#999" stroke-width="0.5" fill="none"></path></g><rect id="background" x="725.155" y="503.6166666666667" width="68.75" height="13.5" fill="#fff" opacity="0"></rect><text id="label" font-size="13.50" font-weight="400" x="760.2" y="515.4" fill="#be5915"><tspan x="760.155" y="515.3616666666667">Brazil</tspan></text></g><g id="mark__South-Africa" class="legendMark" style="cursor:default"><g id="connector" class="indicator"><path d="M729.155,515.6 H747.155 V525.8666666666667 H756.155" stroke="#999" stroke-width="0.5" fill="none"></path></g><rect id="background" x="725.155" y="519.1166666666667" width="108.845" height="13.5" fill="#fff" opacity="0"></rect><text id="label" font-size="13.50" font-weight="400" x="760.2" y="530.9" fill="#996d39"><tspan x="760.155" y="530.8616666666667">South Africa</tspan></text></g></g><g id="lines" class="Lines"><rect x="82" y="89" width="643" height="442" fill="rgba(255,255,255,0)" opacity="0"></rect><g id="line__China"><path stroke-linecap="round" stroke-linejoin="round" stroke="#ddd" d="M339.9 530.5L343.3 530.4L346.6 530.4L350 530.3L353.3 530.3L356.7 530.6L360 530.4L363.4 530.3L366.7 530.3L370.1 530.1L373.4 530.1L376.8 530L380.1 529.8L383.5 529.7L386.8 529.8L390.2 529.7L393.5 529.5L396.9 529.4L400.2 529.5L403.6 529.6L406.9 529.5L410.3 529.5L413.6 529.4L417 529.4L420.3 529.3L423.7 529.4L427 529.2L430.4 528.9L433.7 528.5L437.1 528.4L440.4 528.5L443.8 528.9L447.1 528.4L450.5 527.8L453.8 526.9L457.2 526.4L460.5 527.1L463.9 527.3L467.2 529.1L470.6 529.9L473.9 529.7L477.3 529.8L480.6 528.9L484 528.2L487.3 527.3L490.7 526.3L494 526.1L497.4 525.1L500.7 523.9L504.1 522.9L507.4 521.4L510.8 511L514.1 503.4L517.5 500.3L520.8 509.2L524.2 513.5L527.5 513.6L530.9 513.4L534.2 511.9L537.6 510L540.9 513.4L544.3 512.1L547.6 507.7L551 500L554.3 496L557.7 493.7L561 492.2L564.4 491.4L567.7 485.4L571.1 483.7L574.4 479.3L577.8 473.4L581.1 472.1L584.5 473.3L587.8 474L591.2 469L594.5 465.6L597.9 459.7L601.2 453.8L604.6 449.7L607.9 443.7L611.3 437.2L614.6 435.7L618 434.9L621.3 430.2L624.7 425.4L628 418L631.4 410.9L634.7 400.9L638.1 395.2L641.4 394.9L644.8 400.8L648.1 393.3L651.5 389.8L654.8 386.7L658.2 372.2L661.5 343.5L664.9 328.9L668.2 303.1L671.6 279.4L674.9 260.4L678.3 240.3L681.6 225.2L685 196.9L688.3 161.6L691.7 152L695 145.1L698.4 143.5L701.7 148.6L705.1 152.5L708.4 143L711.8 129.7L715.1 115.5L718.5 108L721.8 91.6L725.2 89.3" fill="none" stroke-width="1"></path></g><g id="line__Brazil"><path stroke-linecap="round" stroke-linejoin="round" stroke="#ddd" d="M319.8 531.2L323.2 531.2L326.5 531.2L329.9 531.2L333.2 531.2L336.6 531.2L339.9 531.2L343.3 531.2L346.6 531.2L350 531.1L353.3 531.1L356.7 531.1L360 531.1L363.4 531.1L366.7 531.2L370.1 531.2L373.4 531.2L376.8 531.2L380.1 531.2L383.5 531.2L386.8 531.2L390.2 531.2L393.5 531.1L396.9 531.1L400.2 531.1L403.6 531.1L406.9 531.1L410.3 531.1L413.6 531.1L417 531.1L420.3 531.1L423.7 531.1L427 531.1L430.4 531.1L433.7 531.1L437.1 531.1L440.4 531.1L443.8 531.1L447.1 531.1L450.5 531L453.8 531.1L457.2 531.1L460.5 531L463.9 531.1L467.2 531L470.6 531L473.9 531L477.3 531L480.6 531L484 530.5L487.3 530.5L490.7 530.3L494 530.3L497.4 530.1L500.7 530L504.1 529.9L507.4 529.9L510.8 529.8L514.1 529.8L517.5 529.5L520.8 529.4L524.2 529.2L527.5 529.1L530.9 529.1L534.2 529.1L537.6 528.8L540.9 528.7L544.3 528.3L547.6 528L551 527.7L554.3 527.3L557.7 526.9L561 526.2L564.4 525.8L567.7 525.5L571.1 525.3L574.4 525L577.8 524.4L581.1 524L584.5 524.1L587.8 524.7L591.2 524.6L594.5 524.9L597.9 524.8L601.2 524.3L604.6 523.6L607.9 523.3L611.3 523.2L614.6 523.1L618 522.8L621.3 522.4L624.7 522.2L628 521.8L631.4 521.4L634.7 520.9L638.1 520.1L641.4 519.4L644.8 519L648.1 518.6L651.5 518.1L654.8 517.9L658.2 517.8L661.5 517.9L664.9 517.3L668.2 517.2L671.6 517L674.9 516.2L678.3 515.3L681.6 516.2L685 514.2L688.3 513.4L691.7 512L695 510.6L698.4 509.7L701.7 510.8L705.1 512.2L708.4 512L711.8 512.8L715.1 512.9L718.5 514.1L721.8 512L725.2 512.5" fill="none" stroke-width="1"></path></g><g id="line__Indonesia"><path stroke-linecap="round" stroke-linejoin="round" stroke="#ddd" d="M279.7 531.3L283 531.3L286.3 531.3L289.7 531.3L293 531.3L296.4 531.3L299.7 531.3L303.1 531.3L306.4 531.3L309.8 531.2L313.1 531.3L316.5 531.3L319.8 531.2L323.2 531.2L326.5 531.2L329.9 531.2L333.2 531.1L336.6 531.1L339.9 531.1L343.3 531.1L346.6 531.1L350 531.1L353.3 531L356.7 531.1L360 531.1L363.4 531.1L366.7 531.1L370.1 531L373.4 531L376.8 531L380.1 531L383.5 531L386.8 531L390.2 531L393.5 530.9L396.9 530.9L400.2 530.9L403.6 530.9L406.9 530.8L410.3 530.7L413.6 530.6L417 530.6L420.3 530.6L423.7 530.7L427 530.6L430.4 530.6L433.7 530.5L437.1 530.5L440.4 530.3L443.8 530.3L447.1 530.2L450.5 530.2L453.8 530.3L457.2 530.9L460.5 530.6L463.9 531L467.2 531.2L470.6 531.2L473.9 531.1L477.3 530.7L480.6 530.5L484 530.9L487.3 530.9L490.7 530.8L494 530.8L497.4 530.7L500.7 530.5L504.1 530.5L507.4 530.4L510.8 530.4L514.1 530.4L517.5 530.5L520.8 530.3L524.2 530.4L527.5 530.4L530.9 530.4L534.2 530.3L537.6 530.4L540.9 530.3L544.3 530.2L547.6 530L551 529.9L554.3 529.8L557.7 529.6L561 529.4L564.4 529.3L567.7 529.2L571.1 528.9L574.4 528.1L577.8 527.7L581.1 527.6L584.5 527.6L587.8 527.4L591.2 527.2L594.5 527.2L597.9 526.9L601.2 526.6L604.6 526.6L607.9 526.5L611.3 526.2L614.6 526.2L618 525.3L621.3 524.5L624.7 523.6L628 523L631.4 522.8L634.7 522.7L638.1 521.5L641.4 520.4L644.8 521.8L648.1 520L651.5 520.4L654.8 519L658.2 519.3L661.5 518.1L664.9 518L668.2 517.8L671.6 517.9L674.9 516.3L678.3 517.1L681.6 515.8L685 514L688.3 511.9L691.7 511.3L695 512.3L698.4 512.4L701.7 510.4L705.1 510.4L708.4 509.7L711.8 508.3L715.1 506.1L718.5 507.8L721.8 507.4L725.2 503" fill="none" stroke-width="1"></path></g><g id="line__South-Africa"><path stroke-linecap="round" stroke-linejoin="round" stroke="#ddd" d="M262.9 531.3L266.3 531.3L269.6 531.3L273 531.3L276.3 531.3L279.7 531.3L283 531.3L286.3 531.3L289.7 531.3L293 531.2L296.4 531.2L299.7 531.2L303.1 531.1L306.4 531.1L309.8 531.1L313.1 531.1L316.5 531.2L319.8 531.1L323.2 531.1L326.5 531L329.9 531L333.2 530.9L336.6 530.9L339.9 530.8L343.3 530.8L346.6 530.7L350 530.6L353.3 530.7L356.7 530.6L360 530.6L363.4 530.6L366.7 530.6L370.1 530.5L373.4 530.4L376.8 530.4L380.1 530.4L383.5 530.3L386.8 530.3L390.2 530.5L393.5 530.3L396.9 530.2L400.2 530.2L403.6 530.1L406.9 530.2L410.3 530.2L413.6 530.1L417 530.2L420.3 530.3L423.7 530.4L427 530.3L430.4 530.2L433.7 530.1L437.1 529.9L440.4 529.9L443.8 529.8L447.1 529.7L450.5 529.7L453.8 529.6L457.2 529.4L460.5 529.4L463.9 529.2L467.2 529.1L470.6 529.1L473.9 529.1L477.3 529.1L480.6 529L484 528.9L487.3 528.8L490.7 528.6L494 528.5L497.4 528.4L500.7 528.1L504.1 527.9L507.4 527.8L510.8 527.6L514.1 527.6L517.5 527.5L520.8 527.3L524.2 527.2L527.5 527L530.9 526.7L534.2 526.3L537.6 526.3L540.9 526.1L544.3 525.9L547.6 525.7L551 525.5L554.3 524.8L557.7 524.6L561 524.6L564.4 524.5L567.7 524.1L571.1 523.8L574.4 523.6L577.8 523.5L581.1 522.8L584.5 522.4L587.8 521.3L591.2 520.4L594.5 520L597.9 519.1L601.2 518.7L604.6 518.5L607.9 518.6L611.3 518L614.6 518.1L618 519.2L621.3 518.7L624.7 519.6L628 518.9L631.4 518.2L634.7 517.3L638.1 517.2L641.4 516.4L644.8 516.7L648.1 516.8L651.5 516.6L654.8 516.9L658.2 517.5L661.5 515.6L664.9 513.9L668.2 515.2L671.6 514L674.9 513.3L678.3 512.1L681.6 512.7L685 513.3L688.3 513.2L691.7 513.5L695 513.5L698.4 513L701.7 514L705.1 513.6L708.4 514.3L711.8 514.4L715.1 513.2L718.5 514.4L721.8 514.8L725.2 515.6" fill="none" stroke-width="1"></path></g><g id="line__India"><path stroke-linecap="round" stroke-linejoin="round" stroke="#ddd" d="M175.8 531.3L179.2 531.3L182.5 531.3L185.9 531.3L189.2 531.3L192.6 531.3L195.9 531.3L199.3 531.3L202.6 531.3L242.8 531.2L246.2 531.2L249.5 531.2L252.9 531.2L256.2 531.2L259.6 531.2L262.9 531.2L266.3 531.2L269.6 531.2L273 531.2L276.3 531.2L279.7 531.1L283 531.1L286.3 531.1L289.7 531.1L293 531.1L296.4 531.1L299.7 531L303.1 531L306.4 531L309.8 530.9L313.1 530.9L316.5 530.8L319.8 530.8L323.2 530.7L326.5 530.7L329.9 530.7L333.2 530.6L336.6 530.5L339.9 530.5L343.3 530.3L346.6 530.4L350 530.4L353.3 530.3L356.7 530.2L360 530.1L363.4 530.1L366.7 530L370.1 530L373.4 529.9L376.8 529.8L380.1 529.6L383.5 529.9L386.8 529.8L390.2 529.9L393.5 529.8L396.9 529.7L400.2 529.7L403.6 529.8L406.9 529.7L410.3 529.7L413.6 529.7L417 529.7L420.3 529.8L423.7 529.9L427 529.9L430.4 529.8L433.7 529.7L437.1 529.7L440.4 529.6L443.8 529.3L447.1 529.4L450.5 529.3L453.8 529.2L457.2 529.2L460.5 529.5L463.9 529.5L467.2 529.2L470.6 529.3L473.9 529.2L477.3 529.2L480.6 529.1L484 528.9L487.3 528.8L490.7 528.7L494 528.6L497.4 528.5L500.7 528.2L504.1 528.1L507.4 527.7L510.8 527.6L514.1 527.4L517.5 527L520.8 526.6L524.2 526.2L527.5 525.8L530.9 525.9L534.2 525.3L537.6 525.1L540.9 525.1L544.3 524.5L547.6 524.4L551 524.3L554.3 523.9L557.7 523.4L561 523.2L564.4 522.9L567.7 522.2L571.1 521.8L574.4 521.3L577.8 521.1L581.1 520.6L584.5 520L587.8 519.1L591.2 518.7L594.5 517.6L597.9 517.3L601.2 515.9L604.6 514.8L607.9 513.6L611.3 512.2L614.6 510.3L618 508.9L621.3 507.4L624.7 505.9L628 505L631.4 503.6L634.7 501.8L638.1 499.4L641.4 498L644.8 497.3L648.1 494.4L651.5 493.4L654.8 492.9L658.2 491.7L661.5 490.2L664.9 487.7L668.2 485.3L671.6 481.2L674.9 477.3L678.3 473.5L681.6 468.8L685 466.2L688.3 462.9L691.7 456.6L695 453.9L698.4 448L701.7 444.6L705.1 440L708.4 437.2L711.8 430.7L715.1 430L718.5 437.4L721.8 427.6L725.2 421.5" fill="none" stroke-width="1"></path></g><g id="line__Russia"><path stroke-linecap="round" stroke-linejoin="round" stroke="#ddd" d="M82 531.3L85.4 531.3L88.7 531.3L92.1 531.3L149 531.3L165.8 531.3L175.8 531.3L179.2 531.3L182.5 531.3L185.9 531.3L189.2 531.3L192.6 531.3L195.9 531.3L199.3 531.3L202.6 531.2L206 531.2L209.3 531.2L212.7 531.2L216 531.2L219.4 531.2L222.7 531.2L226.1 531.2L229.4 531.2L232.8 531.1L236.1 531.1L239.5 531.1L242.8 531L246.2 531L249.5 531L252.9 530.9L256.2 530.9L259.6 530.9L262.9 530.9L266.3 530.8L269.6 530.8L273 530.8L276.3 530.8L279.7 530.7L283 530.7L286.3 530.6L289.7 530.6L293 530.4L296.4 530.4L299.7 530.3L303.1 530.3L306.4 530.1L309.8 529.9L313.1 529.7L316.5 529.5L319.8 529.5L323.2 529.5L326.5 529.6L329.9 529.4L333.2 529.6L336.6 529.3L339.9 529.1L343.3 529.1L346.6 529L350 529L353.3 528.9L356.7 528.6L360 528.4L363.4 528.7L366.7 528.9L370.1 528.7L373.4 528.9L376.8 530.4L380.1 530.5L383.5 530.6L386.8 530.5L390.2 530.3L393.5 530.2L396.9 530L400.2 530L403.6 529.5L406.9 529L410.3 528.8L413.6 528.6L417 527.6L420.3 526.8L423.7 526.3L427 525.7L430.4 524.5L433.7 523.6L437.1 522.5L440.4 522.3L443.8 521.8L447.1 521.7L450.5 519.8L453.8 521.2L457.2 525.8L460.5 525.6L463.9 523L467.2 522.5L470.6 521.4L473.9 519.4L477.3 518.6L480.6 516.9L484 515.2L487.3 513.9L490.7 512.6L494 511.5L497.4 509.7L500.7 506.8L504.1 504.5L507.4 501.9L510.8 500L514.1 498.3L517.5 497L520.8 495.9L524.2 494.2L527.5 491.5L530.9 488.9L534.2 486.4L537.6 483.8L540.9 481.7L544.3 480.3L547.6 478.2L551 475.4L554.3 472L557.7 468.9L561 466.3L564.4 463.8L567.7 460.4L571.1 457.6L574.4 455.1L577.8 452.5L581.1 451.8L584.5 448.7L587.8 450.3L591.2 448.8L594.5 447.6L597.9 446.8L601.2 440.2L604.6 440.2L607.9 439.8L611.3 436.8L614.6 438L618 432.9L621.3 437.9L624.7 455L628 458.9L631.4 467.4L634.7 468.5L638.1 469.8L641.4 473.8L644.8 474.5L648.1 473.3L651.5 473.9L654.8 472.5L658.2 472.9L661.5 471.7L664.9 471.4L668.2 470.7L671.6 468.3L674.9 468.3L678.3 467.2L681.6 471.4L685 468L688.3 465.9L691.7 465.3L695 467.7L698.4 467.7L701.7 467.7L705.1 467.9L708.4 466.7L711.8 464.9L715.1 465.2L718.5 468L721.8 464.9L725.2 467.2" fill="none" stroke-width="1"></path></g><g id="line__China"><path id="outline" fill="none" stroke-linecap="butt" stroke-linejoin="round" stroke="#fff" stroke-width="2.5" d="M339.9 530.5L343.3 530.4L346.6 530.4L350 530.3L353.3 530.3L356.7 530.6L360 530.4L363.4 530.3L366.7 530.3L370.1 530.1L373.4 530.1L376.8 530L380.1 529.8L383.5 529.7L386.8 529.8L390.2 529.7L393.5 529.5L396.9 529.4L400.2 529.5L403.6 529.6L406.9 529.5L410.3 529.5L413.6 529.4L417 529.4L420.3 529.3L423.7 529.4L427 529.2L430.4 528.9L433.7 528.5L437.1 528.4L440.4 528.5L443.8 528.9L447.1 528.4L450.5 527.8L453.8 526.9L457.2 526.4L460.5 527.1L463.9 527.3L467.2 529.1L470.6 529.9L473.9 529.7L477.3 529.8L480.6 528.9L484 528.2L487.3 527.3L490.7 526.3L494 526.1L497.4 525.1L500.7 523.9L504.1 522.9L507.4 521.4L510.8 511L514.1 503.4L517.5 500.3L520.8 509.2L524.2 513.5L527.5 513.6L530.9 513.4L534.2 511.9L537.6 510L540.9 513.4L544.3 512.1L547.6 507.7L551 500L554.3 496L557.7 493.7L561 492.2L564.4 491.4L567.7 485.4L571.1 483.7L574.4 479.3L577.8 473.4L581.1 472.1L584.5 473.3L587.8 474L591.2 469L594.5 465.6L597.9 459.7L601.2 453.8L604.6 449.7L607.9 443.7L611.3 437.2L614.6 435.7L618 434.9L621.3 430.2L624.7 425.4L628 418L631.4 410.9L634.7 400.9L638.1 395.2L641.4 394.9L644.8 400.8L648.1 393.3L651.5 389.8L654.8 386.7L658.2 372.2L661.5 343.5L664.9 328.9L668.2 303.1L671.6 279.4L674.9 260.4L678.3 240.3L681.6 225.2L685 196.9L688.3 161.6L691.7 152L695 145.1L698.4 143.5L701.7 148.6L705.1 152.5L708.4 143L711.8 129.7L715.1 115.5L718.5 108L721.8 91.6L725.2 89.3"></path><g id="polyline"><polyline id="polyline" points="339.90,530.50 343.30,530.40 346.60,530.40 350.00,530.30 353.30,530.30 356.70,530.60 360.00,530.40 363.40,530.30 366.70,530.30 370.10,530.10 373.40,530.10 376.80,530.00 380.10,529.80 383.50,529.70 386.80,529.80 390.20,529.70 393.50,529.50 396.90,529.40 400.20,529.50 403.60,529.60 406.90,529.50 410.30,529.50 413.60,529.40 417.00,529.40 420.30,529.30 423.70,529.40 427.00,529.20 430.40,528.90 433.70,528.50 437.10,528.40 440.40,528.50 443.80,528.90 447.10,528.40 450.50,527.80 453.80,526.90 457.20,526.40 460.50,527.10 463.90,527.30 467.20,529.10 470.60,529.90 473.90,529.70 477.30,529.80 480.60,528.90 484.00,528.20 487.30,527.30 490.70,526.30 494.00,526.10 497.40,525.10 500.70,523.90 504.10,522.90 507.40,521.40 510.80,511.00 514.10,503.40 517.50,500.30 520.80,509.20 524.20,513.50 527.50,513.60 530.90,513.40 534.20,511.90 537.60,510.00 540.90,513.40 544.30,512.10 547.60,507.70 551.00,500.00 554.30,496.00 557.70,493.70 561.00,492.20 564.40,491.40 567.70,485.40 571.10,483.70 574.40,479.30 577.80,473.40 581.10,472.10 584.50,473.30 587.80,474.00 591.20,469.00 594.50,465.60 597.90,459.70 601.20,453.80 604.60,449.70 607.90,443.70 611.30,437.20 614.60,435.70 618.00,434.90 621.30,430.20 624.70,425.40 628.00,418.00 631.40,410.90 634.70,400.90 638.10,395.20 641.40,394.90 644.80,400.80 648.10,393.30 651.50,389.80 654.80,386.70 658.20,372.20 661.50,343.50 664.90,328.90 668.20,303.10 671.60,279.40 674.90,260.40 678.30,240.30 681.60,225.20 685.00,196.90 688.30,161.60 691.70,152.00 695.00,145.10 698.40,143.50 701.70,148.60 705.10,152.50 708.40,143.00 711.80,129.70 715.10,115.50 718.50,108.00 721.80,91.60 725.20,89.30" stroke-linejoin="round" stroke-width="1.5" stroke="#2C8465" fill="none" stroke-linecap="butt"></polyline></g></g><g id="line__Brazil"><path id="outline" fill="none" stroke-linecap="butt" stroke-linejoin="round" stroke="#fff" stroke-width="2.5" d="M319.8 531.2L323.2 531.2L326.5 531.2L329.9 531.2L333.2 531.2L336.6 531.2L339.9 531.2L343.3 531.2L346.6 531.2L350 531.1L353.3 531.1L356.7 531.1L360 531.1L363.4 531.1L366.7 531.2L370.1 531.2L373.4 531.2L376.8 531.2L380.1 531.2L383.5 531.2L386.8 531.2L390.2 531.2L393.5 531.1L396.9 531.1L400.2 531.1L403.6 531.1L406.9 531.1L410.3 531.1L413.6 531.1L417 531.1L420.3 531.1L423.7 531.1L427 531.1L430.4 531.1L433.7 531.1L437.1 531.1L440.4 531.1L443.8 531.1L447.1 531.1L450.5 531L453.8 531.1L457.2 531.1L460.5 531L463.9 531.1L467.2 531L470.6 531L473.9 531L477.3 531L480.6 531L484 530.5L487.3 530.5L490.7 530.3L494 530.3L497.4 530.1L500.7 530L504.1 529.9L507.4 529.9L510.8 529.8L514.1 529.8L517.5 529.5L520.8 529.4L524.2 529.2L527.5 529.1L530.9 529.1L534.2 529.1L537.6 528.8L540.9 528.7L544.3 528.3L547.6 528L551 527.7L554.3 527.3L557.7 526.9L561 526.2L564.4 525.8L567.7 525.5L571.1 525.3L574.4 525L577.8 524.4L581.1 524L584.5 524.1L587.8 524.7L591.2 524.6L594.5 524.9L597.9 524.8L601.2 524.3L604.6 523.6L607.9 523.3L611.3 523.2L614.6 523.1L618 522.8L621.3 522.4L624.7 522.2L628 521.8L631.4 521.4L634.7 520.9L638.1 520.1L641.4 519.4L644.8 519L648.1 518.6L651.5 518.1L654.8 517.9L658.2 517.8L661.5 517.9L664.9 517.3L668.2 517.2L671.6 517L674.9 516.2L678.3 515.3L681.6 516.2L685 514.2L688.3 513.4L691.7 512L695 510.6L698.4 509.7L701.7 510.8L705.1 512.2L708.4 512L711.8 512.8L715.1 512.9L718.5 514.1L721.8 512L725.2 512.5"></path><g id="polyline"><polyline id="polyline" points="319.80,531.20 323.20,531.20 326.50,531.20 329.90,531.20 333.20,531.20 336.60,531.20 339.90,531.20 343.30,531.20 346.60,531.20 350.00,531.10 353.30,531.10 356.70,531.10 360.00,531.10 363.40,531.10 366.70,531.20 370.10,531.20 373.40,531.20 376.80,531.20 380.10,531.20 383.50,531.20 386.80,531.20 390.20,531.20 393.50,531.10 396.90,531.10 400.20,531.10 403.60,531.10 406.90,531.10 410.30,531.10 413.60,531.10 417.00,531.10 420.30,531.10 423.70,531.10 427.00,531.10 430.40,531.10 433.70,531.10 437.10,531.10 440.40,531.10 443.80,531.10 447.10,531.10 450.50,531.00 453.80,531.10 457.20,531.10 460.50,531.00 463.90,531.10 467.20,531.00 470.60,531.00 473.90,531.00 477.30,531.00 480.60,531.00 484.00,530.50 487.30,530.50 490.70,530.30 494.00,530.30 497.40,530.10 500.70,530.00 504.10,529.90 507.40,529.90 510.80,529.80 514.10,529.80 517.50,529.50 520.80,529.40 524.20,529.20 527.50,529.10 530.90,529.10 534.20,529.10 537.60,528.80 540.90,528.70 544.30,528.30 547.60,528.00 551.00,527.70 554.30,527.30 557.70,526.90 561.00,526.20 564.40,525.80 567.70,525.50 571.10,525.30 574.40,525.00 577.80,524.40 581.10,524.00 584.50,524.10 587.80,524.70 591.20,524.60 594.50,524.90 597.90,524.80 601.20,524.30 604.60,523.60 607.90,523.30 611.30,523.20 614.60,523.10 618.00,522.80 621.30,522.40 624.70,522.20 628.00,521.80 631.40,521.40 634.70,520.90 638.10,520.10 641.40,519.40 644.80,519.00 648.10,518.60 651.50,518.10 654.80,517.90 658.20,517.80 661.50,517.90 664.90,517.30 668.20,517.20 671.60,517.00 674.90,516.20 678.30,515.30 681.60,516.20 685.00,514.20 688.30,513.40 691.70,512.00 695.00,510.60 698.40,509.70 701.70,510.80 705.10,512.20 708.40,512.00 711.80,512.80 715.10,512.90 718.50,514.10 721.80,512.00 725.20,512.50" stroke-linejoin="round" stroke-width="1.5" stroke="#BE5915" fill="none" stroke-linecap="butt"></polyline></g></g><g id="line__Indonesia"><path id="outline" fill="none" stroke-linecap="butt" stroke-linejoin="round" stroke="#fff" stroke-width="2.5" d="M279.7 531.3L283 531.3L286.3 531.3L289.7 531.3L293 531.3L296.4 531.3L299.7 531.3L303.1 531.3L306.4 531.3L309.8 531.2L313.1 531.3L316.5 531.3L319.8 531.2L323.2 531.2L326.5 531.2L329.9 531.2L333.2 531.1L336.6 531.1L339.9 531.1L343.3 531.1L346.6 531.1L350 531.1L353.3 531L356.7 531.1L360 531.1L363.4 531.1L366.7 531.1L370.1 531L373.4 531L376.8 531L380.1 531L383.5 531L386.8 531L390.2 531L393.5 530.9L396.9 530.9L400.2 530.9L403.6 530.9L406.9 530.8L410.3 530.7L413.6 530.6L417 530.6L420.3 530.6L423.7 530.7L427 530.6L430.4 530.6L433.7 530.5L437.1 530.5L440.4 530.3L443.8 530.3L447.1 530.2L450.5 530.2L453.8 530.3L457.2 530.9L460.5 530.6L463.9 531L467.2 531.2L470.6 531.2L473.9 531.1L477.3 530.7L480.6 530.5L484 530.9L487.3 530.9L490.7 530.8L494 530.8L497.4 530.7L500.7 530.5L504.1 530.5L507.4 530.4L510.8 530.4L514.1 530.4L517.5 530.5L520.8 530.3L524.2 530.4L527.5 530.4L530.9 530.4L534.2 530.3L537.6 530.4L540.9 530.3L544.3 530.2L547.6 530L551 529.9L554.3 529.8L557.7 529.6L561 529.4L564.4 529.3L567.7 529.2L571.1 528.9L574.4 528.1L577.8 527.7L581.1 527.6L584.5 527.6L587.8 527.4L591.2 527.2L594.5 527.2L597.9 526.9L601.2 526.6L604.6 526.6L607.9 526.5L611.3 526.2L614.6 526.2L618 525.3L621.3 524.5L624.7 523.6L628 523L631.4 522.8L634.7 522.7L638.1 521.5L641.4 520.4L644.8 521.8L648.1 520L651.5 520.4L654.8 519L658.2 519.3L661.5 518.1L664.9 518L668.2 517.8L671.6 517.9L674.9 516.3L678.3 517.1L681.6 515.8L685 514L688.3 511.9L691.7 511.3L695 512.3L698.4 512.4L701.7 510.4L705.1 510.4L708.4 509.7L711.8 508.3L715.1 506.1L718.5 507.8L721.8 507.4L725.2 503"></path><g id="polyline"><polyline id="polyline" points="279.70,531.30 283.00,531.30 286.30,531.30 289.70,531.30 293.00,531.30 296.40,531.30 299.70,531.30 303.10,531.30 306.40,531.30 309.80,531.20 313.10,531.30 316.50,531.30 319.80,531.20 323.20,531.20 326.50,531.20 329.90,531.20 333.20,531.10 336.60,531.10 339.90,531.10 343.30,531.10 346.60,531.10 350.00,531.10 353.30,531.00 356.70,531.10 360.00,531.10 363.40,531.10 366.70,531.10 370.10,531.00 373.40,531.00 376.80,531.00 380.10,531.00 383.50,531.00 386.80,531.00 390.20,531.00 393.50,530.90 396.90,530.90 400.20,530.90 403.60,530.90 406.90,530.80 410.30,530.70 413.60,530.60 417.00,530.60 420.30,530.60 423.70,530.70 427.00,530.60 430.40,530.60 433.70,530.50 437.10,530.50 440.40,530.30 443.80,530.30 447.10,530.20 450.50,530.20 453.80,530.30 457.20,530.90 460.50,530.60 463.90,531.00 467.20,531.20 470.60,531.20 473.90,531.10 477.30,530.70 480.60,530.50 484.00,530.90 487.30,530.90 490.70,530.80 494.00,530.80 497.40,530.70 500.70,530.50 504.10,530.50 507.40,530.40 510.80,530.40 514.10,530.40 517.50,530.50 520.80,530.30 524.20,530.40 527.50,530.40 530.90,530.40 534.20,530.30 537.60,530.40 540.90,530.30 544.30,530.20 547.60,530.00 551.00,529.90 554.30,529.80 557.70,529.60 561.00,529.40 564.40,529.30 567.70,529.20 571.10,528.90 574.40,528.10 577.80,527.70 581.10,527.60 584.50,527.60 587.80,527.40 591.20,527.20 594.50,527.20 597.90,526.90 601.20,526.60 604.60,526.60 607.90,526.50 611.30,526.20 614.60,526.20 618.00,525.30 621.30,524.50 624.70,523.60 628.00,523.00 631.40,522.80 634.70,522.70 638.10,521.50 641.40,520.40 644.80,521.80 648.10,520.00 651.50,520.40 654.80,519.00 658.20,519.30 661.50,518.10 664.90,518.00 668.20,517.80 671.60,517.90 674.90,516.30 678.30,517.10 681.60,515.80 685.00,514.00 688.30,511.90 691.70,511.30 695.00,512.30 698.40,512.40 701.70,510.40 705.10,510.40 708.40,509.70 711.80,508.30 715.10,506.10 718.50,507.80 721.80,507.40 725.20,503.00" stroke-linejoin="round" stroke-width="1.5" stroke="#286BBB" fill="none" stroke-linecap="butt"></polyline></g></g><g id="line__South-Africa"><path id="outline" fill="none" stroke-linecap="butt" stroke-linejoin="round" stroke="#fff" stroke-width="2.5" d="M262.9 531.3L266.3 531.3L269.6 531.3L273 531.3L276.3 531.3L279.7 531.3L283 531.3L286.3 531.3L289.7 531.3L293 531.2L296.4 531.2L299.7 531.2L303.1 531.1L306.4 531.1L309.8 531.1L313.1 531.1L316.5 531.2L319.8 531.1L323.2 531.1L326.5 531L329.9 531L333.2 530.9L336.6 530.9L339.9 530.8L343.3 530.8L346.6 530.7L350 530.6L353.3 530.7L356.7 530.6L360 530.6L363.4 530.6L366.7 530.6L370.1 530.5L373.4 530.4L376.8 530.4L380.1 530.4L383.5 530.3L386.8 530.3L390.2 530.5L393.5 530.3L396.9 530.2L400.2 530.2L403.6 530.1L406.9 530.2L410.3 530.2L413.6 530.1L417 530.2L420.3 530.3L423.7 530.4L427 530.3L430.4 530.2L433.7 530.1L437.1 529.9L440.4 529.9L443.8 529.8L447.1 529.7L450.5 529.7L453.8 529.6L457.2 529.4L460.5 529.4L463.9 529.2L467.2 529.1L470.6 529.1L473.9 529.1L477.3 529.1L480.6 529L484 528.9L487.3 528.8L490.7 528.6L494 528.5L497.4 528.4L500.7 528.1L504.1 527.9L507.4 527.8L510.8 527.6L514.1 527.6L517.5 527.5L520.8 527.3L524.2 527.2L527.5 527L530.9 526.7L534.2 526.3L537.6 526.3L540.9 526.1L544.3 525.9L547.6 525.7L551 525.5L554.3 524.8L557.7 524.6L561 524.6L564.4 524.5L567.7 524.1L571.1 523.8L574.4 523.6L577.8 523.5L581.1 522.8L584.5 522.4L587.8 521.3L591.2 520.4L594.5 520L597.9 519.1L601.2 518.7L604.6 518.5L607.9 518.6L611.3 518L614.6 518.1L618 519.2L621.3 518.7L624.7 519.6L628 518.9L631.4 518.2L634.7 517.3L638.1 517.2L641.4 516.4L644.8 516.7L648.1 516.8L651.5 516.6L654.8 516.9L658.2 517.5L661.5 515.6L664.9 513.9L668.2 515.2L671.6 514L674.9 513.3L678.3 512.1L681.6 512.7L685 513.3L688.3 513.2L691.7 513.5L695 513.5L698.4 513L701.7 514L705.1 513.6L708.4 514.3L711.8 514.4L715.1 513.2L718.5 514.4L721.8 514.8L725.2 515.6"></path><g id="polyline"><polyline id="polyline" points="262.90,531.30 266.30,531.30 269.60,531.30 273.00,531.30 276.30,531.30 279.70,531.30 283.00,531.30 286.30,531.30 289.70,531.30 293.00,531.20 296.40,531.20 299.70,531.20 303.10,531.10 306.40,531.10 309.80,531.10 313.10,531.10 316.50,531.20 319.80,531.10 323.20,531.10 326.50,531.00 329.90,531.00 333.20,530.90 336.60,530.90 339.90,530.80 343.30,530.80 346.60,530.70 350.00,530.60 353.30,530.70 356.70,530.60 360.00,530.60 363.40,530.60 366.70,530.60 370.10,530.50 373.40,530.40 376.80,530.40 380.10,530.40 383.50,530.30 386.80,530.30 390.20,530.50 393.50,530.30 396.90,530.20 400.20,530.20 403.60,530.10 406.90,530.20 410.30,530.20 413.60,530.10 417.00,530.20 420.30,530.30 423.70,530.40 427.00,530.30 430.40,530.20 433.70,530.10 437.10,529.90 440.40,529.90 443.80,529.80 447.10,529.70 450.50,529.70 453.80,529.60 457.20,529.40 460.50,529.40 463.90,529.20 467.20,529.10 470.60,529.10 473.90,529.10 477.30,529.10 480.60,529.00 484.00,528.90 487.30,528.80 490.70,528.60 494.00,528.50 497.40,528.40 500.70,528.10 504.10,527.90 507.40,527.80 510.80,527.60 514.10,527.60 517.50,527.50 520.80,527.30 524.20,527.20 527.50,527.00 530.90,526.70 534.20,526.30 537.60,526.30 540.90,526.10 544.30,525.90 547.60,525.70 551.00,525.50 554.30,524.80 557.70,524.60 561.00,524.60 564.40,524.50 567.70,524.10 571.10,523.80 574.40,523.60 577.80,523.50 581.10,522.80 584.50,522.40 587.80,521.30 591.20,520.40 594.50,520.00 597.90,519.10 601.20,518.70 604.60,518.50 607.90,518.60 611.30,518.00 614.60,518.10 618.00,519.20 621.30,518.70 624.70,519.60 628.00,518.90 631.40,518.20 634.70,517.30 638.10,517.20 641.40,516.40 644.80,516.70 648.10,516.80 651.50,516.60 654.80,516.90 658.20,517.50 661.50,515.60 664.90,513.90 668.20,515.20 671.60,514.00 674.90,513.30 678.30,512.10 681.60,512.70 685.00,513.30 688.30,513.20 691.70,513.50 695.00,513.50 698.40,513.00 701.70,514.00 705.10,513.60 708.40,514.30 711.80,514.40 715.10,513.20 718.50,514.40 721.80,514.80 725.20,515.60" stroke-linejoin="round" stroke-width="1.5" stroke="#996D39" fill="none" stroke-linecap="butt"></polyline></g></g><g id="line__India"><path id="outline" fill="none" stroke-linecap="butt" stroke-linejoin="round" stroke="#fff" stroke-width="2.5" d="M175.8 531.3L179.2 531.3L182.5 531.3L185.9 531.3L189.2 531.3L192.6 531.3L195.9 531.3L199.3 531.3L202.6 531.3L242.8 531.2L246.2 531.2L249.5 531.2L252.9 531.2L256.2 531.2L259.6 531.2L262.9 531.2L266.3 531.2L269.6 531.2L273 531.2L276.3 531.2L279.7 531.1L283 531.1L286.3 531.1L289.7 531.1L293 531.1L296.4 531.1L299.7 531L303.1 531L306.4 531L309.8 530.9L313.1 530.9L316.5 530.8L319.8 530.8L323.2 530.7L326.5 530.7L329.9 530.7L333.2 530.6L336.6 530.5L339.9 530.5L343.3 530.3L346.6 530.4L350 530.4L353.3 530.3L356.7 530.2L360 530.1L363.4 530.1L366.7 530L370.1 530L373.4 529.9L376.8 529.8L380.1 529.6L383.5 529.9L386.8 529.8L390.2 529.9L393.5 529.8L396.9 529.7L400.2 529.7L403.6 529.8L406.9 529.7L410.3 529.7L413.6 529.7L417 529.7L420.3 529.8L423.7 529.9L427 529.9L430.4 529.8L433.7 529.7L437.1 529.7L440.4 529.6L443.8 529.3L447.1 529.4L450.5 529.3L453.8 529.2L457.2 529.2L460.5 529.5L463.9 529.5L467.2 529.2L470.6 529.3L473.9 529.2L477.3 529.2L480.6 529.1L484 528.9L487.3 528.8L490.7 528.7L494 528.6L497.4 528.5L500.7 528.2L504.1 528.1L507.4 527.7L510.8 527.6L514.1 527.4L517.5 527L520.8 526.6L524.2 526.2L527.5 525.8L530.9 525.9L534.2 525.3L537.6 525.1L540.9 525.1L544.3 524.5L547.6 524.4L551 524.3L554.3 523.9L557.7 523.4L561 523.2L564.4 522.9L567.7 522.2L571.1 521.8L574.4 521.3L577.8 521.1L581.1 520.6L584.5 520L587.8 519.1L591.2 518.7L594.5 517.6L597.9 517.3L601.2 515.9L604.6 514.8L607.9 513.6L611.3 512.2L614.6 510.3L618 508.9L621.3 507.4L624.7 505.9L628 505L631.4 503.6L634.7 501.8L638.1 499.4L641.4 498L644.8 497.3L648.1 494.4L651.5 493.4L654.8 492.9L658.2 491.7L661.5 490.2L664.9 487.7L668.2 485.3L671.6 481.2L674.9 477.3L678.3 473.5L681.6 468.8L685 466.2L688.3 462.9L691.7 456.6L695 453.9L698.4 448L701.7 444.6L705.1 440L708.4 437.2L711.8 430.7L715.1 430L718.5 437.4L721.8 427.6L725.2 421.5"></path><g id="polyline"><polyline id="polyline" points="175.80,531.30 179.20,531.30 182.50,531.30 185.90,531.30 189.20,531.30 192.60,531.30 195.90,531.30 199.30,531.30 202.60,531.30 242.80,531.20 246.20,531.20 249.50,531.20 252.90,531.20 256.20,531.20 259.60,531.20 262.90,531.20 266.30,531.20 269.60,531.20 273.00,531.20 276.30,531.20 279.70,531.10 283.00,531.10 286.30,531.10 289.70,531.10 293.00,531.10 296.40,531.10 299.70,531.00 303.10,531.00 306.40,531.00 309.80,530.90 313.10,530.90 316.50,530.80 319.80,530.80 323.20,530.70 326.50,530.70 329.90,530.70 333.20,530.60 336.60,530.50 339.90,530.50 343.30,530.30 346.60,530.40 350.00,530.40 353.30,530.30 356.70,530.20 360.00,530.10 363.40,530.10 366.70,530.00 370.10,530.00 373.40,529.90 376.80,529.80 380.10,529.60 383.50,529.90 386.80,529.80 390.20,529.90 393.50,529.80 396.90,529.70 400.20,529.70 403.60,529.80 406.90,529.70 410.30,529.70 413.60,529.70 417.00,529.70 420.30,529.80 423.70,529.90 427.00,529.90 430.40,529.80 433.70,529.70 437.10,529.70 440.40,529.60 443.80,529.30 447.10,529.40 450.50,529.30 453.80,529.20 457.20,529.20 460.50,529.50 463.90,529.50 467.20,529.20 470.60,529.30 473.90,529.20 477.30,529.20 480.60,529.10 484.00,528.90 487.30,528.80 490.70,528.70 494.00,528.60 497.40,528.50 500.70,528.20 504.10,528.10 507.40,527.70 510.80,527.60 514.10,527.40 517.50,527.00 520.80,526.60 524.20,526.20 527.50,525.80 530.90,525.90 534.20,525.30 537.60,525.10 540.90,525.10 544.30,524.50 547.60,524.40 551.00,524.30 554.30,523.90 557.70,523.40 561.00,523.20 564.40,522.90 567.70,522.20 571.10,521.80 574.40,521.30 577.80,521.10 581.10,520.60 584.50,520.00 587.80,519.10 591.20,518.70 594.50,517.60 597.90,517.30 601.20,515.90 604.60,514.80 607.90,513.60 611.30,512.20 614.60,510.30 618.00,508.90 621.30,507.40 624.70,505.90 628.00,505.00 631.40,503.60 634.70,501.80 638.10,499.40 641.40,498.00 644.80,497.30 648.10,494.40 651.50,493.40 654.80,492.90 658.20,491.70 661.50,490.20 664.90,487.70 668.20,485.30 671.60,481.20 674.90,477.30 678.30,473.50 681.60,468.80 685.00,466.20 688.30,462.90 691.70,456.60 695.00,453.90 698.40,448.00 701.70,444.60 705.10,440.00 708.40,437.20 711.80,430.70 715.10,430.00 718.50,437.40 721.80,427.60 725.20,421.50" stroke-linejoin="round" stroke-width="1.5" stroke="#6D3E91" fill="none" stroke-linecap="butt"></polyline></g></g><g id="line__Russia"><path id="outline" fill="none" stroke-linecap="butt" stroke-linejoin="round" stroke="#fff" stroke-width="2.5" d="M82 531.3L85.4 531.3L88.7 531.3L92.1 531.3L149 531.3L165.8 531.3L175.8 531.3L179.2 531.3L182.5 531.3L185.9 531.3L189.2 531.3L192.6 531.3L195.9 531.3L199.3 531.3L202.6 531.2L206 531.2L209.3 531.2L212.7 531.2L216 531.2L219.4 531.2L222.7 531.2L226.1 531.2L229.4 531.2L232.8 531.1L236.1 531.1L239.5 531.1L242.8 531L246.2 531L249.5 531L252.9 530.9L256.2 530.9L259.6 530.9L262.9 530.9L266.3 530.8L269.6 530.8L273 530.8L276.3 530.8L279.7 530.7L283 530.7L286.3 530.6L289.7 530.6L293 530.4L296.4 530.4L299.7 530.3L303.1 530.3L306.4 530.1L309.8 529.9L313.1 529.7L316.5 529.5L319.8 529.5L323.2 529.5L326.5 529.6L329.9 529.4L333.2 529.6L336.6 529.3L339.9 529.1L343.3 529.1L346.6 529L350 529L353.3 528.9L356.7 528.6L360 528.4L363.4 528.7L366.7 528.9L370.1 528.7L373.4 528.9L376.8 530.4L380.1 530.5L383.5 530.6L386.8 530.5L390.2 530.3L393.5 530.2L396.9 530L400.2 530L403.6 529.5L406.9 529L410.3 528.8L413.6 528.6L417 527.6L420.3 526.8L423.7 526.3L427 525.7L430.4 524.5L433.7 523.6L437.1 522.5L440.4 522.3L443.8 521.8L447.1 521.7L450.5 519.8L453.8 521.2L457.2 525.8L460.5 525.6L463.9 523L467.2 522.5L470.6 521.4L473.9 519.4L477.3 518.6L480.6 516.9L484 515.2L487.3 513.9L490.7 512.6L494 511.5L497.4 509.7L500.7 506.8L504.1 504.5L507.4 501.9L510.8 500L514.1 498.3L517.5 497L520.8 495.9L524.2 494.2L527.5 491.5L530.9 488.9L534.2 486.4L537.6 483.8L540.9 481.7L544.3 480.3L547.6 478.2L551 475.4L554.3 472L557.7 468.9L561 466.3L564.4 463.8L567.7 460.4L571.1 457.6L574.4 455.1L577.8 452.5L581.1 451.8L584.5 448.7L587.8 450.3L591.2 448.8L594.5 447.6L597.9 446.8L601.2 440.2L604.6 440.2L607.9 439.8L611.3 436.8L614.6 438L618 432.9L621.3 437.9L624.7 455L628 458.9L631.4 467.4L634.7 468.5L638.1 469.8L641.4 473.8L644.8 474.5L648.1 473.3L651.5 473.9L654.8 472.5L658.2 472.9L661.5 471.7L664.9 471.4L668.2 470.7L671.6 468.3L674.9 468.3L678.3 467.2L681.6 471.4L685 468L688.3 465.9L691.7 465.3L695 467.7L698.4 467.7L701.7 467.7L705.1 467.9L708.4 466.7L711.8 464.9L715.1 465.2L718.5 468L721.8 464.9L725.2 467.2"></path><g id="polyline"><polyline id="polyline" points="82.00,531.30 85.40,531.30 88.70,531.30 92.10,531.30 149.00,531.30 165.80,531.30 175.80,531.30 179.20,531.30 182.50,531.30 185.90,531.30 189.20,531.30 192.60,531.30 195.90,531.30 199.30,531.30 202.60,531.20 206.00,531.20 209.30,531.20 212.70,531.20 216.00,531.20 219.40,531.20 222.70,531.20 226.10,531.20 229.40,531.20 232.80,531.10 236.10,531.10 239.50,531.10 242.80,531.00 246.20,531.00 249.50,531.00 252.90,530.90 256.20,530.90 259.60,530.90 262.90,530.90 266.30,530.80 269.60,530.80 273.00,530.80 276.30,530.80 279.70,530.70 283.00,530.70 286.30,530.60 289.70,530.60 293.00,530.40 296.40,530.40 299.70,530.30 303.10,530.30 306.40,530.10 309.80,529.90 313.10,529.70 316.50,529.50 319.80,529.50 323.20,529.50 326.50,529.60 329.90,529.40 333.20,529.60 336.60,529.30 339.90,529.10 343.30,529.10 346.60,529.00 350.00,529.00 353.30,528.90 356.70,528.60 360.00,528.40 363.40,528.70 366.70,528.90 370.10,528.70 373.40,528.90 376.80,530.40 380.10,530.50 383.50,530.60 386.80,530.50 390.20,530.30 393.50,530.20 396.90,530.00 400.20,530.00 403.60,529.50 406.90,529.00 410.30,528.80 413.60,528.60 417.00,527.60 420.30,526.80 423.70,526.30 427.00,525.70 430.40,524.50 433.70,523.60 437.10,522.50 440.40,522.30 443.80,521.80 447.10,521.70 450.50,519.80 453.80,521.20 457.20,525.80 460.50,525.60 463.90,523.00 467.20,522.50 470.60,521.40 473.90,519.40 477.30,518.60 480.60,516.90 484.00,515.20 487.30,513.90 490.70,512.60 494.00,511.50 497.40,509.70 500.70,506.80 504.10,504.50 507.40,501.90 510.80,500.00 514.10,498.30 517.50,497.00 520.80,495.90 524.20,494.20 527.50,491.50 530.90,488.90 534.20,486.40 537.60,483.80 540.90,481.70 544.30,480.30 547.60,478.20 551.00,475.40 554.30,472.00 557.70,468.90 561.00,466.30 564.40,463.80 567.70,460.40 571.10,457.60 574.40,455.10 577.80,452.50 581.10,451.80 584.50,448.70 587.80,450.30 591.20,448.80 594.50,447.60 597.90,446.80 601.20,440.20 604.60,440.20 607.90,439.80 611.30,436.80 614.60,438.00 618.00,432.90 621.30,437.90 624.70,455.00 628.00,458.90 631.40,467.40 634.70,468.50 638.10,469.80 641.40,473.80 644.80,474.50 648.10,473.30 651.50,473.90 654.80,472.50 658.20,472.90 661.50,471.70 664.90,471.40 668.20,470.70 671.60,468.30 674.90,468.30 678.30,467.20 681.60,471.40 685.00,468.00 688.30,465.90 691.70,465.30 695.00,467.70 698.40,467.70 701.70,467.70 705.10,467.90 708.40,466.70 711.80,464.90 715.10,465.20 718.50,468.00 721.80,464.90 725.20,467.20" stroke-linejoin="round" stroke-width="1.5" stroke="#883039" fill="none" stroke-linecap="butt"></polyline></g></g></g></g></g></g><g id="footer" class="SourcesFooter" style="fill:#5b5b5b"><g id="sources" class="markdown-text-wrap"><text x="16.0" y="580.9" style="font-size:13.5px;line-height:1.2"><tspan x="16" y="580.9"><tspan style="font-weight:700">Data source:</tspan> Global Carbon Budget (2023)</tspan></text></g><text id="origin-url" font-size="13.50" x="440.7" y="580.9"><tspan x="440.74499999999995" y="580.895"><a target="_blank" style="fill: #5b5b5b;" href="https://ourworldindata.org/co2-and-greenhouse-gas-emissions">OurWorldInData.org/co2-and-greenhouse-gas-emissions</a> | <a target="_blank" style="fill: #5b5b5b;" href="https://creativecommons.org/licenses/by/4.0/">CC BY</a></tspan></text></g><line id="separator-line" x1="16" y1="600" x2="834" y2="600" stroke="#e7e7e7"></line><g id="details" transform="translate(15, 616)"><g class="markdown-text-wrap"><text x="0.0" y="12.0" style="font-size:12.375px;fill:#5b5b5b;line-height:1.2"><tspan x="0" y="12.0"><tspan style="font-weight:700">1.</tspan> <tspan style="font-weight:700">Fossil emissions</tspan>: Fossil emissions measure the quantity of carbon dioxide (CO₂) emitted from the burning of fossil fuels, and directly from</tspan><tspan x="0" y="26.9">industrial processes such as cement and steel production. Fossil CO₂ includes emissions from coal, oil, gas, flaring, cement, steel, and other</tspan><tspan x="0" y="41.7">industrial processes. Fossil emissions do not include land use change, deforestation, soils, or vegetation.</tspan></text></g></g></svg>