<svg xmlns="http://www.w3.org/2000/svg" version="1.1" style="font-family:Lato, &#x27;Helvetica Neue&#x27;, Helvetica, Arial, &#x27;Liberation Sans&#x27;, sans-serif;font-size:18px;background-color:white;text-rendering:geometricPrecision;-webkit-font-smoothing:antialiased" width="850" height="676.55" viewBox="0 0 850 676.55"><defs><style>@import url(https://ourworldindata.org/fonts.css)</style></defs><defs><pattern id="noDataPattern" patternUnits="userSpaceOnUse" width="4" height="4" patternTransform="rotate(-45 2 2)"><path d="M -1,2 l 6,0" stroke="#ccc" stroke-width="0.7"></path></pattern></defs><rect class="background-fill" fill="white" width="850" height="676.55"></rect><g id="header" class="HeaderView"><g id="logo" transform="translate(769, 16) scale(1)"><svg className="owidLogo" xmlns="http://www.w3.org/2000/svg" width="65" height="36" viewBox="0 0 65 36"  fill="none"><path fill="#002147" d="M0 0h64.8v36H0z"/><path fill="#CE261E" d="M0 33.3h64.8V36H0z"/><path fill="#fff" d="M13.796 10.575c0 .636-.106 1.226-.318 1.77a4.193 4.193 0 0 1-.894 1.404 4.084 4.084 0 0 1-1.386.93c-.54.22-1.138.33-1.794.33-.656 0-1.256-.11-1.8-.33a4.149 4.149 0 0 1-1.392-.93 4.193 4.193 0 0 1-.894-1.404A4.833 4.833 0 0 1 5 10.575c0-.636.106-1.224.318-1.764a4.18 4.18 0 0 1 .894-1.41 4.076 4.076 0 0 1 1.392-.924 4.684 4.684 0 0 1 1.8-.336c.656 0 1.254.112 1.794.336.54.224 1.002.534 1.386.93.384.392.682.86.894 1.404.212.54.318 1.128.318 1.764Zm-1.656 0c0-.476-.064-.902-.192-1.278a2.671 2.671 0 0 0-.54-.966 2.332 2.332 0 0 0-.864-.606 2.94 2.94 0 0 0-1.14-.21c-.424 0-.806.07-1.146.21-.34.14-.63.342-.87.606a2.742 2.742 0 0 0-.546.966 3.955 3.955 0 0 0-.192 1.278c0 .476.064.904.192 1.284.128.376.31.696.546.96.24.26.53.46.87.6.34.14.722.21 1.146.21.424 0 .804-.07 1.14-.21.34-.14.628-.34.864-.6.236-.264.416-.584.54-.96a4.01 4.01 0 0 0 .192-1.284ZM16.104 8.757v3.912c0 .376.086.668.258.876.176.204.438.306.786.306.256 0 .496-.056.72-.168a2.58 2.58 0 0 0 .636-.474V8.757h1.482v6.156h-.906c-.192 0-.318-.09-.378-.27l-.102-.492a4.65 4.65 0 0 1-.396.354 2.577 2.577 0 0 1-.438.27 2.35 2.35 0 0 1-.498.168 2.345 2.345 0 0 1-.57.066c-.336 0-.634-.056-.894-.168a1.821 1.821 0 0 1-.648-.486 2.157 2.157 0 0 1-.402-.738 3.233 3.233 0 0 1-.132-.948V8.757h1.482ZM21.328 14.913V8.757h.87c.152 0 .258.028.318.084.06.056.1.152.12.288l.09.744c.22-.38.478-.68.774-.9.296-.22.628-.33.996-.33.304 0 .556.07.756.21l-.192 1.11c-.012.072-.038.124-.078.156a.278.278 0 0 1-.162.042 1.01 1.01 0 0 1-.246-.042 1.646 1.646 0 0 0-.414-.042c-.308 0-.572.086-.792.258-.22.168-.406.416-.558.744v3.834h-1.482ZM27.347 6.237h1.356a.57.57 0 0 1 .348.102c.096.064.16.152.192.264l1.476 5.19c.036.128.068.268.096.42.032.148.062.306.09.474a5.968 5.968 0 0 1 .228-.894l1.704-5.19a.575.575 0 0 1 .186-.252.543.543 0 0 1 .348-.114h.474a.57.57 0 0 1 .348.102.497.497 0 0 1 .192.264l1.692 5.19c.088.256.164.54.228.852.028-.156.056-.306.084-.45.032-.144.064-.278.096-.402l1.476-5.19c.028-.1.09-.186.186-.258a.563.563 0 0 1 .348-.108h1.266l-2.694 8.676h-1.458l-1.896-5.928-.078-.246a9.504 9.504 0 0 1-.072-.282c-.024.1-.05.194-.078.282-.024.088-.048.17-.072.246l-1.914 5.928H30.04l-2.694-8.676ZM42.771 8.661c.46 0 .876.074 1.248.222.376.148.696.358.96.63s.468.604.612.996c.144.392.216.83.216 1.314 0 .488-.072.928-.216 1.32a2.85 2.85 0 0 1-.612 1.002 2.653 2.653 0 0 1-.96.636 3.35 3.35 0 0 1-1.248.222c-.46 0-.878-.074-1.254-.222a2.712 2.712 0 0 1-.966-.636 2.922 2.922 0 0 1-.618-1.002 3.807 3.807 0 0 1-.216-1.32c0-.484.072-.922.216-1.314.148-.392.354-.724.618-.996.268-.272.59-.482.966-.63a3.397 3.397 0 0 1 1.254-.222Zm0 5.202c.512 0 .89-.172 1.134-.516.248-.344.372-.848.372-1.512s-.124-1.17-.372-1.518c-.244-.348-.622-.522-1.134-.522-.52 0-.904.176-1.152.528-.248.348-.372.852-.372 1.512s.124 1.164.372 1.512c.248.344.632.516 1.152.516ZM46.723 14.913V8.757h.87c.152 0 .258.028.318.084.06.056.1.152.12.288l.09.744c.22-.38.478-.68.774-.9.296-.22.628-.33.996-.33.304 0 .556.07.756.21l-.192 1.11c-.012.072-.038.124-.078.156a.278.278 0 0 1-.162.042 1.01 1.01 0 0 1-.246-.042 1.646 1.646 0 0 0-.414-.042c-.308 0-.572.086-.792.258-.22.168-.406.416-.558.744v3.834h-1.482ZM52.96 5.997v8.916h-1.482V5.997h1.482ZM58.732 14.913c-.192 0-.318-.09-.378-.27l-.12-.594a3.68 3.68 0 0 1-.402.39c-.14.116-.292.216-.456.3-.16.084-.334.148-.522.192a2.372 2.372 0 0 1-.6.072c-.336 0-.644-.07-.924-.21a2.098 2.098 0 0 1-.726-.606 3.033 3.033 0 0 1-.468-.99 5.072 5.072 0 0 1-.162-1.344c0-.456.062-.88.186-1.272s.302-.732.534-1.02c.232-.288.51-.512.834-.672a2.384 2.384 0 0 1 1.092-.246 2.103 2.103 0 0 1 1.536.606V5.997h1.482v8.916h-.906Zm-1.974-1.086c.308 0 .57-.064.786-.192.216-.128.42-.31.612-.546v-2.76a1.452 1.452 0 0 0-.552-.432 1.597 1.597 0 0 0-.636-.126c-.224 0-.428.042-.612.126a1.21 1.21 0 0 0-.462.384c-.124.168-.22.384-.288.648-.068.26-.102.568-.102.924 0 .36.028.666.084.918.06.248.144.452.252.612.108.156.24.27.396.342.156.068.33.102.522.102ZM16.331 20.757v6.156H14.85v-6.156h1.481Zm.223-1.794a.844.844 0 0 1-.078.36.963.963 0 0 1-.21.294.995.995 0 0 1-.3.204.963.963 0 0 1-.372.072.948.948 0 0 1-.367-.072 1.018 1.018 0 0 1-.498-.498.963.963 0 0 1 0-.732.995.995 0 0 1 .205-.3.929.929 0 0 1 .293-.198.899.899 0 0 1 .738 0 .912.912 0 0 1 .3.198.943.943 0 0 1 .288.672ZM17.771 26.913v-6.156h.906c.192 0 .318.09.378.27l.102.486a2.934 2.934 0 0 1 .828-.618c.156-.076.322-.134.498-.174.176-.04.368-.06.576-.06.336 0 .634.058.894.174.26.112.476.272.648.48.176.204.308.45.396.738.092.284.138.598.138.942v3.918h-1.482v-3.918c0-.376-.088-.666-.264-.87-.172-.208-.432-.312-.78-.312-.256 0-.496.058-.72.174a2.58 2.58 0 0 0-.636.474v4.452h-1.482ZM34.22 22.575c0 .636-.106 1.22-.318 1.752-.212.532-.51.99-.894 1.374a4 4 0 0 1-1.386.894 4.87 4.87 0 0 1-1.794.318h-3.312v-8.676h3.312a4.79 4.79 0 0 1 1.794.324 4 4 0 0 1 1.386.894c.384.38.682.836.894 1.368.212.532.318 1.116.318 1.752Zm-1.65 0c0-.476-.064-.902-.192-1.278a2.68 2.68 0 0 0-.546-.96 2.332 2.332 0 0 0-.864-.606 2.94 2.94 0 0 0-1.14-.21h-1.686v6.108h1.686c.424 0 .804-.07 1.14-.21.34-.14.628-.34.864-.6a2.75 2.75 0 0 0 .546-.96 4.01 4.01 0 0 0 .192-1.284ZM39.98 26.913h-.665c-.14 0-.25-.02-.33-.06-.08-.044-.14-.13-.18-.258l-.132-.438c-.156.14-.31.264-.462.372a2.804 2.804 0 0 1-.462.264c-.16.072-.33.126-.51.162-.18.036-.38.054-.6.054-.26 0-.5-.034-.72-.102a1.618 1.618 0 0 1-.57-.318 1.448 1.448 0 0 1-.366-.522 1.852 1.852 0 0 1-.132-.726c0-.232.06-.46.18-.684.124-.228.328-.432.612-.612.284-.184.662-.336 1.134-.456.472-.12 1.058-.188 1.758-.204v-.36c0-.412-.088-.716-.264-.912-.172-.2-.424-.3-.756-.3a1.837 1.837 0 0 0-1.02.276c-.116.068-.224.13-.324.186a.664.664 0 0 1-.33.084.429.429 0 0 1-.258-.078.614.614 0 0 1-.174-.192l-.27-.474c.708-.648 1.562-.972 2.562-.972.36 0 .68.06.96.18.284.116.524.28.72.492.196.208.344.458.444.75.104.292.156.612.156.96v3.888Zm-2.88-.924c.153 0 .293-.014.42-.042.129-.028.249-.07.36-.126.117-.056.227-.124.33-.204.109-.084.217-.182.325-.294v-1.038c-.432.02-.794.058-1.086.114-.288.052-.52.12-.696.204a.923.923 0 0 0-.378.294.664.664 0 0 0-.108.366c0 .26.076.446.228.558.156.112.358.168.606.168ZM43.22 27.01c-.532 0-.942-.15-1.23-.45-.288-.305-.432-.723-.432-1.255v-3.438h-.624a.31.31 0 0 1-.21-.078c-.056-.052-.084-.13-.084-.234v-.588l.99-.162.312-1.68a.302.302 0 0 1 .108-.186.365.365 0 0 1 .222-.066h.768v1.938h1.62v1.056h-1.62v3.336c0 .192.048.342.144.45a.488.488 0 0 0 .384.162c.092 0 .168-.01.228-.03.064-.024.118-.048.162-.072.048-.024.09-.046.126-.066a.194.194 0 0 1 .108-.036.16.16 0 0 1 .108.036c.028.02.058.052.09.096l.444.72c-.216.18-.464.316-.744.408a2.77 2.77 0 0 1-.87.138ZM50.423 26.913h-.666c-.14 0-.25-.02-.33-.06-.08-.044-.14-.13-.18-.258l-.132-.438c-.156.14-.31.264-.462.372a2.804 2.804 0 0 1-.462.264c-.16.072-.33.126-.51.162-.18.036-.38.054-.6.054-.26 0-.5-.034-.72-.102a1.618 1.618 0 0 1-.57-.318 1.448 1.448 0 0 1-.366-.522 1.852 1.852 0 0 1-.132-.726c0-.232.06-.46.18-.684.124-.228.328-.432.612-.612.284-.184.662-.336 1.134-.456.472-.12 1.058-.188 1.758-.204v-.36c0-.412-.088-.716-.264-.912-.172-.2-.424-.3-.756-.3a1.837 1.837 0 0 0-1.02.276c-.116.068-.224.13-.324.186a.664.664 0 0 1-.33.084.429.429 0 0 1-.258-.078.614.614 0 0 1-.174-.192l-.27-.474c.708-.648 1.562-.972 2.562-.972.36 0 .68.06.96.18.284.116.524.28.72.492.196.208.344.458.444.75.104.292.156.612.156.96v3.888Zm-2.88-.924c.152 0 .292-.014.42-.042.128-.028.248-.07.36-.126.116-.056.226-.124.33-.204.108-.084.216-.182.324-.294v-1.038c-.432.02-.794.058-1.086.114-.288.052-.52.12-.696.204a.923.923 0 0 0-.378.294.664.664 0 0 0-.108.366c0 .26.076.446.228.558.156.112.358.168.606.168Z"/></svg></g><a id="title" href="https://ourworldindata.org/grapher/annual-co2-emissions-per-country?country=~USA" style="font-family:&#x27;Playfair Display&#x27;, Georgia, &#x27;Times New Roman&#x27;, &#x27;Liberation Serif&#x27;, serif" target="_blank" rel="noopener"><text font-size="24.75" font-weight="600" x="16.0" y="40.0" fill="#5b5b5b"><tspan x="16" y="40.0075">Annual CO₂ emissions</tspan></text></a><g id="subtitle" class="markdown-text-wrap"><text x="16.0" y="63.9" style="font-size:14.625px;line-height:1.2" fill="#5b5b5b"><tspan x="16" y="63.9">Carbon dioxide (CO₂) emissions from <tspan class="dod-span" data-id="fossilemissions">fossil fuels and industry<tspan style="font-feature-settings:&quot;sups&quot;">¹</tspan></tspan>. Land-use change is not included.</tspan></text></g></g><g id="chart-area" style="pointer-events:none"><g id="line-chart" class="LineChart"><defs><clipPath id="boundsClip-2"><rect x="64.46000000000001" y="73.25" width="838" height="488.55"></rect></clipPath></defs><rect x="16" y="83.25" width="818" height="468.55" fill="none"></rect><g id="dual-axis" class="DualAxisView"><g id="horizontal-axis" class="HorizontalAxis"><g id="tick__1800"><line x1="74.5" y1="530.8" x2="74.5" y2="536.3" stroke="#999" stroke-width="1"></line><text x="74.46000000000001" y="549.8" fill="#5b5b5b" text-anchor="start" font-size="13.5">1800</text></g><g id="tick__2022"><line x1="717.6" y1="530.8" x2="717.6" y2="536.3" stroke="#999" stroke-width="1"></line><text x="717.595" y="549.8" fill="#5b5b5b" text-anchor="end" font-size="13.5">2022</text></g><g id="tick__1850"><line x1="219.3" y1="530.8" x2="219.3" y2="536.3" stroke="#999" stroke-width="1"></line><text x="219.3" y="549.8" fill="#5b5b5b" text-anchor="middle" font-size="13.5">1850</text></g><g id="tick__1900"><line x1="364.2" y1="530.8" x2="364.2" y2="536.3" stroke="#999" stroke-width="1"></line><text x="364.2" y="549.8" fill="#5b5b5b" text-anchor="middle" font-size="13.5">1900</text></g><g id="tick__1950"><line x1="509" y1="530.8" x2="509" y2="536.3" stroke="#999" stroke-width="1"></line><text x="509" y="549.8" fill="#5b5b5b" text-anchor="middle" font-size="13.5">1950</text></g><g id="tick__2000"><line x1="653.9" y1="530.8" x2="653.9" y2="536.3" stroke="#999" stroke-width="1"></line><text x="653.9" y="549.8" fill="#5b5b5b" text-anchor="middle" font-size="13.5">2000</text></g></g><g id="vertical-axis" class="VerticalAxis"><g id="tick-labels"><text id="tick-label__0-t" x="69.46" y="531.3" dy=".32em" text-anchor="end" fill="#5b5b5b" font-size="13.5">0 t</text><text id="tick-label__1-billion-t" x="69.46" y="459.2" dy=".32em" text-anchor="end" fill="#5b5b5b" font-size="13.5">1 billion t</text><text id="tick-label__2-billion-t" x="69.46" y="387.1" dy=".32em" text-anchor="end" fill="#5b5b5b" font-size="13.5">2 billion t</text><text id="tick-label__3-billion-t" x="69.46" y="315" dy=".32em" text-anchor="end" fill="#5b5b5b" font-size="13.5">3 billion t</text><text id="tick-label__4-billion-t" x="69.46" y="243" dy=".32em" text-anchor="end" fill="#5b5b5b" font-size="13.5">4 billion t</text><text id="tick-label__5-billion-t" x="69.46" y="170.9" dy=".32em" text-anchor="end" fill="#5b5b5b" font-size="13.5">5 billion t</text><text id="tick-label__6-billion-t" x="69.46" y="98.8" dy=".32em" text-anchor="end" fill="#5b5b5b" font-size="13.5">6 billion t</text></g></g><g id="horizontal-grid-lines" class="AxisGridLines horizontalLines"><line id="grid-line__0" x1="74.46" y1="531.3" x2="717.60" y2="531.3" stroke="#999" stroke-width="1"></line><line id="grid-line__1000000000" x1="74.46" y1="459.2" x2="717.60" y2="459.2" stroke="#ddd" stroke-width="1" stroke-dasharray="3,2"></line><line id="grid-line__2000000000" x1="74.46" y1="387.1" x2="717.60" y2="387.1" stroke="#ddd" stroke-width="1" stroke-dasharray="3,2"></line><line id="grid-line__3000000000" x1="74.46" y1="315" x2="717.60" y2="315" stroke="#ddd" stroke-width="1" stroke-dasharray="3,2"></line><line id="grid-line__4000000000" x1="74.46" y1="243" x2="717.60" y2="243" stroke="#ddd" stroke-width="1" stroke-dasharray="3,2"></line><line id="grid-line__5000000000" x1="74.46" y1="170.9" x2="717.60" y2="170.9" stroke="#ddd" stroke-width="1" stroke-dasharray="3,2"></line><line id="grid-line__6000000000" x1="74.46" y1="98.8" x2="717.60" y2="98.8" stroke="#ddd" stroke-width="1" stroke-dasharray="3,2"></line></g></g><g clip-path="url(#boundsClip-2)"><g id="line-labels" class="LineLabels"><g id="mark__United-States" class="legendMark" style="cursor:default"><rect id="background" x="717.595" y="159.95" width="116.405" height="13.5" fill="#fff" opacity="0"></rect><text id="label" font-size="13.50" font-weight="400" x="721.6" y="171.7" fill="#c15065"><tspan x="721.595" y="171.695">United States</tspan></text></g></g><g id="lines" class="Lines"><rect x="74" y="89" width="643" height="442" fill="rgba(255,255,255,0)" opacity="0"></rect><g id="line__United-States"><path stroke-linecap="round" stroke-linejoin="round" stroke="#ddd" d="M74.5 531.3L77.4 531.3L80.3 531.3L83.2 531.3L86 531.3L88.9 531.3L91.8 531.3L94.7 531.3L97.6 531.3L100.5 531.3L103.4 531.3L106.3 531.3L109.2 531.3L112.1 531.3L115 531.3L117.9 531.3L120.8 531.3L123.7 531.2L126.6 531.2L129.5 531.2L132.4 531.2L135.3 531.2L138.2 531.2L141.1 531.2L144 531.2L146.9 531.2L149.8 531.2L152.7 531.2L155.6 531.2L158.5 531.2L161.4 531.1L164.3 531.1L167.2 531.1L170.1 531L173 531.1L175.9 531L178.8 531L181.6 530.9L184.5 530.9L187.4 530.9L190.3 530.9L193.2 530.9L196.1 530.8L199 530.7L201.9 530.6L204.8 530.5L207.7 530.4L210.6 530.2L213.5 530.1L216.4 530L219.3 529.9L222.2 529.5L225.1 529.4L228 529.1L230.9 528.9L233.8 528.5L236.7 528.4L239.6 528.3L242.5 528.3L245.4 528L248.3 527.9L251.2 528L254.1 527.9L257 527.3L259.9 527.1L262.8 527.1L265.7 527L268.6 526L271.5 525.4L274.4 524.5L277.3 524.2L280.1 523.9L283 522.2L285.9 521.2L288.8 521.6L291.7 521.5L294.6 521.7L297.5 520.7L300.4 520.9L303.3 518.7L306.2 517L309.1 516.1L312 514.3L314.9 513L317.8 512L320.7 511.7L323.6 510.6L326.5 509.1L329.4 504.3L332.3 507.1L335.2 502.3L338.1 500.5L341 498.8L343.9 498.6L346.8 500.7L349.7 496.7L352.6 496.6L355.5 495.2L358.4 492L361.3 486.2L364.2 483.5L367.1 479.3L370 476.2L372.9 466.8L375.7 467.7L378.6 460.2L381.5 456.7L384.4 444.5L387.3 455.4L390.2 447.3L393.1 439.6L396 440.6L398.9 434.4L401.8 427.3L404.7 436.3L407.6 432.7L410.5 421.8L413.4 410.8L416.3 405.3L419.2 424.7L422.1 406L425 428.7L427.9 427.8L430.8 394.6L433.7 408.9L436.6 404.6L439.5 393.9L442.4 397L445.3 399.3L448.2 389.8L451.1 405.5L454 424.3L456.9 440.6L459.8 434.1L462.7 427.8L465.6 423.7L468.5 407.8L471.3 402.1L474.2 422L477.1 410.8L480 396.1L482.9 384L485.8 372.8L488.7 367.5L491.6 355.1L494.5 361.2L497.4 368.6L500.3 352.1L503.2 345.1L506.1 375.2L509 348.1L511.9 342.5L514.8 347.4L517.7 342.9L520.6 351.8L523.5 334.6L526.4 325.1L529.3 326.9L532.2 333.3L535.1 327.2L538 322.4L540.9 323.2L543.8 315.5L546.7 305.9L549.6 296L552.5 286.2L555.4 273.8L558.3 264.2L561.2 254.4L564.1 240.4L567 218.5L569.8 216.6L572.7 201.6L575.6 186.4L578.5 198.2L581.4 208.5L584.3 189L587.2 178.8L590.1 175.1L593 170.2L595.9 184.7L598.8 193.5L601.7 210.7L604.6 212L607.5 195.2L610.4 195.9L613.3 195.1L616.2 183.4L619.1 167.2L622 161.3L624.9 162.1L627.8 166.3L630.7 158.3L633.6 151.2L636.5 144.6L639.4 140.2L642.3 126.7L645.2 121.3L648.1 118L651 112.9L653.9 98L656.8 105.4L659.7 102.6L662.6 98L665.4 90.7L668.3 89.3L671.2 95L674.1 89.4L677 104.9L679.9 136.2L682.8 121.9L685.7 131.5L688.6 146.1L691.5 136.3L694.4 132.8L697.3 143.7L700.2 152.6L703.1 155.6L706 143.6L708.9 152L711.8 191.4L714.7 168.5L717.6 166.7" fill="none" stroke-width="1"></path></g><g id="line__United-States"><path id="outline" fill="none" stroke-linecap="butt" stroke-linejoin="round" stroke="#fff" stroke-width="2.5" d="M74.5 531.3L77.4 531.3L80.3 531.3L83.2 531.3L86 531.3L88.9 531.3L91.8 531.3L94.7 531.3L97.6 531.3L100.5 531.3L103.4 531.3L106.3 531.3L109.2 531.3L112.1 531.3L115 531.3L117.9 531.3L120.8 531.3L123.7 531.2L126.6 531.2L129.5 531.2L132.4 531.2L135.3 531.2L138.2 531.2L141.1 531.2L144 531.2L146.9 531.2L149.8 531.2L152.7 531.2L155.6 531.2L158.5 531.2L161.4 531.1L164.3 531.1L167.2 531.1L170.1 531L173 531.1L175.9 531L178.8 531L181.6 530.9L184.5 530.9L187.4 530.9L190.3 530.9L193.2 530.9L196.1 530.8L199 530.7L201.9 530.6L204.8 530.5L207.7 530.4L210.6 530.2L213.5 530.1L216.4 530L219.3 529.9L222.2 529.5L225.1 529.4L228 529.1L230.9 528.9L233.8 528.5L236.7 528.4L239.6 528.3L242.5 528.3L245.4 528L248.3 527.9L251.2 528L254.1 527.9L257 527.3L259.9 527.1L262.8 527.1L265.7 527L268.6 526L271.5 525.4L274.4 524.5L277.3 524.2L280.1 523.9L283 522.2L285.9 521.2L288.8 521.6L291.7 521.5L294.6 521.7L297.5 520.7L300.4 520.9L303.3 518.7L306.2 517L309.1 516.1L312 514.3L314.9 513L317.8 512L320.7 511.7L323.6 510.6L326.5 509.1L329.4 504.3L332.3 507.1L335.2 502.3L338.1 500.5L341 498.8L343.9 498.6L346.8 500.7L349.7 496.7L352.6 496.6L355.5 495.2L358.4 492L361.3 486.2L364.2 483.5L367.1 479.3L370 476.2L372.9 466.8L375.7 467.7L378.6 460.2L381.5 456.7L384.4 444.5L387.3 455.4L390.2 447.3L393.1 439.6L396 440.6L398.9 434.4L401.8 427.3L404.7 436.3L407.6 432.7L410.5 421.8L413.4 410.8L416.3 405.3L419.2 424.7L422.1 406L425 428.7L427.9 427.8L430.8 394.6L433.7 408.9L436.6 404.6L439.5 393.9L442.4 397L445.3 399.3L448.2 389.8L451.1 405.5L454 424.3L456.9 440.6L459.8 434.1L462.7 427.8L465.6 423.7L468.5 407.8L471.3 402.1L474.2 422L477.1 410.8L480 396.1L482.9 384L485.8 372.8L488.7 367.5L491.6 355.1L494.5 361.2L497.4 368.6L500.3 352.1L503.2 345.1L506.1 375.2L509 348.1L511.9 342.5L514.8 347.4L517.7 342.9L520.6 351.8L523.5 334.6L526.4 325.1L529.3 326.9L532.2 333.3L535.1 327.2L538 322.4L540.9 323.2L543.8 315.5L546.7 305.9L549.6 296L552.5 286.2L555.4 273.8L558.3 264.2L561.2 254.4L564.1 240.4L567 218.5L569.8 216.6L572.7 201.6L575.6 186.4L578.5 198.2L581.4 208.5L584.3 189L587.2 178.8L590.1 175.1L593 170.2L595.9 184.7L598.8 193.5L601.7 210.7L604.6 212L607.5 195.2L610.4 195.9L613.3 195.1L616.2 183.4L619.1 167.2L622 161.3L624.9 162.1L627.8 166.3L630.7 158.3L633.6 151.2L636.5 144.6L639.4 140.2L642.3 126.7L645.2 121.3L648.1 118L651 112.9L653.9 98L656.8 105.4L659.7 102.6L662.6 98L665.4 90.7L668.3 89.3L671.2 95L674.1 89.4L677 104.9L679.9 136.2L682.8 121.9L685.7 131.5L688.6 146.1L691.5 136.3L694.4 132.8L697.3 143.7L700.2 152.6L703.1 155.6L706 143.6L708.9 152L711.8 191.4L714.7 168.5L717.6 166.7"></path><g id="polyline"><polyline id="polyline" points="74.50,531.30 77.40,531.30 80.30,531.30 83.20,531.30 86.00,531.30 88.90,531.30 91.80,531.30 94.70,531.30 97.60,531.30 100.50,531.30 103.40,531.30 106.30,531.30 109.20,531.30 112.10,531.30 115.00,531.30 117.90,531.30 120.80,531.30 123.70,531.20 126.60,531.20 129.50,531.20 132.40,531.20 135.30,531.20 138.20,531.20 141.10,531.20 144.00,531.20 146.90,531.20 149.80,531.20 152.70,531.20 155.60,531.20 158.50,531.20 161.40,531.10 164.30,531.10 167.20,531.10 170.10,531.00 173.00,531.10 175.90,531.00 178.80,531.00 181.60,530.90 184.50,530.90 187.40,530.90 190.30,530.90 193.20,530.90 196.10,530.80 199.00,530.70 201.90,530.60 204.80,530.50 207.70,530.40 210.60,530.20 213.50,530.10 216.40,530.00 219.30,529.90 222.20,529.50 225.10,529.40 228.00,529.10 230.90,528.90 233.80,528.50 236.70,528.40 239.60,528.30 242.50,528.30 245.40,528.00 248.30,527.90 251.20,528.00 254.10,527.90 257.00,527.30 259.90,527.10 262.80,527.10 265.70,527.00 268.60,526.00 271.50,525.40 274.40,524.50 277.30,524.20 280.10,523.90 283.00,522.20 285.90,521.20 288.80,521.60 291.70,521.50 294.60,521.70 297.50,520.70 300.40,520.90 303.30,518.70 306.20,517.00 309.10,516.10 312.00,514.30 314.90,513.00 317.80,512.00 320.70,511.70 323.60,510.60 326.50,509.10 329.40,504.30 332.30,507.10 335.20,502.30 338.10,500.50 341.00,498.80 343.90,498.60 346.80,500.70 349.70,496.70 352.60,496.60 355.50,495.20 358.40,492.00 361.30,486.20 364.20,483.50 367.10,479.30 370.00,476.20 372.90,466.80 375.70,467.70 378.60,460.20 381.50,456.70 384.40,444.50 387.30,455.40 390.20,447.30 393.10,439.60 396.00,440.60 398.90,434.40 401.80,427.30 404.70,436.30 407.60,432.70 410.50,421.80 413.40,410.80 416.30,405.30 419.20,424.70 422.10,406.00 425.00,428.70 427.90,427.80 430.80,394.60 433.70,408.90 436.60,404.60 439.50,393.90 442.40,397.00 445.30,399.30 448.20,389.80 451.10,405.50 454.00,424.30 456.90,440.60 459.80,434.10 462.70,427.80 465.60,423.70 468.50,407.80 471.30,402.10 474.20,422.00 477.10,410.80 480.00,396.10 482.90,384.00 485.80,372.80 488.70,367.50 491.60,355.10 494.50,361.20 497.40,368.60 500.30,352.10 503.20,345.10 506.10,375.20 509.00,348.10 511.90,342.50 514.80,347.40 517.70,342.90 520.60,351.80 523.50,334.60 526.40,325.10 529.30,326.90 532.20,333.30 535.10,327.20 538.00,322.40 540.90,323.20 543.80,315.50 546.70,305.90 549.60,296.00 552.50,286.20 555.40,273.80 558.30,264.20 561.20,254.40 564.10,240.40 567.00,218.50 569.80,216.60 572.70,201.60 575.60,186.40 578.50,198.20 581.40,208.50 584.30,189.00 587.20,178.80 590.10,175.10 593.00,170.20 595.90,184.70 598.80,193.50 601.70,210.70 604.60,212.00 607.50,195.20 610.40,195.90 613.30,195.10 616.20,183.40 619.10,167.20 622.00,161.30 624.90,162.10 627.80,166.30 630.70,158.30 633.60,151.20 636.50,144.60 639.40,140.20 642.30,126.70 645.20,121.30 648.10,118.00 651.00,112.90 653.90,98.00 656.80,105.40 659.70,102.60 662.60,98.00 665.40,90.70 668.30,89.30 671.20,95.00 674.10,89.40 677.00,104.90 679.90,136.20 682.80,121.90 685.70,131.50 688.60,146.10 691.50,136.30 694.40,132.80 697.30,143.70 700.20,152.60 703.10,155.60 706.00,143.60 708.90,152.00 711.80,191.40 714.70,168.50 717.60,166.70" stroke-linejoin="round" stroke-width="1.5" stroke="#C15065" fill="none" stroke-linecap="butt"></polyline></g><g id="markers"><circle cx="74.5" cy="531.3" r="1.8" fill="#C15065"></circle><circle cx="77.4" cy="531.3" r="1.8" fill="#C15065"></circle><circle cx="80.3" cy="531.3" r="1.8" fill="#C15065"></circle><circle cx="83.2" cy="531.3" r="1.8" fill="#C15065"></circle><circle cx="86" cy="531.3" r="1.8" fill="#C15065"></circle><circle cx="88.9" cy="531.3" r="1.8" fill="#C15065"></circle><circle cx="91.8" cy="531.3" r="1.8" fill="#C15065"></circle><circle cx="94.7" cy="531.3" r="1.8" fill="#C15065"></circle><circle cx="97.6" cy="531.3" r="1.8" fill="#C15065"></circle><circle cx="100.5" cy="531.3" r="1.8" fill="#C15065"></circle><circle cx="103.4" cy="531.3" r="1.8" fill="#C15065"></circle><circle cx="106.3" cy="531.3" r="1.8" fill="#C15065"></circle><circle cx="109.2" cy="531.3" r="1.8" fill="#C15065"></circle><circle cx="112.1" cy="531.3" r="1.8" fill="#C15065"></circle><circle cx="115" cy="531.3" r="1.8" fill="#C15065"></circle><circle cx="117.9" cy="531.3" r="1.8" fill="#C15065"></circle><circle cx="120.8" cy="531.3" r="1.8" fill="#C15065"></circle><circle cx="123.7" cy="531.2" r="1.8" fill="#C15065"></circle><circle cx="126.6" cy="531.2" r="1.8" fill="#C15065"></circle><circle cx="129.5" cy="531.2" r="1.8" fill="#C15065"></circle><circle cx="132.4" cy="531.2" r="1.8" fill="#C15065"></circle><circle cx="135.3" cy="531.2" r="1.8" fill="#C15065"></circle><circle cx="138.2" cy="531.2" r="1.8" fill="#C15065"></circle><circle cx="141.1" cy="531.2" r="1.8" fill="#C15065"></circle><circle cx="144" cy="531.2" r="1.8" fill="#C15065"></circle><circle cx="146.9" cy="531.2" r="1.8" fill="#C15065"></circle><circle cx="149.8" cy="531.2" r="1.8" fill="#C15065"></circle><circle cx="152.7" cy="531.2" r="1.8" fill="#C15065"></circle><circle cx="155.6" cy="531.2" r="1.8" fill="#C15065"></circle><circle cx="158.5" cy="531.2" r="1.8" fill="#C15065"></circle><circle cx="161.4" cy="531.1" r="1.8" fill="#C15065"></circle><circle cx="164.3" cy="531.1" r="1.8" fill="#C15065"></circle><circle cx="167.2" cy="531.1" r="1.8" fill="#C15065"></circle><circle cx="170.1" cy="531" r="1.8" fill="#C15065"></circle><circle cx="173" cy="531.1" r="1.8" fill="#C15065"></circle><circle cx="175.9" cy="531" r="1.8" fill="#C15065"></circle><circle cx="178.8" cy="531" r="1.8" fill="#C15065"></circle><circle cx="181.6" cy="530.9" r="1.8" fill="#C15065"></circle><circle cx="184.5" cy="530.9" r="1.8" fill="#C15065"></circle><circle cx="187.4" cy="530.9" r="1.8" fill="#C15065"></circle><circle cx="190.3" cy="530.9" r="1.8" fill="#C15065"></circle><circle cx="193.2" cy="530.9" r="1.8" fill="#C15065"></circle><circle cx="196.1" cy="530.8" r="1.8" fill="#C15065"></circle><circle cx="199" cy="530.7" r="1.8" fill="#C15065"></circle><circle cx="201.9" cy="530.6" r="1.8" fill="#C15065"></circle><circle cx="204.8" cy="530.5" r="1.8" fill="#C15065"></circle><circle cx="207.7" cy="530.4" r="1.8" fill="#C15065"></circle><circle cx="210.6" cy="530.2" r="1.8" fill="#C15065"></circle><circle cx="213.5" cy="530.1" r="1.8" fill="#C15065"></circle><circle cx="216.4" cy="530" r="1.8" fill="#C15065"></circle><circle cx="219.3" cy="529.9" r="1.8" fill="#C15065"></circle><circle cx="222.2" cy="529.5" r="1.8" fill="#C15065"></circle><circle cx="225.1" cy="529.4" r="1.8" fill="#C15065"></circle><circle cx="228" cy="529.1" r="1.8" fill="#C15065"></circle><circle cx="230.9" cy="528.9" r="1.8" fill="#C15065"></circle><circle cx="233.8" cy="528.5" r="1.8" fill="#C15065"></circle><circle cx="236.7" cy="528.4" r="1.8" fill="#C15065"></circle><circle cx="239.6" cy="528.3" r="1.8" fill="#C15065"></circle><circle cx="242.5" cy="528.3" r="1.8" fill="#C15065"></circle><circle cx="245.4" cy="528" r="1.8" fill="#C15065"></circle><circle cx="248.3" cy="527.9" r="1.8" fill="#C15065"></circle><circle cx="251.2" cy="528" r="1.8" fill="#C15065"></circle><circle cx="254.1" cy="527.9" r="1.8" fill="#C15065"></circle><circle cx="257" cy="527.3" r="1.8" fill="#C15065"></circle><circle cx="259.9" cy="527.1" r="1.8" fill="#C15065"></circle><circle cx="262.8" cy="527.1" r="1.8" fill="#C15065"></circle><circle cx="265.7" cy="527" r="1.8" fill="#C15065"></circle><circle cx="268.6" cy="526" r="1.8" fill="#C15065"></circle><circle cx="271.5" cy="525.4" r="1.8" fill="#C15065"></circle><circle cx="274.4" cy="524.5" r="1.8" fill="#C15065"></circle><circle cx="277.3" cy="524.2" r="1.8" fill="#C15065"></circle><circle cx="280.1" cy="523.9" r="1.8" fill="#C15065"></circle><circle cx="283" cy="522.2" r="1.8" fill="#C15065"></circle><circle cx="285.9" cy="521.2" r="1.8" fill="#C15065"></circle><circle cx="288.8" cy="521.6" r="1.8" fill="#C15065"></circle><circle cx="291.7" cy="521.5" r="1.8" fill="#C15065"></circle><circle cx="294.6" cy="521.7" r="1.8" fill="#C15065"></circle><circle cx="297.5" cy="520.7" r="1.8" fill="#C15065"></circle><circle cx="300.4" cy="520.9" r="1.8" fill="#C15065"></circle><circle cx="303.3" cy="518.7" r="1.8" fill="#C15065"></circle><circle cx="306.2" cy="517" r="1.8" fill="#C15065"></circle><circle cx="309.1" cy="516.1" r="1.8" fill="#C15065"></circle><circle cx="312" cy="514.3" r="1.8" fill="#C15065"></circle><circle cx="314.9" cy="513" r="1.8" fill="#C15065"></circle><circle cx="317.8" cy="512" r="1.8" fill="#C15065"></circle><circle cx="320.7" cy="511.7" r="1.8" fill="#C15065"></circle><circle cx="323.6" cy="510.6" r="1.8" fill="#C15065"></circle><circle cx="326.5" cy="509.1" r="1.8" fill="#C15065"></circle><circle cx="329.4" cy="504.3" r="1.8" fill="#C15065"></circle><circle cx="332.3" cy="507.1" r="1.8" fill="#C15065"></circle><circle cx="335.2" cy="502.3" r="1.8" fill="#C15065"></circle><circle cx="338.1" cy="500.5" r="1.8" fill="#C15065"></circle><circle cx="341" cy="498.8" r="1.8" fill="#C15065"></circle><circle cx="343.9" cy="498.6" r="1.8" fill="#C15065"></circle><circle cx="346.8" cy="500.7" r="1.8" fill="#C15065"></circle><circle cx="349.7" cy="496.7" r="1.8" fill="#C15065"></circle><circle cx="352.6" cy="496.6" r="1.8" fill="#C15065"></circle><circle cx="355.5" cy="495.2" r="1.8" fill="#C15065"></circle><circle cx="358.4" cy="492" r="1.8" fill="#C15065"></circle><circle cx="361.3" cy="486.2" r="1.8" fill="#C15065"></circle><circle cx="364.2" cy="483.5" r="1.8" fill="#C15065"></circle><circle cx="367.1" cy="479.3" r="1.8" fill="#C15065"></circle><circle cx="370" cy="476.2" r="1.8" fill="#C15065"></circle><circle cx="372.9" cy="466.8" r="1.8" fill="#C15065"></circle><circle cx="375.7" cy="467.7" r="1.8" fill="#C15065"></circle><circle cx="378.6" cy="460.2" r="1.8" fill="#C15065"></circle><circle cx="381.5" cy="456.7" r="1.8" fill="#C15065"></circle><circle cx="384.4" cy="444.5" r="1.8" fill="#C15065"></circle><circle cx="387.3" cy="455.4" r="1.8" fill="#C15065"></circle><circle cx="390.2" cy="447.3" r="1.8" fill="#C15065"></circle><circle cx="393.1" cy="439.6" r="1.8" fill="#C15065"></circle><circle cx="396" cy="440.6" r="1.8" fill="#C15065"></circle><circle cx="398.9" cy="434.4" r="1.8" fill="#C15065"></circle><circle cx="401.8" cy="427.3" r="1.8" fill="#C15065"></circle><circle cx="404.7" cy="436.3" r="1.8" fill="#C15065"></circle><circle cx="407.6" cy="432.7" r="1.8" fill="#C15065"></circle><circle cx="410.5" cy="421.8" r="1.8" fill="#C15065"></circle><circle cx="413.4" cy="410.8" r="1.8" fill="#C15065"></circle><circle cx="416.3" cy="405.3" r="1.8" fill="#C15065"></circle><circle cx="419.2" cy="424.7" r="1.8" fill="#C15065"></circle><circle cx="422.1" cy="406" r="1.8" fill="#C15065"></circle><circle cx="425" cy="428.7" r="1.8" fill="#C15065"></circle><circle cx="427.9" cy="427.8" r="1.8" fill="#C15065"></circle><circle cx="430.8" cy="394.6" r="1.8" fill="#C15065"></circle><circle cx="433.7" cy="408.9" r="1.8" fill="#C15065"></circle><circle cx="436.6" cy="404.6" r="1.8" fill="#C15065"></circle><circle cx="439.5" cy="393.9" r="1.8" fill="#C15065"></circle><circle cx="442.4" cy="397" r="1.8" fill="#C15065"></circle><circle cx="445.3" cy="399.3" r="1.8" fill="#C15065"></circle><circle cx="448.2" cy="389.8" r="1.8" fill="#C15065"></circle><circle cx="451.1" cy="405.5" r="1.8" fill="#C15065"></circle><circle cx="454" cy="424.3" r="1.8" fill="#C15065"></circle><circle cx="456.9" cy="440.6" r="1.8" fill="#C15065"></circle><circle cx="459.8" cy="434.1" r="1.8" fill="#C15065"></circle><circle cx="462.7" cy="427.8" r="1.8" fill="#C15065"></circle><circle cx="465.6" cy="423.7" r="1.8" fill="#C15065"></circle><circle cx="468.5" cy="407.8" r="1.8" fill="#C15065"></circle><circle cx="471.3" cy="402.1" r="1.8" fill="#C15065"></circle><circle cx="474.2" cy="422" r="1.8" fill="#C15065"></circle><circle cx="477.1" cy="410.8" r="1.8" fill="#C15065"></circle><circle cx="480" cy="396.1" r="1.8" fill="#C15065"></circle><circle cx="482.9" cy="384" r="1.8" fill="#C15065"></circle><circle cx="485.8" cy="372.8" r="1.8" fill="#C15065"></circle><circle cx="488.7" cy="367.5" r="1.8" fill="#C15065"></circle><circle cx="491.6" cy="355.1" r="1.8" fill="#C15065"></circle><circle cx="494.5" cy="361.2" r="1.8" fill="#C15065"></circle><circle cx="497.4" cy="368.6" r="1.8" fill="#C15065"></circle><circle cx="500.3" cy="352.1" r="1.8" fill="#C15065"></circle><circle cx="503.2" cy="345.1" r="1.8" fill="#C15065"></circle><circle cx="506.1" cy="375.2" r="1.8" fill="#C15065"></circle><circle cx="509" cy="348.1" r="1.8" fill="#C15065"></circle><circle cx="511.9" cy="342.5" r="1.8" fill="#C15065"></circle><circle cx="514.8" cy="347.4" r="1.8" fill="#C15065"></circle><circle cx="517.7" cy="342.9" r="1.8" fill="#C15065"></circle><circle cx="520.6" cy="351.8" r="1.8" fill="#C15065"></circle><circle cx="523.5" cy="334.6" r="1.8" fill="#C15065"></circle><circle cx="526.4" cy="325.1" r="1.8" fill="#C15065"></circle><circle cx="529.3" cy="326.9" r="1.8" fill="#C15065"></circle><circle cx="532.2" cy="333.3" r="1.8" fill="#C15065"></circle><circle cx="535.1" cy="327.2" r="1.8" fill="#C15065"></circle><circle cx="538" cy="322.4" r="1.8" fill="#C15065"></circle><circle cx="540.9" cy="323.2" r="1.8" fill="#C15065"></circle><circle cx="543.8" cy="315.5" r="1.8" fill="#C15065"></circle><circle cx="546.7" cy="305.9" r="1.8" fill="#C15065"></circle><circle cx="549.6" cy="296" r="1.8" fill="#C15065"></circle><circle cx="552.5" cy="286.2" r="1.8" fill="#C15065"></circle><circle cx="555.4" cy="273.8" r="1.8" fill="#C15065"></circle><circle cx="558.3" cy="264.2" r="1.8" fill="#C15065"></circle><circle cx="561.2" cy="254.4" r="1.8" fill="#C15065"></circle><circle cx="564.1" cy="240.4" r="1.8" fill="#C15065"></circle><circle cx="567" cy="218.5" r="1.8" fill="#C15065"></circle><circle cx="569.8" cy="216.6" r="1.8" fill="#C15065"></circle><circle cx="572.7" cy="201.6" r="1.8" fill="#C15065"></circle><circle cx="575.6" cy="186.4" r="1.8" fill="#C15065"></circle><circle cx="578.5" cy="198.2" r="1.8" fill="#C15065"></circle><circle cx="581.4" cy="208.5" r="1.8" fill="#C15065"></circle><circle cx="584.3" cy="189" r="1.8" fill="#C15065"></circle><circle cx="587.2" cy="178.8" r="1.8" fill="#C15065"></circle><circle cx="590.1" cy="175.1" r="1.8" fill="#C15065"></circle><circle cx="593" cy="170.2" r="1.8" fill="#C15065"></circle><circle cx="595.9" cy="184.7" r="1.8" fill="#C15065"></circle><circle cx="598.8" cy="193.5" r="1.8" fill="#C15065"></circle><circle cx="601.7" cy="210.7" r="1.8" fill="#C15065"></circle><circle cx="604.6" cy="212" r="1.8" fill="#C15065"></circle><circle cx="607.5" cy="195.2" r="1.8" fill="#C15065"></circle><circle cx="610.4" cy="195.9" r="1.8" fill="#C15065"></circle><circle cx="613.3" cy="195.1" r="1.8" fill="#C15065"></circle><circle cx="616.2" cy="183.4" r="1.8" fill="#C15065"></circle><circle cx="619.1" cy="167.2" r="1.8" fill="#C15065"></circle><circle cx="622" cy="161.3" r="1.8" fill="#C15065"></circle><circle cx="624.9" cy="162.1" r="1.8" fill="#C15065"></circle><circle cx="627.8" cy="166.3" r="1.8" fill="#C15065"></circle><circle cx="630.7" cy="158.3" r="1.8" fill="#C15065"></circle><circle cx="633.6" cy="151.2" r="1.8" fill="#C15065"></circle><circle cx="636.5" cy="144.6" r="1.8" fill="#C15065"></circle><circle cx="639.4" cy="140.2" r="1.8" fill="#C15065"></circle><circle cx="642.3" cy="126.7" r="1.8" fill="#C15065"></circle><circle cx="645.2" cy="121.3" r="1.8" fill="#C15065"></circle><circle cx="648.1" cy="118" r="1.8" fill="#C15065"></circle><circle cx="651" cy="112.9" r="1.8" fill="#C15065"></circle><circle cx="653.9" cy="98" r="1.8" fill="#C15065"></circle><circle cx="656.8" cy="105.4" r="1.8" fill="#C15065"></circle><circle cx="659.7" cy="102.6" r="1.8" fill="#C15065"></circle><circle cx="662.6" cy="98" r="1.8" fill="#C15065"></circle><circle cx="665.4" cy="90.7" r="1.8" fill="#C15065"></circle><circle cx="668.3" cy="89.3" r="1.8" fill="#C15065"></circle><circle cx="671.2" cy="95" r="1.8" fill="#C15065"></circle><circle cx="674.1" cy="89.4" r="1.8" fill="#C15065"></circle><circle cx="677" cy="104.9" r="1.8" fill="#C15065"></circle><circle cx="679.9" cy="136.2" r="1.8" fill="#C15065"></circle><circle cx="682.8" cy="121.9" r="1.8" fill="#C15065"></circle><circle cx="685.7" cy="131.5" r="1.8" fill="#C15065"></circle><circle cx="688.6" cy="146.1" r="1.8" fill="#C15065"></circle><circle cx="691.5" cy="136.3" r="1.8" fill="#C15065"></circle><circle cx="694.4" cy="132.8" r="1.8" fill="#C15065"></circle><circle cx="697.3" cy="143.7" r="1.8" fill="#C15065"></circle><circle cx="700.2" cy="152.6" r="1.8" fill="#C15065"></circle><circle cx="703.1" cy="155.6" r="1.8" fill="#C15065"></circle><circle cx="706" cy="143.6" r="1.8" fill="#C15065"></circle><circle cx="708.9" cy="152" r="1.8" fill="#C15065"></circle><circle cx="711.8" cy="191.4" r="1.8" fill="#C15065"></circle><circle cx="714.7" cy="168.5" r="1.8" fill="#C15065"></circle><circle cx="717.6" cy="166.7" r="1.8" fill="#C15065"></circle></g></g></g></g></g></g><g id="footer" class="SourcesFooter" style="fill:#5b5b5b"><g id="sources" class="markdown-text-wrap"><text x="16.0" y="580.9" style="font-size:13.5px;line-height:1.2"><tspan x="16" y="580.9"><tspan style="font-weight:700">Data source:</tspan> Global Carbon Budget (2023)</tspan></text></g><text id="origin-url" font-size="13.50" x="440.7" y="580.9"><tspan x="440.74499999999995" y="580.895"><a target="_blank" style="fill: #5b5b5b;" href="https://ourworldindata.org/co2-and-greenhouse-gas-emissions">OurWorldInData.org/co2-and-greenhouse-gas-emissions</a> | <a target="_blank" style="fill: #5b5b5b;" href="https://creativecommons.org/licenses/by/4.0/">CC BY</a></tspan></text></g><line id="separator-line" x1="16" y1="600" x2="834" y2="600" stroke="#e7e7e7"></line><g id="details" transform="translate(15, 616)"><g class="markdown-text-wrap"><text x="0.0" y="12.0" style="font-size:12.375px;fill:#5b5b5b;line-height:1.2"><tspan x="0" y="12.0"><tspan style="font-weight:700">1.</tspan> <tspan style="font-weight:700">Fossil emissions</tspan>: Fossil emissions measure the quantity of carbon dioxide (CO₂) emitted from the burning of fossil fuels, and directly from</tspan><tspan x="0" y="26.9">industrial processes such as cement and steel production. Fossil CO₂ includes emissions from coal, oil, gas, flaring, cement, steel, and other</tspan><tspan x="0" y="41.7">industrial processes. Fossil emissions do not include land use change, deforestation, soils, or vegetation.</tspan></text></g></g></svg>