<?xml version="1.0" encoding="UTF-8" standalone="no"?>
<!-- Created with Inkscape (http://www.inkscape.org/) -->
<!DOCTYPE svg PUBLIC "-//W3C//DTD SVG 1.1//EN" "http://www.w3.org/Graphics/SVG/1.1/DTD/svg11.dtd">
<svg xmlns:dc="http://purl.org/dc/elements/1.1/" xmlns:cc="http://creativecommons.org/ns#" xmlns:rdf="http://www.w3.org/1999/02/22-rdf-syntax-ns#" xmlns:svg="http://www.w3.org/2000/svg" xmlns="http://www.w3.org/2000/svg" version="1.1" width="180" height="375" viewBox="0 0 3200 6662" id="svg2" xml:space="preserve" style="fill-rule:evenodd">
   <defs id="defs120"/><g id="Layer_1"><g id="g3170"><path d="m 0,0 3200,0 0,6662 L 0,6662 0,0 z" id="path4" style="fill:#ffffff;fill-rule:evenodd"/><circle cx="1357" cy="1338" r="1228" id="circle7" style="fill:#b869a9;stroke:#000000;stroke-width:3"/><path d="m 1357,1340 65,1224 c -21,1 -43,2 -65,2 l 0,-1226 z" id="path9" style="fill:#fffba8;stroke:#000000;stroke-width:3"/><path d="m 1357,1340 1206,227 c -104,548 -574,969 -1145,997 l -61,-1224 z" id="path11" style="fill:#565fde;stroke:#000000;stroke-width:3"/><g transform="matrix(1.44668,0,0,1.44668,-1186.144,11.206264)" id="g2510"><switch style="font-size:132px;font-weight:normal;fill:#000000;font-family:Arial"><text x="2426" y="149" id="text13" style="font-size:132px;font-weight:normal;fill:#000000;font-family:Arial"><tspan id="trsvg1">N</tspan></text></switch>

<switch style="font-size:132px;font-weight:normal;fill:#000000;font-family:Arial"><text x="2426" y="309" id="text15-de" style="font-size:132px;font-weight:normal;fill:#000000;font-family:Arial" systemLanguage="de"><tspan id="trsvg2-de">78,084 %</tspan></text><text x="2426" y="309" id="text15" style="font-size:132px;font-weight:normal;fill:#000000;font-family:Arial"><tspan id="trsvg2">78.084 %</tspan></text></switch>

<switch style="font-size:80px;font-weight:normal;fill:#000000;font-family:Arial"><text x="2521" y="149" id="text17" style="font-size:80px;font-weight:normal;fill:#000000;font-family:Arial"><tspan id="trsvg3">2</tspan></text></switch>

</g><g transform="matrix(1.44668,0,0,1.44668,-1441.5799,-1092.3878)" id="g2528"><switch style="font-size:132px;font-weight:normal;fill:#000000;font-family:Arial"><text x="2544" y="2412" id="text19" style="font-size:132px;font-weight:normal;fill:#000000;font-family:Arial"><tspan id="trsvg4">O</tspan></text></switch>

<switch style="font-size:132px;font-weight:normal;fill:#000000;font-family:Arial"><text x="2544" y="2572" id="text21-de" style="font-size:132px;font-weight:normal;fill:#000000;font-family:Arial" systemLanguage="de"><tspan id="trsvg5-de">20,946 %</tspan></text><text x="2544" y="2572" id="text21" style="font-size:132px;font-weight:normal;fill:#000000;font-family:Arial"><tspan id="trsvg5">20.946 %</tspan></text></switch>

<switch style="font-size:80px;font-weight:normal;fill:#000000;font-family:Arial"><text x="2647" y="2412" id="text23" style="font-size:80px;font-weight:normal;fill:#000000;font-family:Arial"><tspan id="trsvg6">2</tspan></text></switch>

</g><g transform="matrix(1.44668,0,0,1.44668,-861.30702,-1125.8183)" id="g2518"><switch style="font-size:132px;font-weight:normal;fill:#000000;font-family:Arial"><text x="1988" y="2818" id="text25" style="font-size:132px;font-weight:normal;fill:#000000;font-family:Arial"><tspan id="trsvg7">Ar</tspan></text></switch>

<switch style="font-size:132px;font-weight:normal;fill:#000000;font-family:Arial"><text x="1988" y="2965" id="text27-de" style="font-size:132px;font-weight:normal;fill:#000000;font-family:Arial" systemLanguage="de"><tspan id="trsvg8-de">0,9340 %</tspan></text><text x="1988" y="2965" id="text27" style="font-size:132px;font-weight:normal;fill:#000000;font-family:Arial"><tspan id="trsvg8">0.9340 %</tspan></text></switch>

</g><g id="g29"><path d="M 1382.1416,2552.8562 1930,2826" id="path31" style="fill:none;stroke:#000000;stroke-width:3"/><path d="m 1942,2802 0,0 2,1 1,1 1,0 1,1 1,1 1,1 1,1 1,1 0,1 1,1 1,1 0,1 1,1 1,1 0,1 1,2 0,1 0,1 0,1 1,2 0,1 0,1 0,2 0,1 0,1 -1,1 0,2 0,1 0,1 -1,1 0,2 -1,1 0,0 -1,1 0,1 -1,1 -1,1 -1,2 -1,0 -1,1 -1,1 -1,1 -1,1 -1,0 -1,1 -1,1 -1,0 -1,1 -2,0 -1,1 -1,0 -1,0 -2,0 -1,0 -1,0 -1,0 -2,0 -1,0 -1,0 -2,0 -1,0 -1,-1 -1,0 -2,-1 -1,0 0,0 -1,-1 -1,-1 -1,-1 -1,0 -1,-1 -1,-1 -1,-1 -1,-1 -1,-1 -1,-1 0,-1 -1,-1 -1,-1 0,-2 -1,-1 0,-1 0,-1 -1,-1 0,-2 0,-1 0,-1 0,-1 0,-2 0,-1 0,-1 0,-2 0,-1 1,-1 0,-1 0,-2 1,-1 1,-1 0,0 0,-1 1,-2 1,-1 0,-1 1,-1 1,-1 1,-1 1,0 1,-1 1,-1 1,-1 1,0 1,-1 2,-1 1,0 1,0 1,-1 1,0 2,0 1,-1 1,0 2,0 1,0 1,0 1,0 2,1 1,0 1,0 2,1 1,0 1,1 1,0 -12,24 12,-24 z" id="path33" style="fill:#000000"/></g><circle cx="1352" cy="4728" r="915" id="circle35" style="fill:#51f4f7;stroke:#000000;stroke-width:3"/><path d="m 1357,4732 19,911 -19,0 0,-911 z" id="path37" style="fill:#0094cf;stroke:#000000;stroke-width:3"/><path d="m 1357,4732 33,910 -18,1 -15,-911 z" id="path39" style="fill:#f288e9;stroke:#000000;stroke-width:3"/><path d="m 1357,4732 51,909 -21,2 -30,-911 z" id="path41" style="fill:#0039c9;stroke:#000000;stroke-width:3"/><path d="M 1357,2563 533,4320" id="path43" style="fill:none;stroke:#000000;stroke-width:3"/><path d="m 1357,4732 47,910 c 31,-2 61,-5 90,-10 l -137,-900 z" id="path45" style="fill:#ffbaba;stroke:#000000;stroke-width:3"/><path d="m 1357,2563 814,1757" id="path47" style="fill:none;stroke:#000000;stroke-width:3"/><g transform="matrix(1.44668,0,0,1.44668,-1188.7475,-1837.4527)" id="g2533"><switch style="font-size:132px;font-weight:normal;fill:#000000;font-family:Arial"><text x="2448" y="4564" id="text49" style="font-size:132px;font-weight:normal;fill:#000000;font-family:Arial"><tspan id="trsvg9">CO</tspan></text></switch>

<switch style="font-size:132px;font-weight:normal;fill:#000000;font-family:Arial"><text x="2448" y="4724" id="text51-de" style="font-size:132px;font-weight:normal;fill:#000000;font-family:Arial" systemLanguage="de"><tspan id="trsvg10-de">0,0407 %</tspan></text><text x="2448" y="4724" id="text51" style="font-size:132px;font-weight:normal;fill:#000000;font-family:Arial"><tspan id="trsvg10">0.0407 %</tspan></text></switch>

<switch style="font-size:80px;font-weight:normal;fill:#000000;font-family:Arial"><text x="2646" y="4564" id="text53" style="font-size:80px;font-weight:normal;fill:#000000;font-family:Arial"><tspan id="trsvg11">2</tspan></text></switch>

</g><path d="m 1357,4732 401,816 c -84,42 -175,71 -272,85 l -129,-901 z" id="path55" style="fill:#9e4200;stroke:#000000;stroke-width:3"/><g transform="matrix(1.44668,0,0,1.44668,-1243.9217,-2638.7616)" id="g2538"><switch style="font-size:132px;font-weight:normal;fill:#000000;font-family:Arial"><text x="2339" y="5640" id="text57" style="font-size:132px;font-weight:normal;fill:#000000;font-family:Arial"><tspan id="trsvg12">Ne</tspan></text></switch>

<switch style="font-size:132px;font-weight:normal;fill:#000000;font-family:Arial"><text x="2339" y="5788" id="text59-de" style="font-size:132px;font-weight:normal;fill:#000000;font-family:Arial" systemLanguage="de"><tspan id="trsvg13-de">0,001818 %</tspan></text><text x="2339" y="5788" id="text59" style="font-size:132px;font-weight:normal;fill:#000000;font-family:Arial"><tspan id="trsvg13">0.001818 %</tspan></text></switch>

</g><g id="g61"><path d="m 1605,5538 465.582,113.2865" id="path63" style="fill:none;stroke:#000000;stroke-width:3"/><path d="m 2091.2955,5627.4292 0,0 1,1 1,0 2,1 1,0 1,1 1,0 1,1 1,0 2,1 1,1 1,1 0,1 1,1 1,1 1,1 1,1 0,1 1,1 1,1 0,1 1,1 0,2 0,1 1,1 0,1 0,2 0,1 0,1 0,2 0,1 0,1 0,2 0,0 0,1 -1,1 0,2 -1,1 0,1 -1,1 0,1 -1,1 -1,1 -1,1 -1,1 0,1 -1,1 -1,1 -1,1 -1,1 -1,0 -2,1 -1,1 -1,0 -1,1 -1,0 -1,0 -2,1 -1,0 -1,0 -2,0 -1,0 -1,0 -2,0 -1,0 -1,0 0,0 -2,-1 -1,0 -1,0 -1,-1 -2,0 -1,-1 -1,-1 -1,0 -1,-1 -1,-1 -1,-1 -1,0 -1,-1 -1,-1 -1,-1 0,-1 -1,-2 -1,-1 0,-1 -1,-1 0,-1 -1,-1 0,-2 0,-1 -1,-1 0,-1 0,-2 0,-1 0,-1 0,-2 0,-1 1,-1 0,0 0,-2 0,-1 1,-1 0,-2 1,-1 0,-1 1,-1 1,-1 0,-1 1,-1 1,-1 1,-1 1,-1 1,-1 1,-1 1,0 1,-1 1,-1 1,0 1,-1 1,0 2,-1 1,0 1,0 1,-1 2,0 1,0 1,0 2,0 1,0 1,0 2,0 -5,27 5,-27 z" id="path65" style="fill:#000000"/></g><g transform="matrix(1.44668,0,0,1.44668,-1243.9217,-2638.7616)" id="g2542"><switch style="font-size:132px;font-weight:normal;fill:#000000;font-family:Arial"><text x="2349" y="5945" id="text67" style="font-size:132px;font-weight:normal;fill:#000000;font-family:Arial"><tspan id="trsvg14">He</tspan></text></switch>

<switch style="font-size:132px;font-weight:normal;fill:#000000;font-family:Arial"><text x="2349" y="6093" id="text69-de" style="font-size:132px;font-weight:normal;fill:#000000;font-family:Arial" systemLanguage="de"><tspan id="trsvg15-de">0,000524 %</tspan></text><text x="2349" y="6093" id="text69" style="font-size:132px;font-weight:normal;fill:#000000;font-family:Arial"><tspan id="trsvg15">0.000524 %</tspan></text></switch>

</g><g transform="translate(-4.4444309,22.222222)" id="g71"><path d="m 1444,5613 635.4597,382.4868" id="path73" style="fill:none;stroke:#000000;stroke-width:3"/><path d="m 2095.2059,5963.8997 0,0 2,1 1,0 1,1 1,1 1,0 1,1 1,1 1,1 1,1 1,1 0,1 1,1 1,1 0,1 1,2 1,1 0,1 0,1 1,1 0,2 0,1 0,1 0,1 0,2 0,1 0,1 0,2 0,1 0,1 -1,2 0,1 -1,1 0,0 0,1 -1,2 -1,1 0,1 -1,1 -1,1 -1,1 -1,1 -1,1 -1,0 -1,1 -1,1 -1,1 -1,0 -1,1 -1,0 -2,1 -1,0 -1,0 -1,1 -2,0 -1,0 -1,0 -1,0 -2,0 -1,0 -1,0 -2,0 -1,-1 -1,0 -2,-1 -1,0 0,0 -1,-1 -1,0 -1,-1 -1,-1 -2,-1 -1,0 -1,-1 0,-1 -1,-1 -1,-1 -1,-1 -1,-1 0,-1 -1,-1 0,-2 -1,-1 0,-1 -1,-1 0,-1 0,-2 -1,-1 0,-1 0,-1 0,-2 0,-1 0,-1 1,-2 0,-1 0,-1 0,-2 1,-1 0,-1 0,0 1,-1 1,-2 0,-1 1,-1 1,-1 1,-1 1,-1 0,-1 1,-1 1,0 1,-1 1,-1 2,-1 1,0 1,-1 1,0 1,-1 1,0 2,0 1,-1 1,0 1,0 2,0 1,0 1,0 2,0 1,0 1,0 2,1 1,0 1,1 1,0 -10,24 10,-24 z" id="path75" style="fill:#000000"/></g><g transform="matrix(1.44668,0,0,1.44668,-886.29531,-2724.9118)" id="g2546"><switch style="font-size:132px;font-weight:normal;fill:#000000;font-family:Arial"><text x="2038" y="6302" id="text77" style="font-size:132px;font-weight:normal;fill:#000000;font-family:Arial"><tspan id="trsvg16">CH</tspan></text></switch>

<switch style="font-size:132px;font-weight:normal;fill:#000000;font-family:Arial"><text x="2038" y="6462" id="text79-de" style="font-size:132px;font-weight:normal;fill:#000000;font-family:Arial" systemLanguage="de"><tspan id="trsvg17-de">0,00018 %</tspan></text><text x="2038" y="6462" id="text79" style="font-size:132px;font-weight:normal;fill:#000000;font-family:Arial"><tspan id="trsvg17">0.00018 %</tspan></text></switch>

<switch style="font-size:80px;font-weight:normal;fill:#000000;font-family:Arial"><text x="2228" y="6302" id="text81" style="font-size:80px;font-weight:normal;fill:#000000;font-family:Arial"><tspan id="trsvg18">4</tspan></text></switch>

</g><g id="g83"><path d="m 1398,5627 608.1111,790.8889" id="path85" style="fill:none;stroke:#000000;stroke-width:3"/><path d="m 2028.3333,6403.1111 0,0 1,1 1,1 1,1 0,1 1,1 1,2 0,1 0,1 1,1 0,2 0,1 0,1 0,1 1,2 -1,1 0,1 0,2 0,1 0,1 -1,1 0,2 0,1 -1,1 -1,1 0,1 -1,1 -1,1 0,1 -1,1 -1,1 -1,1 -1,1 0,0 -1,1 -1,1 -1,1 -2,0 -1,1 -1,0 -1,1 -1,0 -2,1 -1,0 -1,0 -2,0 -1,0 -1,0 -1,0 -2,0 -1,0 -1,0 -1,0 -2,-1 -1,0 -1,-1 -1,0 -1,-1 -2,0 -1,-1 -1,-1 -1,-1 -1,0 -1,-1 -1,-1 -1,-1 0,0 0,-1 -1,-2 -1,-1 -1,-1 0,-1 -1,-1 0,-1 -1,-2 0,-1 0,-1 0,-1 -1,-2 0,-1 0,-1 0,-2 0,-1 1,-1 0,-1 0,-2 0,-1 1,-1 0,-1 1,-1 0,-2 1,-1 1,-1 0,-1 1,-1 1,-1 1,-1 1,-1 1,-1 0,0 1,-1 1,0 1,-1 1,-1 2,0 1,-1 1,0 1,-1 2,0 1,0 1,-1 1,0 2,0 1,0 1,0 1,0 2,0 1,1 1,0 2,0 1,1 1,0 1,1 1,0 1,1 2,0 1,1 1,1 1,1 1,1 1,1 0,1 -20,17 20,-17 z" id="path87" style="fill:#000000"/></g><g transform="matrix(1.44668,0,0,1.44668,-1723.7909,-2953.8316)" id="g2551"><switch style="font-size:132px;font-weight:normal;fill:#000000;font-family:Arial"><text x="1249" y="6471" id="text89" style="font-size:132px;font-weight:normal;fill:#000000;font-family:Arial"><tspan id="trsvg19">Kr</tspan></text></switch>

<switch style="font-size:132px;font-weight:normal;fill:#000000;font-family:Arial"><text x="1249" y="6618" id="text91-de" style="font-size:132px;font-weight:normal;fill:#000000;font-family:Arial" systemLanguage="de"><tspan id="trsvg20-de">0,000114 %</tspan></text><text x="1249" y="6618" id="text91" style="font-size:132px;font-weight:normal;fill:#000000;font-family:Arial"><tspan id="trsvg20">0.000114 %</tspan></text></switch>

</g><g id="g93"><path d="m 1381,5638 -224.9989,818.0022" id="path95" style="fill:none;stroke:#000000;stroke-width:3"/><path d="m 1182.0011,6458.8595 0,0 -1,2 0,1 -1,1 0,2 -1,1 0,1 -1,1 -1,1 -1,1 0,1 -1,1 -1,1 -1,1 -1,0 -1,1 -1,1 -1,1 -2,0 -1,1 -1,0 -1,1 -1,0 -2,0 -1,1 -1,0 -1,0 -2,0 -1,0 -1,0 -2,0 -1,0 -1,-1 0,0 -2,0 -1,-1 -1,0 -2,-1 -1,0 -1,-1 -1,0 -1,-1 -1,-1 -1,-1 -1,-1 -1,-1 -1,-1 0,-1 -1,-1 -1,-1 -1,-1 0,-1 -1,-1 0,-1 -1,-2 0,-1 0,-1 -1,-1 0,-2 0,-1 0,-1 0,-1 0,-2 0,-1 1,-1 0,-2 0,0 0,-1 1,-1 0,-2 1,-1 0,-1 1,-1 0,-1 1,-1 1,-1 1,-1 1,-1 1,-1 1,-1 1,-1 1,-1 1,0 1,-1 1,-1 1,0 1,-1 2,0 1,0 1,-1 1,0 2,0 1,0 1,0 1,0 2,0 1,0 1,0 2,0 0,0 1,1 1,0 2,1 1,0 1,1 1,0 1,1 1,1 1,1 1,0 1,1 1,1 1,1 1,1 1,1 0,1 1,1 1,2 0,1 1,1 0,1 0,1 1,2 0,1 0,1 0,1 0,2 0,1 0,1 0,2 0,1 0,1 -26,-6 26,6 z" id="path97" style="fill:#000000"/></g><g transform="matrix(1.44668,0,0,1.44668,-519.47729,-3019.9049)" id="g2555"><switch style="font-size:132px;font-weight:normal;fill:#000000;font-family:Arial"><text x="410" y="6213" id="text99" style="font-size:132px;font-weight:normal;fill:#000000;font-family:Arial"><tspan id="trsvg21">H</tspan></text></switch>

<switch style="font-size:132px;font-weight:normal;fill:#000000;font-family:Arial"><text x="410" y="6373" id="text101-de" style="font-size:132px;font-weight:normal;fill:#000000;font-family:Arial" systemLanguage="de"><tspan id="trsvg22-de">0,000055 %</tspan></text><text x="410" y="6373" id="text101" style="font-size:132px;font-weight:normal;fill:#000000;font-family:Arial"><tspan id="trsvg22">0.000055 %</tspan></text></switch>

<switch style="font-size:80px;font-weight:normal;fill:#000000;font-family:Arial"><text x="505" y="6213" id="text103" style="font-size:80px;font-weight:normal;fill:#000000;font-family:Arial"><tspan id="trsvg23">2</tspan></text></switch>

</g><g id="g105"><path d="M 1370,5635 822.4236,5940.8674" id="path107" style="fill:none;stroke:#000000;stroke-width:3"/><path d="m 841.5663,5965.0101 0,0 -1,1 -1,1 -1,0 -2,1 -1,0 -1,1 -1,0 -1,1 -2,0 -1,0 -1,0 -2,1 -1,0 -1,0 -1,0 -2,-1 -1,0 -1,0 -1,0 -2,-1 -1,0 -1,-1 -1,0 -1,-1 -2,0 -1,-1 -1,-1 -1,-1 -1,-1 -1,0 -1,-1 0,-2 0,0 -1,-1 -1,-1 -1,-1 0,-1 -1,-1 0,-2 -1,-1 0,-1 0,-1 -1,-2 0,-1 0,-1 0,-1 0,-2 0,-1 0,-1 0,-1 1,-2 0,-1 0,-1 1,-1 0,-2 1,-1 0,-1 1,-1 1,-1 0,-1 1,-1 1,-1 1,-1 1,-1 1,-1 0,0 1,-1 1,0 1,-1 2,-1 1,0 1,-1 1,0 1,-1 2,0 1,0 1,0 2,-1 1,0 1,0 1,0 2,1 1,0 1,0 1,0 2,1 1,0 1,1 1,0 1,1 2,0 1,1 1,1 1,1 1,1 1,1 1,1 0,1 0,0 1,1 1,1 1,1 0,1 1,1 0,2 1,1 0,1 0,1 1,2 0,1 0,1 0,1 0,2 0,1 0,1 0,1 -1,2 0,1 0,1 -1,1 0,2 -1,1 0,1 -1,1 -1,1 0,1 -1,1 -1,1 -1,1 -1,1 -1,1 -16,-21 16,21 z" id="path109" style="fill:#000000"/></g><g transform="matrix(1.44668,0,0,1.44668,-357.32049,-1380.2207)" id="g2515"><switch style="font-size:132px;font-weight:normal;fill:#000000;font-family:Arial"><text x="311.15466" y="3086" id="text111-de" style="font-size:132px;font-weight:normal;fill:#000000;font-family:Arial" systemLanguage="de"><tspan id="trsvg24-de">0,04338 %</tspan></text><text x="311.15466" y="3086" id="text111" style="font-size:132px;font-weight:normal;fill:#000000;font-family:Arial"><tspan id="trsvg24">0.04338 %</tspan></text></switch>

</g><g id="g113"><path d="m 628,3765 -96,-568 -13,2 96,569 13,-3 z" id="path115" style="fill:#000000"/><path d="m 634,3843 27,-88 -80,14 53,74 0,0 z" id="path117" style="fill:#000000"/></g></g></g>
</svg>
