<?xml version="1.0" encoding="UTF-8"?> <!-- Generator: Adobe Illustrator 26.0.1, SVG Export Plug-In . SVG Version: 6.00 Build 0) --> <svg xmlns="http://www.w3.org/2000/svg" xmlns:xlink="http://www.w3.org/1999/xlink" version="1.1" id="Layer_1" x="0px" y="0px" viewBox="0 0 1144 759" style="enable-background:new 0 0 1144 759;" xml:space="preserve"> <style type="text/css"> .st0{fill:#FFC8BB;} .st1{fill:#C5C5C5;} .st2{fill:#FF9178;} .st3{fill:#F3F3F6;} .st4{fill:none;stroke:#1D1D1B;stroke-dasharray:3.001,2.001;} .st5{fill:none;stroke:#1D1D1B;} .st6{fill:#1D1D1B;} </style> <g> <path class="st0" d="M77.87,522.35l0.02-64h5c0,0,67.2,1.76,136,9.61c82.33,9.39,312.79,50.39,897.02,54.39H77.87z"></path> <path class="st1" d="M1114.88,468.46c-575.93-6.31-808.67-313.11-877-370.11c-76.52-63.83-160-63-160-63v52 c2.09,0,77.78,3.49,143,44c85.33,53,304.98,337.61,894,337.61V468.46z"></path> <path class="st1" d="M1114.88,468.96c-588.02,0-755-137.61-896-201.61c-55-24.96-133.54-25-141-25v89 c114.85,4.78,107.41,12.43,257,51.5c224,58.5,372.98,86.61,780,91.95V468.96z"></path> <path class="st1" d="M1114.88,474.1c-257.02-1.75-377-6.14-507-13.75c-111.89-6.55-337.05-37.53-406-45c-60-6.5-119-6-119-6h-5v49 h4.02c0,0,68.18,1.76,136.98,9.61c82.33,9.39,311.77,50.39,896,54.39V474.1z"></path> <path class="st2" d="M1114.88,666.35h-7c0,0-323-13-454-29s-153-21-217-36s-153-40-218-59c-37.09-10.84-86.98-18.32-141-20h1037 V666.35z"></path> <path class="st3" d="M1114.88,468.96c-588.02,0-755-137.61-896-201.61c-55-24.96-133.54-25-141-25v-155c2.09,0,77.78,3.49,143,44 C306.22,184.35,525.86,468.96,1114.88,468.96"></path> <path class="st3" d="M1114.88,474.1c-257.02-1.75-377-6.14-507-13.75c-111.89-6.55-337.05-37.53-406-45c-60-6.5-119.98-6-119.98-6 h-4.02v-79c114.85,4.78,107.41,12.43,257,51.5C558.88,440.35,707.86,468.76,1114.88,474.1"></path> </g> <line class="st4" x1="422.25" y1="0.6" x2="422.25" y2="723.8"></line> <line class="st4" x1="769.93" y1="1.2" x2="769.93" y2="724.4"></line> <line class="st4" x1="1115.38" y1="1.8" x2="1115.38" y2="725"></line> <line class="st5" x1="1114.88" y1="522.85" x2="77.88" y2="522.85"></line> <line class="st5" x1="78.38" y1="0" x2="78.38" y2="723.2"></line> <g> <path class="st6" d="M51.25,74.23c0,2.29-1.37,4.18-4.21,4.18c-2.61,0-3.78-1.64-4.16-3.22l1.33-0.45 c0.31,1.12,1.03,2.41,2.83,2.41c1.69,0,2.77-1.15,2.77-2.92c0-1.64-0.99-2.7-2.5-2.7c-1.69,0-2.3,1.26-2.48,1.75l-1.48-0.36 l0.54-6.5h6.63v1.3h-5.35l-0.32,3.55c0.59-0.61,1.48-0.99,2.63-0.99C49.95,70.27,51.25,72.02,51.25,74.23z"></path> <path class="st6" d="M53.39,72.32c0-3.49,1.49-6.09,4.81-6.09c3.31,0,4.81,2.59,4.81,6.09s-1.49,6.09-4.81,6.09 C54.88,78.41,53.39,75.82,53.39,72.32z M61.56,72.32c0-2.83-1.01-4.83-3.37-4.83c-2.34,0-3.37,2-3.37,4.83s1.04,4.83,3.37,4.83 C60.52,77.15,61.56,75.15,61.56,72.32z"></path> </g> <g> <path class="st6" d="M97.27,71.92h6.07v2.03h-8.26V62.14h8.03v2.02h-5.85v2.83h4.97v1.94h-4.95V71.92z"></path> <path class="st6" d="M112.68,68.55v5.4h-2.07v-4.93c0-1.24-0.67-1.71-1.48-1.71c-0.97,0-1.71,0.68-1.71,1.89v4.75h-2.07V65.6h1.94 v1.17c0.52-0.9,1.44-1.35,2.54-1.35C111.58,65.42,112.68,66.48,112.68,68.55z"></path> <path class="st6" d="M122.34,70.19h-5.67c0.09,1.37,0.81,2.2,1.98,2.2c0.83,0,1.46-0.45,1.84-1.28l1.67,0.95 c-0.56,1.1-1.67,2.07-3.55,2.07c-2.59,0-4.07-1.87-4.07-4.36s1.42-4.36,3.96-4.36c2.47,0,3.83,1.73,3.83,4.12V70.19z M116.69,68.73 h3.58c-0.14-1.04-0.85-1.58-1.76-1.58C117.59,67.15,116.89,67.69,116.69,68.73z"></path> <path class="st6" d="M129.09,65.42v2h-0.74c-1.33,0-1.98,0.61-1.98,2.05v4.48h-2.07V65.6h1.93v1.3c0.43-0.94,1.33-1.48,2.41-1.48 H129.09z"></path> <path class="st6" d="M137.59,66.93v1.17v0.04c0,1.57-1.13,2.75-3.53,2.75h-0.04h-0.85c-0.67,0-0.97,0.2-0.97,0.56 c0,0.36,0.31,0.54,0.97,0.54h2.14c2.45,0,3.53,0.97,3.53,2.57c0,2.12-1.85,2.81-4.5,2.81c-2.92,0-4.36-0.74-4.36-2.3 c0-0.88,0.49-1.46,1.44-1.75c-0.72-0.23-1.19-0.7-1.19-1.44c0-0.85,0.61-1.31,1.49-1.53c-0.79-0.5-1.17-1.3-1.17-2.2 c0-1.55,1.1-2.74,3.46-2.74c1.31,0,2.16,0.41,2.61,0.97c0.04-0.85,0.23-1.17,1.17-1.17h1.06v1.71H137.59z M133.86,73.72 c-1.17,0-1.82,0.34-1.82,1.1c0,0.65,0.47,1.15,2.3,1.15c1.76,0,2.41-0.41,2.41-1.17c0-0.74-0.61-1.08-1.76-1.08H133.86z M135.59,68.16c0-0.76-0.52-1.26-1.53-1.26c-0.97,0-1.49,0.49-1.49,1.26c0,0.77,0.52,1.26,1.49,1.26 C135.03,69.42,135.59,68.93,135.59,68.16z"></path> <path class="st6" d="M145.94,65.6h2.21l-4.05,10.35c-0.34,0.88-0.83,1.24-1.8,1.24h-2.02v-1.82h1.94l0.7-1.55l-3.55-8.23h2.29 l2.25,5.78L145.94,65.6z"></path> </g> <g> <path class="st6" d="M95.07,181.33v-11.81h2.2v11.81H95.07z"></path> <path class="st6" d="M107.13,175.93v5.4h-2.07v-4.93c0-1.24-0.67-1.71-1.48-1.71c-0.97,0-1.71,0.68-1.71,1.89v4.75H99.8v-8.35h1.94 v1.17c0.52-0.9,1.44-1.35,2.54-1.35C106.03,172.79,107.13,173.86,107.13,175.93z"></path> <path class="st6" d="M114.91,169.52h2.07v11.81h-1.93v-1.19c-0.52,0.85-1.37,1.37-2.52,1.37c-2.25,0-3.49-1.93-3.49-4.39 c0-2.56,1.42-4.32,3.49-4.32c1.06,0,1.87,0.43,2.38,1.22V169.52z M115,177.12c0-1.64-0.74-2.54-1.87-2.54 c-1.17,0-1.94,0.94-1.94,2.57c0,1.69,0.74,2.57,1.91,2.57C114.24,179.73,115,178.88,115,177.12z"></path> <path class="st6" d="M124.56,172.97h2.07v8.35h-1.94v-1.22c-0.5,0.9-1.39,1.4-2.56,1.4c-1.69,0-2.83-1.04-2.83-3.12v-5.42h2.07 v4.93c0,1.24,0.67,1.71,1.46,1.71c0.97,0,1.73-0.68,1.73-1.89V172.97z"></path> <path class="st6" d="M128.46,179.2l1.8-0.63c0.14,0.56,0.74,1.3,1.82,1.3c0.68,0,1.33-0.27,1.33-0.86c0-0.56-0.54-0.81-1.28-1.03 l-0.99-0.25c-1.39-0.36-2.41-1.12-2.41-2.5c0.02-1.6,1.42-2.43,3.19-2.43c2.05,0,3.1,1.1,3.38,2.03l-1.82,0.67 c-0.16-0.59-0.63-1.1-1.55-1.1c-0.67,0-1.12,0.27-1.12,0.76c0,0.5,0.45,0.74,1.1,0.94l1.06,0.27c1.39,0.36,2.52,1.1,2.52,2.56 c0,1.76-1.58,2.59-3.4,2.59C130.24,181.51,128.84,180.65,128.46,179.2z"></path> <path class="st6" d="M142.29,174.76h-2.2v4.79h2.2v1.78h-2.61c-1.12,0-1.66-0.54-1.66-1.64v-4.93h-1.39v-1.78h1.39v-2.2h2.07v2.2 h2.2V174.76z"></path> <path class="st6" d="M148.98,172.79v2h-0.74c-1.33,0-1.98,0.61-1.98,2.05v4.48h-2.07v-8.35h1.93v1.3c0.43-0.94,1.33-1.48,2.41-1.48 H148.98z"></path> <path class="st6" d="M156.45,172.97h2.21l-4.05,10.35c-0.34,0.88-0.83,1.24-1.8,1.24h-2.02v-1.82h1.94l0.7-1.55l-3.55-8.23h2.29 l2.25,5.78L156.45,172.97z"></path> </g> <g> <path class="st6" d="M104.15,296.35c0,2.56-2.02,3.28-4.2,3.28h-4.88v-11.81h4.66c2.52,0,3.93,1.12,3.94,3.1 c0,1.33-0.63,2.2-1.69,2.63C103.26,293.9,104.15,294.73,104.15,296.35z M97.27,289.76v3.1h2.16c1.22,0,2.02-0.49,2.02-1.58 s-0.77-1.51-2.09-1.51H97.27z M99.68,297.67c1.39,0,2.14-0.45,2.14-1.58c0-1.15-0.76-1.6-2.14-1.6h-2.41v3.19H99.68z"></path> <path class="st6" d="M111.4,291.27h2.07v8.35h-1.94v-1.22c-0.5,0.9-1.39,1.4-2.56,1.4c-1.69,0-2.83-1.04-2.83-3.12v-5.42h2.07v4.93 c0,1.24,0.67,1.71,1.46,1.71c0.97,0,1.73-0.68,1.73-1.89V291.27z"></path> <path class="st6" d="M115.73,289.82v-2h2.34v2H115.73z M115.88,299.63v-8.35h2.07v8.35H115.88z"></path> <path class="st6" d="M122.38,297.81h1.31v1.82h-1.73c-1.12,0-1.66-0.54-1.66-1.64v-10.17h2.07V297.81z"></path> <path class="st6" d="M130.84,287.82h2.07v11.81h-1.93v-1.19c-0.52,0.85-1.37,1.37-2.52,1.37c-2.25,0-3.49-1.93-3.49-4.39 c0-2.56,1.42-4.32,3.49-4.32c1.06,0,1.87,0.43,2.38,1.22V287.82z M130.93,295.42c0-1.64-0.74-2.54-1.87-2.54 c-1.17,0-1.94,0.94-1.94,2.57c0,1.69,0.74,2.57,1.91,2.57C130.17,298.03,130.93,297.18,130.93,295.42z"></path> <path class="st6" d="M135.16,289.82v-2h2.34v2H135.16z M135.3,299.63v-8.35h2.07v8.35H135.3z"></path> <path class="st6" d="M147.11,294.23v5.4h-2.07v-4.93c0-1.24-0.67-1.71-1.48-1.71c-0.97,0-1.71,0.68-1.71,1.89v4.75h-2.07v-8.35 h1.94v1.17c0.52-0.9,1.44-1.35,2.54-1.35C146.01,291.09,147.11,292.16,147.11,294.23z"></path> <path class="st6" d="M156.36,292.61v1.17v0.04c0,1.57-1.13,2.75-3.53,2.75h-0.04h-0.85c-0.67,0-0.97,0.2-0.97,0.56 c0,0.36,0.31,0.54,0.97,0.54h2.14c2.45,0,3.53,0.97,3.53,2.57c0,2.12-1.85,2.81-4.5,2.81c-2.92,0-4.36-0.74-4.36-2.3 c0-0.88,0.49-1.46,1.44-1.75c-0.72-0.23-1.19-0.7-1.19-1.44c0-0.85,0.61-1.31,1.49-1.53c-0.79-0.5-1.17-1.3-1.17-2.2 c0-1.55,1.1-2.74,3.46-2.74c1.31,0,2.16,0.41,2.61,0.97c0.04-0.85,0.23-1.17,1.17-1.17h1.06v1.71H156.36z M152.63,299.4 c-1.17,0-1.82,0.34-1.82,1.1c0,0.65,0.47,1.15,2.3,1.15c1.76,0,2.41-0.41,2.41-1.17c0-0.74-0.61-1.08-1.76-1.08H152.63z M154.36,293.83c0-0.76-0.52-1.26-1.53-1.26c-0.97,0-1.49,0.49-1.49,1.26c0,0.77,0.52,1.26,1.49,1.26 C153.8,295.09,154.36,294.61,154.36,293.83z"></path> <path class="st6" d="M158.32,297.5l1.8-0.63c0.14,0.56,0.74,1.3,1.82,1.3c0.68,0,1.33-0.27,1.33-0.86c0-0.56-0.54-0.81-1.28-1.03 l-0.99-0.25c-1.39-0.36-2.41-1.12-2.41-2.5c0.02-1.6,1.42-2.43,3.19-2.43c2.05,0,3.1,1.1,3.38,2.03l-1.82,0.67 c-0.16-0.59-0.63-1.1-1.55-1.1c-0.67,0-1.12,0.27-1.12,0.76c0,0.5,0.45,0.74,1.1,0.94l1.06,0.27c1.39,0.36,2.52,1.1,2.52,2.56 c0,1.76-1.58,2.59-3.4,2.59C160.1,299.81,158.7,298.94,158.32,297.5z"></path> </g> <path class="st6" d="M103.71,369.33h-3.8v10.05h-1.91v-10.05h-3.8v-1.76h9.51V369.33z M109.06,370.9v1.76h-0.63 c-1.4,0-2.14,0.68-2.14,2.21v4.5h-1.8v-8.3h1.69v1.28c0.45-0.92,1.35-1.46,2.41-1.46H109.06z M116.37,371.08h1.67v8.3h-1.64v-1.19 c-0.56,0.86-1.44,1.37-2.59,1.37c-2.3,0-3.55-1.91-3.55-4.38c0-2.48,1.39-4.29,3.58-4.29c1.08,0,1.93,0.41,2.52,1.22V371.08z M116.33,375.2c0-1.75-0.83-2.75-2.09-2.75c-1.28,0-2.14,1.03-2.14,2.77c0,1.82,0.85,2.77,2.12,2.77 C115.48,377.99,116.33,377.06,116.33,375.2z M127.71,374.03v5.35h-1.8v-4.99c0-1.33-0.76-1.84-1.62-1.84 c-1.03,0-1.89,0.72-1.89,2.02v4.81h-1.8v-8.3h1.69v1.21c0.54-0.95,1.49-1.39,2.57-1.39C126.59,370.9,127.71,371.96,127.71,374.03z M129.61,377.29l1.55-0.65c0.16,0.58,0.77,1.44,2,1.44c0.76,0,1.49-0.31,1.49-0.97c0-0.61-0.59-0.88-1.37-1.13l-0.99-0.27 c-1.31-0.36-2.38-1.04-2.38-2.45c0.02-1.53,1.31-2.36,3.06-2.36c2.05,0,2.99,1.13,3.28,1.94l-1.55,0.67 c-0.2-0.59-0.7-1.17-1.73-1.17c-0.74,0-1.24,0.31-1.24,0.85c0,0.56,0.52,0.81,1.21,1.03l1.03,0.29c1.33,0.38,2.5,1.04,2.5,2.52 c0,1.73-1.51,2.54-3.29,2.54C131.3,379.56,130.01,378.66,129.61,377.29z M146.35,375.18c0,2.47-1.24,4.38-3.53,4.38 c-1.06,0-1.91-0.45-2.47-1.26v4.32h-1.8v-11.54h1.69v1.28c0.49-0.92,1.39-1.46,2.59-1.46C145.04,370.9,146.34,372.7,146.35,375.18z M144.5,375.22c0-1.76-0.85-2.74-2.12-2.74c-1.26,0-2.11,0.99-2.11,2.72c0.02,1.87,0.85,2.77,2.11,2.77S144.5,377.06,144.5,375.22z M147.97,375.22c0-2.36,1.37-4.32,4.02-4.32c2.63,0,4,1.96,4,4.32c0,2.38-1.37,4.34-4,4.34 C149.34,379.56,147.97,377.6,147.97,375.22z M154.13,375.22c0-1.73-0.77-2.74-2.14-2.74c-1.39,0-2.16,1.01-2.16,2.74 c0,1.75,0.77,2.75,2.16,2.75C153.36,377.97,154.13,376.97,154.13,375.22z M162.63,370.9v1.76H162c-1.4,0-2.14,0.68-2.14,2.21v4.5 h-1.8v-8.3h1.69v1.28c0.45-0.92,1.35-1.46,2.41-1.46H162.63z M169.38,372.64h-2.23v5.15h2.23v1.58h-2.5c-1.03,0-1.53-0.5-1.53-1.51 v-5.22h-1.44v-1.57h1.44v-2.23h1.8v2.23h2.23V372.64z"></path> <g> <path class="st6" d="M102.7,431.82h-5.44v2.86H102v2.03h-4.74v4.88h-2.2v-11.81h7.63V431.82z"></path> <path class="st6" d="M103.73,437.42c0-2.39,1.37-4.36,4.07-4.36s4.07,1.96,4.07,4.36c0,2.4-1.37,4.36-4.07,4.36 S103.73,439.82,103.73,437.42z M109.74,437.42c0-1.67-0.7-2.57-1.94-2.57c-1.22,0-1.93,0.9-1.93,2.57c0,1.67,0.7,2.58,1.93,2.58 C109.04,440,109.74,439.1,109.74,437.42z"></path> <path class="st6" d="M113.36,437.42c0-2.39,1.37-4.36,4.07-4.36s4.07,1.96,4.07,4.36c0,2.4-1.37,4.36-4.07,4.36 S113.36,439.82,113.36,437.42z M119.37,437.42c0-1.67-0.7-2.57-1.94-2.57c-1.22,0-1.93,0.9-1.93,2.57c0,1.67,0.7,2.58,1.93,2.58 C118.67,440,119.37,439.1,119.37,437.42z"></path> <path class="st6" d="M128.89,429.79h2.07v11.81h-1.93v-1.19c-0.52,0.85-1.37,1.37-2.52,1.37c-2.25,0-3.49-1.93-3.49-4.39 c0-2.56,1.42-4.32,3.49-4.32c1.06,0,1.87,0.43,2.38,1.22V429.79z M128.98,437.39c0-1.64-0.74-2.54-1.87-2.54 c-1.17,0-1.94,0.94-1.94,2.57c0,1.69,0.74,2.58,1.91,2.58C128.23,440,128.98,439.15,128.98,437.39z"></path> </g> <path class="st6" d="M103.64,488.27h1.87v11.81h-2.81l-5.73-9.79l0.04,9.79h-1.87v-11.81h2.81l5.73,9.74L103.64,488.27z M113.88,491.78h1.67v8.3h-1.64v-1.19c-0.56,0.86-1.44,1.37-2.59,1.37c-2.3,0-3.55-1.91-3.55-4.38c0-2.48,1.39-4.29,3.58-4.29 c1.08,0,1.93,0.41,2.52,1.22V491.78z M113.85,495.9c0-1.75-0.83-2.75-2.09-2.75c-1.28,0-2.14,1.03-2.14,2.77 c0,1.82,0.85,2.77,2.12,2.77C113,498.69,113.85,497.76,113.85,495.9z M122.79,493.35h-2.23v5.15h2.23v1.58h-2.5 c-1.03,0-1.53-0.5-1.53-1.51v-5.22h-1.44v-1.57h1.44v-2.23h1.8v2.23h2.23V493.35z M130.05,491.78h1.8v8.3h-1.69v-1.21 c-0.56,0.92-1.46,1.39-2.56,1.39c-1.73,0-2.86-1.04-2.86-3.11v-5.37h1.8v4.99c0,1.31,0.76,1.84,1.62,1.84 c1.03,0,1.89-0.72,1.89-2.03V491.78z M138.97,491.6v1.76h-0.63c-1.4,0-2.14,0.68-2.14,2.21v4.5h-1.8v-8.3h1.69v1.28 c0.45-0.92,1.35-1.46,2.41-1.46H138.97z M147.78,496.26h-5.8c0.09,1.51,0.9,2.45,2.18,2.45c0.85,0,1.55-0.45,1.98-1.37l1.48,0.85 c-0.56,1.1-1.66,2.07-3.48,2.07c-2.54,0-4-1.87-4-4.34c0-2.41,1.39-4.32,3.89-4.32c2.47,0,3.75,1.78,3.75,4.07V496.26z M142.01,494.88h3.96c-0.16-1.13-0.94-1.75-1.94-1.75C143.04,493.13,142.21,493.74,142.01,494.88z M161.85,495.88 c0,2.47-1.22,4.38-3.53,4.38c-1.19,0-2.05-0.54-2.59-1.4v1.22h-1.67v-11.81h1.8v4.61c0.52-0.81,1.4-1.28,2.5-1.28 C160.56,491.6,161.83,493.4,161.85,495.88z M160,495.92c0-1.76-0.85-2.74-2.12-2.74c-1.26,0-2.11,0.97-2.11,2.72 c0.02,1.85,0.85,2.77,2.11,2.77S160,497.76,160,495.92z M169.61,491.78h1.67v8.3h-1.64v-1.19c-0.56,0.86-1.44,1.37-2.59,1.37 c-2.3,0-3.55-1.91-3.55-4.38c0-2.48,1.39-4.29,3.58-4.29c1.08,0,1.93,0.41,2.52,1.22V491.78z M169.57,495.9 c0-1.75-0.83-2.75-2.09-2.75c-1.28,0-2.14,1.03-2.14,2.77c0,1.82,0.85,2.77,2.12,2.77C168.73,498.69,169.57,497.76,169.57,495.9z M173.26,497.99l1.55-0.65c0.16,0.58,0.77,1.44,2,1.44c0.76,0,1.49-0.31,1.49-0.97c0-0.61-0.59-0.88-1.37-1.13l-0.99-0.27 c-1.31-0.36-2.38-1.04-2.38-2.45c0.02-1.53,1.31-2.36,3.06-2.36c2.05,0,2.99,1.13,3.28,1.94l-1.55,0.67 c-0.2-0.59-0.7-1.17-1.73-1.17c-0.74,0-1.24,0.31-1.24,0.85c0,0.56,0.52,0.81,1.21,1.03l1.03,0.29c1.33,0.38,2.5,1.04,2.5,2.52 c0,1.73-1.51,2.54-3.29,2.54C174.95,500.26,173.66,499.36,173.26,497.99z M189.36,496.26h-5.8c0.09,1.51,0.9,2.45,2.18,2.45 c0.85,0,1.55-0.45,1.98-1.37l1.48,0.85c-0.56,1.1-1.66,2.07-3.48,2.07c-2.54,0-4-1.87-4-4.34c0-2.41,1.39-4.32,3.89-4.32 c2.47,0,3.75,1.78,3.75,4.07V496.26z M183.6,494.88h3.96c-0.16-1.13-0.94-1.75-1.94-1.75C184.62,493.13,183.79,493.74,183.6,494.88z M196.99,488.27h1.8v11.81h-1.69v-1.22c-0.54,0.86-1.4,1.4-2.59,1.4c-2.23,0-3.51-1.91-3.51-4.36c0-2.5,1.39-4.3,3.55-4.3 c1.1,0,1.93,0.47,2.45,1.28V488.27z M197.08,495.88c0-1.73-0.83-2.7-2.09-2.7c-1.28,0-2.14,0.99-2.14,2.74 c0,1.82,0.85,2.75,2.12,2.75C196.23,498.67,197.06,497.77,197.08,495.88z M204.94,497.99l1.55-0.65c0.16,0.58,0.77,1.44,2,1.44 c0.76,0,1.49-0.31,1.49-0.97c0-0.61-0.59-0.88-1.37-1.13l-0.99-0.27c-1.31-0.36-2.38-1.04-2.38-2.45c0.02-1.53,1.31-2.36,3.06-2.36 c2.05,0,2.99,1.13,3.28,1.94l-1.55,0.67c-0.2-0.59-0.7-1.17-1.73-1.17c-0.74,0-1.24,0.31-1.24,0.85c0,0.56,0.52,0.81,1.21,1.03 l1.03,0.29c1.33,0.38,2.5,1.04,2.5,2.52c0,1.73-1.51,2.54-3.29,2.54C206.64,500.26,205.34,499.36,204.94,497.99z M213.4,495.92 c0-2.36,1.37-4.32,4.02-4.32c2.63,0,4,1.96,4,4.32c0,2.38-1.37,4.34-4,4.34C214.77,500.26,213.4,498.3,213.4,495.92z M219.56,495.92 c0-1.73-0.77-2.74-2.14-2.74c-1.39,0-2.16,1.01-2.16,2.74c0,1.75,0.77,2.75,2.16,2.75C218.79,498.67,219.56,497.67,219.56,495.92z M228.72,491.78h1.8v8.3h-1.69v-1.21c-0.56,0.92-1.46,1.39-2.56,1.39c-1.73,0-2.86-1.04-2.86-3.11v-5.37h1.8v4.99 c0,1.31,0.76,1.84,1.62,1.84c1.03,0,1.89-0.72,1.89-2.03V491.78z M237.65,491.6v1.76h-0.63c-1.4,0-2.14,0.68-2.14,2.21v4.5h-1.8 v-8.3h1.69v1.28c0.45-0.92,1.35-1.46,2.41-1.46H237.65z M238.82,495.92c0-2.45,1.42-4.32,3.98-4.32c1.75,0,2.86,0.88,3.44,2.25 l-1.57,0.68c-0.41-0.97-1.1-1.35-1.87-1.35c-1.26,0-2.12,1.01-2.12,2.74c0,1.75,0.85,2.75,2.12,2.75c0.79,0,1.46-0.36,1.89-1.35 l1.55,0.67c-0.58,1.37-1.66,2.27-3.46,2.27C240.24,500.26,238.82,498.37,238.82,495.92z M255.34,496.26h-5.8 c0.09,1.51,0.9,2.45,2.18,2.45c0.85,0,1.55-0.45,1.98-1.37l1.48,0.85c-0.56,1.1-1.66,2.07-3.48,2.07c-2.54,0-4-1.87-4-4.34 c0-2.41,1.39-4.32,3.89-4.32c2.47,0,3.75,1.78,3.75,4.07V496.26z M249.58,494.88h3.96c-0.16-1.13-0.94-1.75-1.94-1.75 C250.61,493.13,249.78,493.74,249.58,494.88z M256.85,497.99l1.55-0.65c0.16,0.58,0.77,1.44,2,1.44c0.76,0,1.49-0.31,1.49-0.97 c0-0.61-0.59-0.88-1.37-1.13l-0.99-0.27c-1.31-0.36-2.38-1.04-2.38-2.45c0.02-1.53,1.31-2.36,3.06-2.36c2.05,0,2.99,1.13,3.28,1.94 l-1.55,0.67c-0.2-0.59-0.7-1.17-1.73-1.17c-0.74,0-1.24,0.31-1.24,0.85c0,0.56,0.52,0.81,1.21,1.03l1.03,0.29 c1.33,0.38,2.5,1.04,2.5,2.52c0,1.73-1.51,2.54-3.29,2.54C258.55,500.26,257.25,499.36,256.85,497.99z"></path> <g> <path class="st6" d="M51.75,163.21v1.3h-1.98v3.31h-1.39v-3.31h-6.12v-1.75l5.44-6.75h2.07v7.2H51.75z M43.51,163.21h4.88v-6.03 L43.51,163.21z"></path> <path class="st6" d="M53.39,161.92c0-3.49,1.49-6.09,4.81-6.09c3.31,0,4.81,2.59,4.81,6.09S61.51,168,58.2,168 C54.88,168,53.39,165.41,53.39,161.92z M61.56,161.92c0-2.83-1.01-4.83-3.37-4.83c-2.34,0-3.37,2-3.37,4.83s1.04,4.83,3.37,4.83 C60.52,166.74,61.56,164.74,61.56,161.92z"></path> </g> <g> <path class="st6" d="M51.32,254.14c0,2.29-1.93,3.46-4.34,3.46c-2.9,0-4.18-1.73-4.38-3.76l1.44-0.36c0.09,1.4,0.83,2.86,2.93,2.86 c1.48,0,2.86-0.81,2.86-2.29c0-1.42-1.3-2.25-3.04-2.25h-0.86v-1.35h1.01c1.17,0,2.45-0.68,2.45-1.91c0-1.01-0.85-1.85-2.29-1.85 c-1.6,0-2.61,1.03-2.65,2.52l-1.44-0.27c0.14-2.11,1.62-3.51,4.12-3.51c2.48,0,3.73,1.42,3.73,3.01c0,1.24-0.72,2.14-2.03,2.57 C50.6,251.45,51.32,252.75,51.32,254.14z"></path> <path class="st6" d="M53.39,251.51c0-3.49,1.49-6.09,4.81-6.09c3.31,0,4.81,2.59,4.81,6.09s-1.49,6.09-4.81,6.09 C54.88,257.59,53.39,255,53.39,251.51z M61.56,251.51c0-2.83-1.01-4.83-3.37-4.83c-2.34,0-3.37,2-3.37,4.83s1.04,4.83,3.37,4.83 C60.52,256.33,61.56,254.34,61.56,251.51z"></path> </g> <g> <path class="st6" d="M44.68,345.71h6.63v1.3h-8.03v-1.85l3.04-2.14c2.34-1.64,3.44-2.57,3.44-4.23c0-1.62-1.12-2.43-2.68-2.43 c-1.89,0-2.77,1.24-2.97,3.19l-1.44-0.34c0.22-2.34,1.57-4.18,4.41-4.18c2.59,0,4.2,1.48,4.2,3.75c0,1.94-1.13,3.17-4.2,5.29 L44.68,345.71z"></path> <path class="st6" d="M53.39,341.1c0-3.49,1.49-6.09,4.81-6.09c3.31,0,4.81,2.59,4.81,6.09s-1.49,6.09-4.81,6.09 C54.88,347.19,53.39,344.59,53.39,341.1z M61.56,341.1c0-2.83-1.01-4.83-3.37-4.83c-2.34,0-3.37,2-3.37,4.83s1.04,4.83,3.37,4.83 C60.52,345.93,61.56,343.93,61.56,341.1z"></path> </g> <g> <path class="st6" d="M50.83,424.79v11.81h-1.42v-10.21c-0.76,1.19-1.98,1.76-3.4,1.93l-0.22-1.37c1.44-0.13,2.54-0.88,3.26-2.16 H50.83z"></path> <path class="st6" d="M53.39,430.69c0-3.49,1.49-6.08,4.81-6.08c3.31,0,4.81,2.59,4.81,6.08c0,3.49-1.49,6.09-4.81,6.09 C54.88,436.78,53.39,434.19,53.39,430.69z M61.56,430.69c0-2.83-1.01-4.83-3.37-4.83c-2.34,0-3.37,2-3.37,4.83 c0,2.83,1.04,4.83,3.37,4.83C60.52,435.52,61.56,433.52,61.56,430.69z"></path> </g> <g> <path class="st6" d="M53.39,520.29c0-3.49,1.49-6.09,4.81-6.09c3.31,0,4.81,2.59,4.81,6.09c0,3.49-1.49,6.08-4.81,6.08 C54.88,526.37,53.39,523.78,53.39,520.29z M61.56,520.29c0-2.83-1.01-4.83-3.37-4.83c-2.34,0-3.37,2-3.37,4.83 c0,2.83,1.04,4.83,3.37,4.83C60.52,525.11,61.56,523.11,61.56,520.29z"></path> </g> <path class="st6" d="M898.23,590.51c0-3.49,2.27-6.09,5.74-6.09c2.7,0,4.43,1.46,5.15,3.76l-1.93,0.67 c-0.49-1.58-1.46-2.66-3.22-2.66c-2.21,0-3.73,1.73-3.73,4.32s1.44,4.32,3.67,4.32c1.76,0,2.86-1.12,3.37-2.72l1.87,0.81 c-0.79,2.23-2.63,3.67-5.24,3.67C900.43,596.59,898.23,594,898.23,590.51z M916.92,588.11h1.67v8.3h-1.64v-1.19 c-0.56,0.86-1.44,1.37-2.59,1.37c-2.3,0-3.55-1.91-3.55-4.38c0-2.48,1.39-4.29,3.58-4.29c1.08,0,1.93,0.41,2.52,1.22V588.11z M916.88,592.23c0-1.75-0.83-2.75-2.09-2.75c-1.28,0-2.14,1.03-2.14,2.77c0,1.82,0.85,2.77,2.12,2.77 C916.03,595.02,916.88,594.09,916.88,592.23z M925.72,587.93v1.76h-0.63c-1.4,0-2.14,0.68-2.14,2.21v4.5h-1.8v-8.3h1.69v1.28 c0.45-0.92,1.35-1.46,2.41-1.46H925.72z M935.26,592.22c0,2.47-1.22,4.38-3.53,4.38c-1.19,0-2.05-0.54-2.59-1.4v1.22h-1.67V584.6 h1.8v4.61c0.52-0.81,1.4-1.28,2.5-1.28C933.96,587.93,935.24,589.73,935.26,592.22z M933.4,592.25c0-1.76-0.85-2.74-2.12-2.74 c-1.26,0-2.11,0.97-2.11,2.72c0.02,1.85,0.85,2.77,2.11,2.77C932.54,595.01,933.4,594.09,933.4,592.25z M936.88,592.25 c0-2.36,1.37-4.32,4.02-4.32c2.63,0,4,1.96,4,4.32c0,2.38-1.37,4.34-4,4.34C938.25,596.59,936.88,594.63,936.88,592.25z M943.03,592.25c0-1.73-0.77-2.74-2.14-2.74c-1.39,0-2.16,1.01-2.16,2.74c0,1.75,0.77,2.75,2.16,2.75 C942.26,595.01,943.03,594,943.03,592.25z M954.07,591.06v5.35h-1.8v-4.99c0-1.33-0.76-1.84-1.62-1.84c-1.03,0-1.89,0.72-1.89,2.02 v4.81h-1.8v-8.3h1.69v1.21c0.54-0.95,1.49-1.39,2.57-1.39C952.95,587.93,954.07,588.99,954.07,591.06z M960.17,594.32l1.55-0.65 c0.16,0.58,0.77,1.44,2,1.44c0.76,0,1.49-0.31,1.49-0.97c0-0.61-0.59-0.88-1.37-1.13l-0.99-0.27c-1.31-0.36-2.38-1.04-2.38-2.45 c0.02-1.53,1.31-2.36,3.06-2.36c2.05,0,2.99,1.13,3.28,1.94l-1.55,0.67c-0.2-0.59-0.7-1.17-1.73-1.17c-0.74,0-1.24,0.31-1.24,0.85 c0,0.56,0.52,0.81,1.21,1.03l1.03,0.29c1.33,0.38,2.5,1.04,2.5,2.52c0,1.73-1.51,2.54-3.3,2.54 C961.86,596.59,960.56,595.69,960.17,594.32z M968.97,586.49v-1.89h2.11v1.89H968.97z M969.11,596.41v-8.3h1.8v8.3H969.11z M980.58,591.06v5.35h-1.8v-4.99c0-1.33-0.76-1.84-1.62-1.84c-1.03,0-1.89,0.72-1.89,2.02v4.81h-1.8v-8.3h1.69v1.21 c0.54-0.95,1.49-1.39,2.57-1.39C979.47,587.93,980.58,588.99,980.58,591.06z M987.19,591.37l3.51,4.93v0.11h-2.07l-2.74-3.87 l-1.03,0.95v2.92h-1.8V584.6h1.8v6.91l3.67-3.4h2.11v0.11L987.19,591.37z M991.61,594.32l1.55-0.65c0.16,0.58,0.77,1.44,2,1.44 c0.76,0,1.49-0.31,1.49-0.97c0-0.61-0.59-0.88-1.37-1.13l-0.99-0.27c-1.31-0.36-2.38-1.04-2.38-2.45c0.02-1.53,1.31-2.36,3.06-2.36 c2.05,0,2.99,1.13,3.28,1.94l-1.55,0.67c-0.2-0.59-0.7-1.17-1.73-1.17c-0.74,0-1.24,0.31-1.24,0.85c0,0.56,0.52,0.81,1.21,1.03 l1.03,0.29c1.33,0.38,2.5,1.04,2.5,2.52c0,1.73-1.51,2.54-3.3,2.54C993.31,596.59,992.01,595.69,991.61,594.32z M1010.41,588.11 h1.67v8.3h-1.64v-1.19c-0.56,0.86-1.44,1.37-2.59,1.37c-2.3,0-3.55-1.91-3.55-4.38c0-2.48,1.39-4.29,3.58-4.29 c1.08,0,1.93,0.41,2.52,1.22V588.11z M1010.37,592.23c0-1.75-0.83-2.75-2.09-2.75c-1.28,0-2.14,1.03-2.14,2.77 c0,1.82,0.85,2.77,2.12,2.77C1009.53,595.02,1010.37,594.09,1010.37,592.23z M1021.75,591.06v5.35h-1.8v-4.99 c0-1.33-0.76-1.84-1.62-1.84c-1.03,0-1.89,0.72-1.89,2.02v4.81h-1.8v-8.3h1.69v1.21c0.54-0.95,1.49-1.39,2.57-1.39 C1020.63,587.93,1021.75,588.99,1021.75,591.06z M1029.78,584.6h1.8v11.81h-1.69v-1.22c-0.54,0.86-1.4,1.4-2.59,1.4 c-2.23,0-3.51-1.91-3.51-4.36c0-2.5,1.39-4.3,3.55-4.3c1.1,0,1.93,0.47,2.45,1.28V584.6z M1029.87,592.22c0-1.73-0.83-2.7-2.09-2.7 c-1.28,0-2.14,0.99-2.14,2.74c0,1.82,0.85,2.75,2.12,2.75C1029.02,595.01,1029.85,594.11,1029.87,592.22z M1042.88,587.93v1.76 h-0.63c-1.4,0-2.14,0.68-2.14,2.21v4.5h-1.8v-8.3h1.69v1.28c0.45-0.92,1.35-1.46,2.41-1.46H1042.88z M1051.68,592.59h-5.8 c0.09,1.51,0.9,2.45,2.18,2.45c0.85,0,1.55-0.45,1.98-1.37l1.48,0.85c-0.56,1.1-1.66,2.07-3.48,2.07c-2.54,0-4-1.87-4-4.34 c0-2.41,1.39-4.32,3.89-4.32c2.47,0,3.75,1.78,3.75,4.07V592.59z M1045.92,591.21h3.96c-0.16-1.13-0.94-1.75-1.94-1.75 C1046.95,589.46,1046.12,590.07,1045.92,591.21z M1065.99,591.05v5.37h-1.8v-4.99c0-1.33-0.74-1.84-1.57-1.84 c-0.99,0-1.84,0.72-1.84,2.02v4.81h-1.8v-4.99c0-1.33-0.74-1.84-1.57-1.84c-0.99,0-1.85,0.72-1.85,2.02v4.81h-1.8v-8.3h1.69v1.15 c0.54-0.9,1.44-1.33,2.48-1.33c1.15,0,2.07,0.49,2.5,1.49c0.56-1.03,1.58-1.49,2.7-1.49 C1064.84,587.93,1065.99,588.96,1065.99,591.05z M1067.99,592.25c0-2.36,1.37-4.32,4.02-4.32c2.63,0,4,1.96,4,4.32 c0,2.38-1.37,4.34-4,4.34C1069.36,596.59,1067.99,594.63,1067.99,592.25z M1074.15,592.25c0-1.73-0.77-2.74-2.14-2.74 c-1.39,0-2.16,1.01-2.16,2.74c0,1.75,0.77,2.75,2.16,2.75C1073.37,595.01,1074.15,594,1074.15,592.25z M1083.29,588.11h1.85 l-2.97,8.3h-2.45l-2.79-8.3h1.89l2.14,6.73L1083.29,588.11z M1092.22,588.11h1.67v8.3h-1.64v-1.19c-0.56,0.86-1.44,1.37-2.59,1.37 c-2.3,0-3.55-1.91-3.55-4.38c0-2.48,1.39-4.29,3.58-4.29c1.08,0,1.93,0.41,2.52,1.22V588.11z M1092.18,592.23 c0-1.75-0.83-2.75-2.09-2.75c-1.28,0-2.14,1.03-2.14,2.77c0,1.82,0.85,2.77,2.12,2.77C1091.34,595.02,1092.18,594.09,1092.18,592.23 z M1098.19,594.81h1.33v1.6h-1.62c-1.01,0-1.51-0.5-1.51-1.51v-10.3h1.8V594.81z"></path> <g> <path class="st6" d="M39.75,612.17v-1.24h4.05v1.24H39.75z"></path> <path class="st6" d="M50.82,603.97v11.81h-1.42v-10.21c-0.76,1.19-1.98,1.76-3.4,1.93l-0.22-1.37c1.44-0.13,2.54-0.88,3.26-2.16 H50.82z"></path> <path class="st6" d="M53.37,609.88c0-3.49,1.49-6.08,4.81-6.08c3.31,0,4.81,2.59,4.81,6.08c0,3.49-1.49,6.09-4.81,6.09 C54.87,615.97,53.37,613.37,53.37,609.88z M61.54,609.88c0-2.83-1.01-4.83-3.37-4.83c-2.34,0-3.37,2-3.37,4.83 c0,2.83,1.04,4.83,3.37,4.83C60.5,614.71,61.54,612.71,61.54,609.88z"></path> </g> <g> <path class="st6" d="M36.27,703.76v-1.24h4.05v1.24H36.27z"></path> <path class="st6" d="M44.66,706.08h6.63v1.3h-8.03v-1.85l3.04-2.14c2.34-1.64,3.44-2.58,3.44-4.23c0-1.62-1.12-2.43-2.68-2.43 c-1.89,0-2.77,1.24-2.97,3.19l-1.44-0.34c0.22-2.34,1.57-4.18,4.41-4.18c2.59,0,4.2,1.48,4.2,3.75c0,1.94-1.13,3.17-4.2,5.29 L44.66,706.08z"></path> <path class="st6" d="M53.37,701.47c0-3.49,1.49-6.08,4.81-6.08c3.31,0,4.81,2.59,4.81,6.08c0,3.49-1.49,6.09-4.81,6.09 C54.87,707.56,53.37,704.97,53.37,701.47z M61.54,701.47c0-2.83-1.01-4.83-3.37-4.83c-2.34,0-3.37,2-3.37,4.83 c0,2.83,1.04,4.83,3.37,4.83C60.5,706.3,61.54,704.3,61.54,701.47z"></path> </g> <g> <path class="st6" d="M52.65,756.34h6.95v2.44H49.33v-2.84l2.88-1.98c3.06-2.07,4.6-3.19,4.6-5c0-1.47-1.01-2.38-2.6-2.38 c-1.94,0-2.71,1.39-2.88,3.19l-2.68-0.53c0.18-2.97,1.96-5.13,5.59-5.13c3.41,0,5.39,1.85,5.39,4.71c0,2.27-1.34,3.81-4.82,6.07 L52.65,756.34z"></path> <path class="st6" d="M61.91,751.56c0-4.27,2-7.44,6.05-7.44c4.05,0,6.05,3.17,6.05,7.44s-2,7.44-6.05,7.44 C63.91,759,61.91,755.83,61.91,751.56z M71.24,751.56c0-3.01-0.97-5.02-3.28-5.02c-2.31,0-3.28,2-3.28,5.02s0.97,5.02,3.28,5.02 C70.25,756.58,71.24,754.58,71.24,751.56z"></path> <path class="st6" d="M80.13,756.34h6.95v2.44H76.8v-2.84l2.88-1.98c3.06-2.07,4.6-3.19,4.6-5c0-1.47-1.01-2.38-2.6-2.38 c-1.94,0-2.71,1.39-2.88,3.19l-2.68-0.53c0.18-2.97,1.96-5.13,5.59-5.13c3.41,0,5.39,1.85,5.39,4.71c0,2.27-1.34,3.81-4.82,6.07 L80.13,756.34z"></path> <path class="st6" d="M89.39,751.56c0-4.27,2-7.44,6.05-7.44c4.05,0,6.05,3.17,6.05,7.44s-2,7.44-6.05,7.44 C91.39,759,89.39,755.83,89.39,751.56z M98.72,751.56c0-3.01-0.97-5.02-3.28-5.02c-2.31,0-3.28,2-3.28,5.02s0.97,5.02,3.28,5.02 C97.73,756.58,98.72,754.58,98.72,751.56z"></path> </g> <g> <path class="st6" d="M400.17,756.34h6.95v2.44h-10.28v-2.84l2.88-1.98c3.06-2.07,4.6-3.19,4.6-5c0-1.47-1.01-2.38-2.6-2.38 c-1.94,0-2.71,1.39-2.88,3.19l-2.68-0.53c0.18-2.97,1.96-5.13,5.59-5.13c3.41,0,5.39,1.85,5.39,4.71c0,2.27-1.34,3.81-4.82,6.07 L400.17,756.34z"></path> <path class="st6" d="M409.43,751.56c0-4.27,2-7.44,6.05-7.44c4.05,0,6.05,3.17,6.05,7.44s-2,7.44-6.05,7.44 C411.43,759,409.43,755.83,409.43,751.56z M418.76,751.56c0-3.01-0.97-5.02-3.28-5.02c-2.31,0-3.28,2-3.28,5.02 s0.97,5.02,3.28,5.02C417.77,756.58,418.76,754.58,418.76,751.56z"></path> <path class="st6" d="M434.66,754.67c0,2.86-2.49,4.33-5.48,4.33c-3.59,0-5.32-1.96-5.59-4.73l2.66-0.57 c0.07,1.56,0.95,2.9,2.88,2.9c1.45,0,2.75-0.79,2.75-2.24c0-1.43-1.3-2.22-3.21-2.22h-0.79v-1.87h0.92c1.45,0,2.64-0.7,2.64-1.91 c0-1.03-0.88-1.83-2.22-1.83c-1.45,0-2.44,0.92-2.51,2.4l-2.66-0.51c0.22-2.35,1.87-4.29,5.21-4.29c3.19,0,4.91,1.74,4.91,3.79 c0,1.5-0.84,2.53-2.24,3.06C433.8,751.56,434.66,752.97,434.66,754.67z"></path> <path class="st6" d="M436.86,751.56c0-4.27,2-7.44,6.05-7.44c4.05,0,6.05,3.17,6.05,7.44s-2,7.44-6.05,7.44 C438.86,759,436.86,755.83,436.86,751.56z M446.19,751.56c0-3.01-0.97-5.02-3.28-5.02c-2.31,0-3.28,2-3.28,5.02 s0.97,5.02,3.28,5.02C445.2,756.58,446.19,754.58,446.19,751.56z"></path> </g> <g> <path class="st6" d="M747.24,756.34h6.95v2.44h-10.28v-2.84l2.88-1.98c3.06-2.07,4.6-3.19,4.6-5c0-1.47-1.01-2.38-2.6-2.38 c-1.94,0-2.71,1.39-2.88,3.19l-2.68-0.53c0.18-2.97,1.96-5.13,5.59-5.13c3.41,0,5.39,1.85,5.39,4.71c0,2.27-1.34,3.81-4.82,6.07 L747.24,756.34z"></path> <path class="st6" d="M756.5,751.56c0-4.27,2-7.44,6.05-7.44s6.05,3.17,6.05,7.44s-2,7.44-6.05,7.44S756.5,755.83,756.5,751.56z M765.83,751.56c0-3.01-0.97-5.02-3.28-5.02s-3.28,2-3.28,5.02s0.97,5.02,3.28,5.02C764.84,756.58,765.83,754.58,765.83,751.56z"></path> <path class="st6" d="M782.79,752.89v2.29h-2.16v3.61h-2.62v-3.61h-7.33v-2.79l6.23-8.03h3.72v8.54H782.79z M773.31,752.89h4.71 v-6.03L773.31,752.89z"></path> <path class="st6" d="M784.62,751.56c0-4.27,2-7.44,6.05-7.44s6.05,3.17,6.05,7.44s-2,7.44-6.05,7.44S784.62,755.83,784.62,751.56z M793.95,751.56c0-3.01-0.97-5.02-3.28-5.02s-3.28,2-3.28,5.02s0.97,5.02,3.28,5.02C792.96,756.58,793.95,754.58,793.95,751.56z"></path> </g> <g> <path class="st6" d="M1095.24,756.34h6.95v2.44h-10.28v-2.84l2.88-1.98c3.06-2.07,4.6-3.19,4.6-5c0-1.47-1.01-2.38-2.6-2.38 c-1.94,0-2.71,1.39-2.88,3.19l-2.68-0.53c0.18-2.97,1.96-5.13,5.59-5.13c3.41,0,5.39,1.85,5.39,4.71c0,2.27-1.34,3.81-4.82,6.07 L1095.24,756.34z"></path> <path class="st6" d="M1104.5,751.56c0-4.27,2-7.44,6.05-7.44s6.05,3.17,6.05,7.44s-2,7.44-6.05,7.44S1104.5,755.83,1104.5,751.56z M1113.83,751.56c0-3.01-0.97-5.02-3.28-5.02s-3.28,2-3.28,5.02s0.97,5.02,3.28,5.02C1112.84,756.58,1113.83,754.58,1113.83,751.56 z"></path> <path class="st6" d="M1129.63,753.9c0,2.93-1.91,5.1-5.41,5.1c-3.45,0-4.95-2.11-5.46-3.98l2.53-0.9c0.33,1.12,1.1,2.49,2.93,2.49 c1.61,0,2.71-1.08,2.71-2.75c0-1.58-1.01-2.55-2.46-2.55c-1.52,0-2.18,1.06-2.49,1.54l-2.57-0.81l0.79-7.68h8.45v2.44h-6.12 l-0.4,3.26c0.7-0.57,1.65-0.92,2.86-0.92C1127.89,749.12,1129.63,751.1,1129.63,753.9z"></path> <path class="st6" d="M1131.89,751.56c0-4.27,2-7.44,6.05-7.44s6.05,3.17,6.05,7.44s-2,7.44-6.05,7.44 S1131.89,755.83,1131.89,751.56z M1141.22,751.56c0-3.01-0.97-5.02-3.28-5.02s-3.28,2-3.28,5.02s0.97,5.02,3.28,5.02 C1140.23,756.58,1141.22,754.58,1141.22,751.56z"></path> </g> <g> <path class="st6" d="M14.65,443.11v2l-1.96,0.09c1.36,0.99,2.18,2.51,2.18,4.47c0,3.96-3.06,6.51-7.44,6.51 c-4.29,0-7.44-2.68-7.44-6.95c0-2.9,1.3-4.88,3.39-5.92l1.39,2.46c-1.19,0.55-2.31,1.61-2.31,3.45c0,2.44,1.94,4.12,4.97,4.12 c3.04,0,4.97-1.65,4.97-4.09c0-1.69-0.97-3.17-3.28-3.59v3.85H7.08v-6.4H14.65z"></path> <path class="st6" d="M14.65,440.43H0.22v-2.68h5.85v-7.02H0.22v-2.71h14.43v2.71H8.56v7.02h6.09V440.43z"></path> <path class="st6" d="M14.65,412.66v2l-1.96,0.09c1.36,0.99,2.18,2.51,2.18,4.47c0,3.96-3.06,6.51-7.44,6.51 c-4.29,0-7.44-2.68-7.44-6.95c0-2.9,1.3-4.88,3.39-5.92l1.39,2.46c-1.19,0.55-2.31,1.61-2.31,3.46c0,2.44,1.94,4.11,4.97,4.11 c3.04,0,4.97-1.65,4.97-4.09c0-1.69-0.97-3.17-3.28-3.59v3.85H7.08v-6.4H14.65z"></path> <path class="st6" d="M12.17,402.67v-7.42h2.49v10.1H0.22v-9.81h2.46v7.15h3.45v-6.07h2.38v6.05H12.17z"></path> <path class="st6" d="M8.03,378.08h6.62v2.53H8.6c-1.5,0-2.07,0.79-2.07,1.72c0,1.14,0.84,2.05,2.29,2.05h5.83v2.53H8.6 c-1.5,0-2.07,0.81-2.07,1.74c0,1.14,0.84,2.05,2.29,2.05h5.83v2.53H4.45v-2.35H5.9c-1.1-0.62-1.67-1.69-1.67-3.04 c0-1.37,0.59-2.49,1.78-3.04c-1.21-0.64-1.78-1.85-1.78-3.23C4.22,379.48,5.48,378.08,8.03,378.08z"></path> <path class="st6" d="M2.66,375.84H0.22v-2.86h2.44V375.84z M14.65,375.66H4.45v-2.53h10.21V375.66z"></path> <path class="st6" d="M12.06,371.33l-0.77-2.2c0.68-0.18,1.58-0.9,1.58-2.22c0-0.84-0.33-1.63-1.06-1.63 c-0.68,0-0.99,0.66-1.25,1.56l-0.31,1.21C9.81,369.74,8.89,371,7.2,371c-1.96-0.02-2.97-1.74-2.97-3.89c0-2.51,1.34-3.78,2.49-4.14 l0.81,2.22c-0.73,0.2-1.34,0.77-1.34,1.89c0,0.81,0.33,1.36,0.92,1.36c0.62,0,0.9-0.55,1.14-1.34l0.33-1.3 c0.44-1.69,1.34-3.08,3.12-3.08c2.16,0,3.17,1.94,3.17,4.16C14.87,369.15,13.82,370.86,12.06,371.33z"></path> <path class="st6" d="M12.06,361.51l-0.77-2.2c0.68-0.18,1.58-0.9,1.58-2.22c0-0.84-0.33-1.63-1.06-1.63 c-0.68,0-0.99,0.66-1.25,1.56l-0.31,1.21c-0.44,1.69-1.36,2.95-3.06,2.95c-1.96-0.02-2.97-1.74-2.97-3.9 c0-2.51,1.34-3.78,2.49-4.14l0.81,2.22c-0.73,0.2-1.34,0.77-1.34,1.89c0,0.81,0.33,1.36,0.92,1.36c0.62,0,0.9-0.55,1.14-1.34 l0.33-1.3c0.44-1.69,1.34-3.08,3.12-3.08c2.16,0,3.17,1.94,3.17,4.16C14.87,359.34,13.82,361.05,12.06,361.51z"></path> <path class="st6" d="M2.66,351.17H0.22v-2.86h2.44V351.17z M14.65,351H4.45v-2.53h10.21V351z"></path> <path class="st6" d="M9.55,346.53c-2.93,0-5.33-1.67-5.33-4.97s2.4-4.97,5.33-4.97c2.93,0,5.32,1.67,5.32,4.97 S12.48,346.53,9.55,346.53z M9.55,339.18c-2.05,0-3.15,0.86-3.15,2.38c0,1.5,1.1,2.35,3.15,2.35c2.05,0,3.15-0.86,3.15-2.35 C12.7,340.04,11.6,339.18,9.55,339.18z"></path> <path class="st6" d="M8.05,325.67h6.6v2.53H8.62c-1.52,0-2.09,0.81-2.09,1.8c0,1.19,0.84,2.09,2.31,2.09h5.81v2.53H4.45v-2.38h1.43 c-1.1-0.64-1.65-1.76-1.65-3.1C4.22,327.02,5.52,325.67,8.05,325.67z"></path> <path class="st6" d="M12.06,323.96l-0.77-2.2c0.68-0.18,1.58-0.9,1.58-2.22c0-0.84-0.33-1.63-1.06-1.63 c-0.68,0-0.99,0.66-1.25,1.56l-0.31,1.21c-0.44,1.69-1.36,2.95-3.06,2.95c-1.96-0.02-2.97-1.74-2.97-3.9 c0-2.51,1.34-3.78,2.49-4.14l0.81,2.22c-0.73,0.2-1.34,0.77-1.34,1.89c0,0.81,0.33,1.36,0.92,1.36c0.62,0,0.9-0.55,1.14-1.34 l0.33-1.3c0.44-1.69,1.34-3.08,3.12-3.08c2.16,0,3.17,1.94,3.17,4.16C14.87,321.78,13.82,323.5,12.06,323.96z"></path> <path class="st6" d="M0,306.38v-2.68c1.78,1.14,5.35,2.68,9.31,2.68s7.53-1.54,9.31-2.68v2.68c-1.85,1.1-5.04,2.51-9.31,2.51 S1.87,307.48,0,306.38z"></path> <path class="st6" d="M14.65,290.08v2l-1.96,0.09c1.36,0.99,2.18,2.51,2.18,4.47c0,3.96-3.06,6.51-7.44,6.51 c-4.29,0-7.44-2.68-7.44-6.95c0-2.9,1.3-4.88,3.39-5.92l1.39,2.46c-1.19,0.55-2.31,1.61-2.31,3.45c0,2.44,1.94,4.11,4.97,4.11 c3.04,0,4.97-1.65,4.97-4.09c0-1.69-0.97-3.17-3.28-3.59v3.85H7.08v-6.4H14.65z"></path> <path class="st6" d="M6.62,281.57v2.68h5.85v-2.68h2.18v3.19c0,1.36-0.66,2.02-2,2.02H6.62v1.69H4.45v-1.69H1.76v-2.53h2.68v-2.68 H6.62z"></path> <path class="st6" d="M9.55,280.29c-2.93,0-5.33-1.67-5.33-4.97s2.4-4.97,5.33-4.97c2.93,0,5.32,1.67,5.32,4.97 S12.48,280.29,9.55,280.29z M9.55,272.94c-2.05,0-3.15,0.86-3.15,2.38c0,1.5,1.1,2.35,3.15,2.35c2.05,0,3.15-0.86,3.15-2.35 C12.7,273.8,11.6,272.94,9.55,272.94z"></path> <path class="st6" d="M8.05,259.43h6.6v2.53H8.62c-1.52,0-2.09,0.81-2.09,1.8c0,1.19,0.84,2.09,2.31,2.09h5.81v2.53H4.45v-2.38h1.43 c-1.1-0.64-1.65-1.76-1.65-3.1C4.22,260.78,5.52,259.43,8.05,259.43z"></path> <path class="st6" d="M18.62,254.99v2.68c-1.78-1.14-5.35-2.68-9.31-2.68s-7.53,1.54-9.31,2.68v-2.68c1.87-1.1,5.04-2.51,9.31-2.51 S16.77,253.89,18.62,254.99z"></path> </g> </svg> 