<svg xmlns="http://www.w3.org/2000/svg" version="1.1" style="font-family:Lato, &#x27;Helvetica Neue&#x27;, Helvetica, Arial, &#x27;Liberation Sans&#x27;, sans-serif;font-size:18px;background-color:white;text-rendering:geometricPrecision;-webkit-font-smoothing:antialiased" width="850" height="600" viewBox="0 0 850 600"><defs><style>@import url(https://ourworldindata.org/fonts.css)</style></defs><defs><pattern id="noDataPattern" patternUnits="userSpaceOnUse" width="4" height="4" patternTransform="rotate(-45 2 2)"><path d="M -1,2 l 6,0" stroke="#ccc" stroke-width="0.7"></path></pattern></defs><rect class="background-fill" fill="white" width="850" height="600"></rect><g id="header" class="HeaderView"><g id="logo" transform="translate(769, 16) scale(1)"><svg className="owidLogo" xmlns="http://www.w3.org/2000/svg" width="65" height="36" viewBox="0 0 65 36"  fill="none"><path fill="#002147" d="M0 0h64.8v36H0z"/><path fill="#CE261E" d="M0 33.3h64.8V36H0z"/><path fill="#fff" d="M13.796 10.575c0 .636-.106 1.226-.318 1.77a4.193 4.193 0 0 1-.894 1.404 4.084 4.084 0 0 1-1.386.93c-.54.22-1.138.33-1.794.33-.656 0-1.256-.11-1.8-.33a4.149 4.149 0 0 1-1.392-.93 4.193 4.193 0 0 1-.894-1.404A4.833 4.833 0 0 1 5 10.575c0-.636.106-1.224.318-1.764a4.18 4.18 0 0 1 .894-1.41 4.076 4.076 0 0 1 1.392-.924 4.684 4.684 0 0 1 1.8-.336c.656 0 1.254.112 1.794.336.54.224 1.002.534 1.386.93.384.392.682.86.894 1.404.212.54.318 1.128.318 1.764Zm-1.656 0c0-.476-.064-.902-.192-1.278a2.671 2.671 0 0 0-.54-.966 2.332 2.332 0 0 0-.864-.606 2.94 2.94 0 0 0-1.14-.21c-.424 0-.806.07-1.146.21-.34.14-.63.342-.87.606a2.742 2.742 0 0 0-.546.966 3.955 3.955 0 0 0-.192 1.278c0 .476.064.904.192 1.284.128.376.31.696.546.96.24.26.53.46.87.6.34.14.722.21 1.146.21.424 0 .804-.07 1.14-.21.34-.14.628-.34.864-.6.236-.264.416-.584.54-.96a4.01 4.01 0 0 0 .192-1.284ZM16.104 8.757v3.912c0 .376.086.668.258.876.176.204.438.306.786.306.256 0 .496-.056.72-.168a2.58 2.58 0 0 0 .636-.474V8.757h1.482v6.156h-.906c-.192 0-.318-.09-.378-.27l-.102-.492a4.65 4.65 0 0 1-.396.354 2.577 2.577 0 0 1-.438.27 2.35 2.35 0 0 1-.498.168 2.345 2.345 0 0 1-.57.066c-.336 0-.634-.056-.894-.168a1.821 1.821 0 0 1-.648-.486 2.157 2.157 0 0 1-.402-.738 3.233 3.233 0 0 1-.132-.948V8.757h1.482ZM21.328 14.913V8.757h.87c.152 0 .258.028.318.084.06.056.1.152.12.288l.09.744c.22-.38.478-.68.774-.9.296-.22.628-.33.996-.33.304 0 .556.07.756.21l-.192 1.11c-.012.072-.038.124-.078.156a.278.278 0 0 1-.162.042 1.01 1.01 0 0 1-.246-.042 1.646 1.646 0 0 0-.414-.042c-.308 0-.572.086-.792.258-.22.168-.406.416-.558.744v3.834h-1.482ZM27.347 6.237h1.356a.57.57 0 0 1 .348.102c.096.064.16.152.192.264l1.476 5.19c.036.128.068.268.096.42.032.148.062.306.09.474a5.968 5.968 0 0 1 .228-.894l1.704-5.19a.575.575 0 0 1 .186-.252.543.543 0 0 1 .348-.114h.474a.57.57 0 0 1 .348.102.497.497 0 0 1 .192.264l1.692 5.19c.088.256.164.54.228.852.028-.156.056-.306.084-.45.032-.144.064-.278.096-.402l1.476-5.19c.028-.1.09-.186.186-.258a.563.563 0 0 1 .348-.108h1.266l-2.694 8.676h-1.458l-1.896-5.928-.078-.246a9.504 9.504 0 0 1-.072-.282c-.024.1-.05.194-.078.282-.024.088-.048.17-.072.246l-1.914 5.928H30.04l-2.694-8.676ZM42.771 8.661c.46 0 .876.074 1.248.222.376.148.696.358.96.63s.468.604.612.996c.144.392.216.83.216 1.314 0 .488-.072.928-.216 1.32a2.85 2.85 0 0 1-.612 1.002 2.653 2.653 0 0 1-.96.636 3.35 3.35 0 0 1-1.248.222c-.46 0-.878-.074-1.254-.222a2.712 2.712 0 0 1-.966-.636 2.922 2.922 0 0 1-.618-1.002 3.807 3.807 0 0 1-.216-1.32c0-.484.072-.922.216-1.314.148-.392.354-.724.618-.996.268-.272.59-.482.966-.63a3.397 3.397 0 0 1 1.254-.222Zm0 5.202c.512 0 .89-.172 1.134-.516.248-.344.372-.848.372-1.512s-.124-1.17-.372-1.518c-.244-.348-.622-.522-1.134-.522-.52 0-.904.176-1.152.528-.248.348-.372.852-.372 1.512s.124 1.164.372 1.512c.248.344.632.516 1.152.516ZM46.723 14.913V8.757h.87c.152 0 .258.028.318.084.06.056.1.152.12.288l.09.744c.22-.38.478-.68.774-.9.296-.22.628-.33.996-.33.304 0 .556.07.756.21l-.192 1.11c-.012.072-.038.124-.078.156a.278.278 0 0 1-.162.042 1.01 1.01 0 0 1-.246-.042 1.646 1.646 0 0 0-.414-.042c-.308 0-.572.086-.792.258-.22.168-.406.416-.558.744v3.834h-1.482ZM52.96 5.997v8.916h-1.482V5.997h1.482ZM58.732 14.913c-.192 0-.318-.09-.378-.27l-.12-.594a3.68 3.68 0 0 1-.402.39c-.14.116-.292.216-.456.3-.16.084-.334.148-.522.192a2.372 2.372 0 0 1-.6.072c-.336 0-.644-.07-.924-.21a2.098 2.098 0 0 1-.726-.606 3.033 3.033 0 0 1-.468-.99 5.072 5.072 0 0 1-.162-1.344c0-.456.062-.88.186-1.272s.302-.732.534-1.02c.232-.288.51-.512.834-.672a2.384 2.384 0 0 1 1.092-.246 2.103 2.103 0 0 1 1.536.606V5.997h1.482v8.916h-.906Zm-1.974-1.086c.308 0 .57-.064.786-.192.216-.128.42-.31.612-.546v-2.76a1.452 1.452 0 0 0-.552-.432 1.597 1.597 0 0 0-.636-.126c-.224 0-.428.042-.612.126a1.21 1.21 0 0 0-.462.384c-.124.168-.22.384-.288.648-.068.26-.102.568-.102.924 0 .36.028.666.084.918.06.248.144.452.252.612.108.156.24.27.396.342.156.068.33.102.522.102ZM16.331 20.757v6.156H14.85v-6.156h1.481Zm.223-1.794a.844.844 0 0 1-.078.36.963.963 0 0 1-.21.294.995.995 0 0 1-.3.204.963.963 0 0 1-.372.072.948.948 0 0 1-.367-.072 1.018 1.018 0 0 1-.498-.498.963.963 0 0 1 0-.732.995.995 0 0 1 .205-.3.929.929 0 0 1 .293-.198.899.899 0 0 1 .738 0 .912.912 0 0 1 .3.198.943.943 0 0 1 .288.672ZM17.771 26.913v-6.156h.906c.192 0 .318.09.378.27l.102.486a2.934 2.934 0 0 1 .828-.618c.156-.076.322-.134.498-.174.176-.04.368-.06.576-.06.336 0 .634.058.894.174.26.112.476.272.648.48.176.204.308.45.396.738.092.284.138.598.138.942v3.918h-1.482v-3.918c0-.376-.088-.666-.264-.87-.172-.208-.432-.312-.78-.312-.256 0-.496.058-.72.174a2.58 2.58 0 0 0-.636.474v4.452h-1.482ZM34.22 22.575c0 .636-.106 1.22-.318 1.752-.212.532-.51.99-.894 1.374a4 4 0 0 1-1.386.894 4.87 4.87 0 0 1-1.794.318h-3.312v-8.676h3.312a4.79 4.79 0 0 1 1.794.324 4 4 0 0 1 1.386.894c.384.38.682.836.894 1.368.212.532.318 1.116.318 1.752Zm-1.65 0c0-.476-.064-.902-.192-1.278a2.68 2.68 0 0 0-.546-.96 2.332 2.332 0 0 0-.864-.606 2.94 2.94 0 0 0-1.14-.21h-1.686v6.108h1.686c.424 0 .804-.07 1.14-.21.34-.14.628-.34.864-.6a2.75 2.75 0 0 0 .546-.96 4.01 4.01 0 0 0 .192-1.284ZM39.98 26.913h-.665c-.14 0-.25-.02-.33-.06-.08-.044-.14-.13-.18-.258l-.132-.438c-.156.14-.31.264-.462.372a2.804 2.804 0 0 1-.462.264c-.16.072-.33.126-.51.162-.18.036-.38.054-.6.054-.26 0-.5-.034-.72-.102a1.618 1.618 0 0 1-.57-.318 1.448 1.448 0 0 1-.366-.522 1.852 1.852 0 0 1-.132-.726c0-.232.06-.46.18-.684.124-.228.328-.432.612-.612.284-.184.662-.336 1.134-.456.472-.12 1.058-.188 1.758-.204v-.36c0-.412-.088-.716-.264-.912-.172-.2-.424-.3-.756-.3a1.837 1.837 0 0 0-1.02.276c-.116.068-.224.13-.324.186a.664.664 0 0 1-.33.084.429.429 0 0 1-.258-.078.614.614 0 0 1-.174-.192l-.27-.474c.708-.648 1.562-.972 2.562-.972.36 0 .68.06.96.18.284.116.524.28.72.492.196.208.344.458.444.75.104.292.156.612.156.96v3.888Zm-2.88-.924c.153 0 .293-.014.42-.042.129-.028.249-.07.36-.126.117-.056.227-.124.33-.204.109-.084.217-.182.325-.294v-1.038c-.432.02-.794.058-1.086.114-.288.052-.52.12-.696.204a.923.923 0 0 0-.378.294.664.664 0 0 0-.108.366c0 .26.076.446.228.558.156.112.358.168.606.168ZM43.22 27.01c-.532 0-.942-.15-1.23-.45-.288-.305-.432-.723-.432-1.255v-3.438h-.624a.31.31 0 0 1-.21-.078c-.056-.052-.084-.13-.084-.234v-.588l.99-.162.312-1.68a.302.302 0 0 1 .108-.186.365.365 0 0 1 .222-.066h.768v1.938h1.62v1.056h-1.62v3.336c0 .192.048.342.144.45a.488.488 0 0 0 .384.162c.092 0 .168-.01.228-.03.064-.024.118-.048.162-.072.048-.024.09-.046.126-.066a.194.194 0 0 1 .108-.036.16.16 0 0 1 .108.036c.028.02.058.052.09.096l.444.72c-.216.18-.464.316-.744.408a2.77 2.77 0 0 1-.87.138ZM50.423 26.913h-.666c-.14 0-.25-.02-.33-.06-.08-.044-.14-.13-.18-.258l-.132-.438c-.156.14-.31.264-.462.372a2.804 2.804 0 0 1-.462.264c-.16.072-.33.126-.51.162-.18.036-.38.054-.6.054-.26 0-.5-.034-.72-.102a1.618 1.618 0 0 1-.57-.318 1.448 1.448 0 0 1-.366-.522 1.852 1.852 0 0 1-.132-.726c0-.232.06-.46.18-.684.124-.228.328-.432.612-.612.284-.184.662-.336 1.134-.456.472-.12 1.058-.188 1.758-.204v-.36c0-.412-.088-.716-.264-.912-.172-.2-.424-.3-.756-.3a1.837 1.837 0 0 0-1.02.276c-.116.068-.224.13-.324.186a.664.664 0 0 1-.33.084.429.429 0 0 1-.258-.078.614.614 0 0 1-.174-.192l-.27-.474c.708-.648 1.562-.972 2.562-.972.36 0 .68.06.96.18.284.116.524.28.72.492.196.208.344.458.444.75.104.292.156.612.156.96v3.888Zm-2.88-.924c.152 0 .292-.014.42-.042.128-.028.248-.07.36-.126.116-.056.226-.124.33-.204.108-.084.216-.182.324-.294v-1.038c-.432.02-.794.058-1.086.114-.288.052-.52.12-.696.204a.923.923 0 0 0-.378.294.664.664 0 0 0-.108.366c0 .26.076.446.228.558.156.112.358.168.606.168Z"/></svg></g><a id="title" href="https://ourworldindata.org/grapher/annual-co2-emissions-per-country?country=~OWID_WRL" style="font-family:&#x27;Playfair Display&#x27;, Georgia, &#x27;Times New Roman&#x27;, &#x27;Liberation Serif&#x27;, serif" target="_blank" rel="noopener"><text font-size="24.75" font-weight="600" x="16.0" y="40.0" fill="#5b5b5b"><tspan x="16" y="40.0075">Annual CO₂ emissions</tspan></text></a><g id="subtitle" class="markdown-text-wrap"><text x="16.0" y="63.9" style="font-size:14.625px;line-height:1.2" fill="#5b5b5b"><tspan x="16" y="63.9">Carbon dioxide (CO₂) emissions from <tspan class="dod-span" data-id="fossilemissions">fossil fuels and industry</tspan>. Land-use change is not included.</tspan></text></g></g><g id="chart-area" style="pointer-events:none"><g id="line-chart" class="LineChart"><defs><clipPath id="boundsClip-3"><rect x="72.02000000000001" y="73.25" width="838" height="488.55"></rect></clipPath></defs><rect x="16" y="83.25" width="818" height="468.55" fill="none"></rect><g id="dual-axis" class="DualAxisView"><g id="horizontal-axis" class="HorizontalAxis"><g id="tick__1750"><line x1="82" y1="530.8" x2="82" y2="536.3" stroke="#999" stroke-width="1"></line><text x="82.02000000000001" y="549.8" fill="#5b5b5b" text-anchor="start" font-size="13.5">1750</text></g><g id="tick__2022"><line x1="763.8" y1="530.8" x2="763.8" y2="536.3" stroke="#999" stroke-width="1"></line><text x="763.765" y="549.8" fill="#5b5b5b" text-anchor="end" font-size="13.5">2022</text></g><g id="tick__1800"><line x1="207.3" y1="530.8" x2="207.3" y2="536.3" stroke="#999" stroke-width="1"></line><text x="207.3" y="549.8" fill="#5b5b5b" text-anchor="middle" font-size="13.5">1800</text></g><g id="tick__1850"><line x1="332.7" y1="530.8" x2="332.7" y2="536.3" stroke="#999" stroke-width="1"></line><text x="332.7" y="549.8" fill="#5b5b5b" text-anchor="middle" font-size="13.5">1850</text></g><g id="tick__1900"><line x1="458" y1="530.8" x2="458" y2="536.3" stroke="#999" stroke-width="1"></line><text x="458" y="549.8" fill="#5b5b5b" text-anchor="middle" font-size="13.5">1900</text></g><g id="tick__1950"><line x1="583.3" y1="530.8" x2="583.3" y2="536.3" stroke="#999" stroke-width="1"></line><text x="583.3" y="549.8" fill="#5b5b5b" text-anchor="middle" font-size="13.5">1950</text></g><g id="tick__2000"><line x1="708.6" y1="530.8" x2="708.6" y2="536.3" stroke="#999" stroke-width="1"></line><text x="708.6" y="549.8" fill="#5b5b5b" text-anchor="middle" font-size="13.5">2000</text></g></g><g id="vertical-axis" class="VerticalAxis"><g id="tick-labels"><text id="tick-label__0-t" x="77.02" y="531.3" dy=".32em" text-anchor="end" fill="#5b5b5b" font-size="13.5">0 t</text><text id="tick-label__5-billion-t" x="77.02" y="471.8" dy=".32em" text-anchor="end" fill="#5b5b5b" font-size="13.5">5 billion t</text><text id="tick-label__10-billion-t" x="77.02" y="412.3" dy=".32em" text-anchor="end" fill="#5b5b5b" font-size="13.5">10 billion t</text><text id="tick-label__15-billion-t" x="77.02" y="352.8" dy=".32em" text-anchor="end" fill="#5b5b5b" font-size="13.5">15 billion t</text><text id="tick-label__20-billion-t" x="77.02" y="293.3" dy=".32em" text-anchor="end" fill="#5b5b5b" font-size="13.5">20 billion t</text><text id="tick-label__25-billion-t" x="77.02" y="233.8" dy=".32em" text-anchor="end" fill="#5b5b5b" font-size="13.5">25 billion t</text><text id="tick-label__30-billion-t" x="77.02" y="174.3" dy=".32em" text-anchor="end" fill="#5b5b5b" font-size="13.5">30 billion t</text><text id="tick-label__35-billion-t" x="77.02" y="114.8" dy=".32em" text-anchor="end" fill="#5b5b5b" font-size="13.5">35 billion t</text></g></g><g id="horizontal-grid-lines" class="AxisGridLines horizontalLines"><line id="grid-line__0" x1="82.02" y1="531.3" x2="763.76" y2="531.3" stroke="#999" stroke-width="1"></line><line id="grid-line__5000000000" x1="82.02" y1="471.8" x2="763.76" y2="471.8" stroke="#ddd" stroke-width="1" stroke-dasharray="3,2"></line><line id="grid-line__10000000000" x1="82.02" y1="412.3" x2="763.76" y2="412.3" stroke="#ddd" stroke-width="1" stroke-dasharray="3,2"></line><line id="grid-line__15000000000" x1="82.02" y1="352.8" x2="763.76" y2="352.8" stroke="#ddd" stroke-width="1" stroke-dasharray="3,2"></line><line id="grid-line__20000000000" x1="82.02" y1="293.3" x2="763.76" y2="293.3" stroke="#ddd" stroke-width="1" stroke-dasharray="3,2"></line><line id="grid-line__25000000000" x1="82.02" y1="233.8" x2="763.76" y2="233.8" stroke="#ddd" stroke-width="1" stroke-dasharray="3,2"></line><line id="grid-line__30000000000" x1="82.02" y1="174.3" x2="763.76" y2="174.3" stroke="#ddd" stroke-width="1" stroke-dasharray="3,2"></line><line id="grid-line__35000000000" x1="82.02" y1="114.8" x2="763.76" y2="114.8" stroke="#ddd" stroke-width="1" stroke-dasharray="3,2"></line></g></g><g clip-path="url(#boundsClip-3)"><g id="line-labels" class="LineLabels"><g id="mark__World" class="legendMark" style="cursor:default"><rect id="background" x="763.765" y="83.25" width="70.235" height="13.5" fill="#fff" opacity="0"></rect><text id="label" font-size="13.50" font-weight="400" x="767.8" y="95.0" fill="#c15065"><tspan x="767.765" y="94.995">World</tspan></text></g></g><g id="lines" class="Lines"><rect x="82" y="89" width="682" height="442" fill="rgba(255,255,255,0)" opacity="0"></rect><g id="line__World"><path stroke-linecap="round" stroke-linejoin="round" stroke="#ddd" d="M82 531.2L84.5 531.2L87 531.2L89.5 531.2L92 531.2L94.6 531.2L97.1 531.2L99.6 531.2L102.1 531.2L104.6 531.2L107.1 531.2L109.6 531.2L112.1 531.2L114.6 531.2L117.1 531.2L119.6 531.2L122.1 531.2L124.6 531.2L127.1 531.2L129.6 531.1L132.1 531.1L134.7 531.1L137.2 531.1L139.7 531.1L142.2 531.1L144.7 531.1L147.2 531.1L149.7 531.1L152.2 531.1L154.7 531.1L157.2 531.1L159.7 531.1L162.2 531.1L164.7 531.1L167.2 531.1L169.7 531.1L172.3 531.1L174.8 531.1L177.3 531.1L179.8 531.1L182.3 531.1L184.8 531.1L187.3 531L189.8 531L192.3 531L194.8 531L197.3 531L199.8 531L202.3 531L204.8 531L207.3 530.9L209.8 530.9L212.4 530.8L214.9 530.9L217.4 530.9L219.9 530.9L222.4 530.9L224.9 530.9L227.4 530.9L229.9 530.9L232.4 530.8L234.9 530.8L237.4 530.8L239.9 530.8L242.4 530.8L244.9 530.8L247.4 530.8L249.9 530.7L252.5 530.7L255 530.7L257.5 530.7L260 530.7L262.5 530.7L265 530.6L267.5 530.6L270 530.6L272.5 530.6L275 530.5L277.5 530.5L280 530.5L282.5 530.2L285 530.3L287.5 530.3L290.1 530.3L292.6 530.2L295.1 530.1L297.6 530L300.1 530L302.6 530L305.1 530L307.6 529.9L310.1 529.8L312.6 529.8L315.1 529.7L317.6 529.6L320.1 529.5L322.6 529.4L325.1 529.3L327.6 529.2L330.2 529.1L332.7 529L335.2 528.9L337.7 528.8L340.2 528.7L342.7 528.3L345.2 528.2L347.7 528L350.2 528L352.7 527.9L355.2 527.7L357.7 527.4L360.2 527.2L362.7 527.1L365.2 526.8L367.8 526.4L370.3 526.1L372.8 526L375.3 525.6L377.8 525.5L380.3 525.1L382.8 525L385.3 524.6L387.8 523.8L390.3 523.4L392.8 523.9L395.3 523.2L397.8 523.1L400.3 523L402.8 522.9L405.3 522.3L407.9 521.1L410.4 520.8L412.9 520.2L415.4 519.5L417.9 519.4L420.4 519.3L422.9 519.1L425.4 518.5L427.9 517.1L430.4 517.1L432.9 515.8L435.4 515.1L437.9 515L440.4 515.2L442.9 514.6L445.5 513.6L448 513L450.5 512.2L453 511.1L455.5 509.2L458 508.1L460.5 507.3L463 506.7L465.5 504.5L468 504.2L470.5 502.4L473 501.1L475.5 496.9L478 498.3L480.5 496.9L483 495.2L485.6 494.7L488.1 492.8L490.6 489.6L493.1 493.5L495.6 494L498.1 491L500.6 489.2L503.1 489.7L505.6 495.3L508.1 489.4L510.6 494.5L513.1 492.7L515.6 487.6L518.1 487.4L520.6 487L523.1 487.7L525.7 483.7L528.2 484L530.7 480.5L533.2 484.4L535.7 489.4L538.2 493.5L540.7 491.5L543.2 488.1L545.7 485.9L548.2 481.5L550.7 478.1L553.2 481.2L555.7 478.3L558.2 473.5L560.7 472.2L563.3 472.3L565.8 471.3L568.3 470.4L570.8 480.6L573.3 476L575.8 470.1L578.3 466.7L580.8 469.7L583.3 460.7L585.8 455.4L588.3 454.3L590.8 452.2L593.3 450.5L595.8 442.7L598.3 437L600.8 433.9L603.4 431.1L605.9 425.9L608.4 419.6L610.9 419.3L613.4 415.3L615.9 409.1L618.4 402.5L620.9 396.7L623.4 390.2L625.9 385.7L628.4 377.7L630.9 367.6L633.4 354L635.9 346.8L638.4 338.3L641 328L643.5 328.9L646 328.4L648.5 317.3L651 311.2L653.5 304.5L656 298L658.5 299.5L661 305L663.5 306.8L666 305.4L668.5 297.6L671 289.7L673.5 286.1L676 278.5L678.5 268.6L681.1 265L683.6 260.6L686.1 254.9L688.6 262.8L691.1 260L693.6 257.2L696.1 251.4L698.6 242.7L701.1 241L703.6 241.8L706.1 235.8L708.6 227.9L711.1 225.8L713.6 219L716.1 202.3L718.6 190.7L721.2 179.2L723.7 167.1L726.2 156.5L728.7 150L731.2 156.6L733.7 135L736.2 121.5L738.7 115.6L741.2 112.1L743.7 109.3L746.2 109.3L748.7 109.4L751.2 102.6L753.7 93.8L756.2 90.6L758.8 114.7L761.3 93.2L763.8 89.3" fill="none" stroke-width="1"></path></g><g id="line__World"><path id="outline" fill="none" stroke-linecap="butt" stroke-linejoin="round" stroke="#fff" stroke-width="2.5" d="M82 531.2L84.5 531.2L87 531.2L89.5 531.2L92 531.2L94.6 531.2L97.1 531.2L99.6 531.2L102.1 531.2L104.6 531.2L107.1 531.2L109.6 531.2L112.1 531.2L114.6 531.2L117.1 531.2L119.6 531.2L122.1 531.2L124.6 531.2L127.1 531.2L129.6 531.1L132.1 531.1L134.7 531.1L137.2 531.1L139.7 531.1L142.2 531.1L144.7 531.1L147.2 531.1L149.7 531.1L152.2 531.1L154.7 531.1L157.2 531.1L159.7 531.1L162.2 531.1L164.7 531.1L167.2 531.1L169.7 531.1L172.3 531.1L174.8 531.1L177.3 531.1L179.8 531.1L182.3 531.1L184.8 531.1L187.3 531L189.8 531L192.3 531L194.8 531L197.3 531L199.8 531L202.3 531L204.8 531L207.3 530.9L209.8 530.9L212.4 530.8L214.9 530.9L217.4 530.9L219.9 530.9L222.4 530.9L224.9 530.9L227.4 530.9L229.9 530.9L232.4 530.8L234.9 530.8L237.4 530.8L239.9 530.8L242.4 530.8L244.9 530.8L247.4 530.8L249.9 530.7L252.5 530.7L255 530.7L257.5 530.7L260 530.7L262.5 530.7L265 530.6L267.5 530.6L270 530.6L272.5 530.6L275 530.5L277.5 530.5L280 530.5L282.5 530.2L285 530.3L287.5 530.3L290.1 530.3L292.6 530.2L295.1 530.1L297.6 530L300.1 530L302.6 530L305.1 530L307.6 529.9L310.1 529.8L312.6 529.8L315.1 529.7L317.6 529.6L320.1 529.5L322.6 529.4L325.1 529.3L327.6 529.2L330.2 529.1L332.7 529L335.2 528.9L337.7 528.8L340.2 528.7L342.7 528.3L345.2 528.2L347.7 528L350.2 528L352.7 527.9L355.2 527.7L357.7 527.4L360.2 527.2L362.7 527.1L365.2 526.8L367.8 526.4L370.3 526.1L372.8 526L375.3 525.6L377.8 525.5L380.3 525.1L382.8 525L385.3 524.6L387.8 523.8L390.3 523.4L392.8 523.9L395.3 523.2L397.8 523.1L400.3 523L402.8 522.9L405.3 522.3L407.9 521.1L410.4 520.8L412.9 520.2L415.4 519.5L417.9 519.4L420.4 519.3L422.9 519.1L425.4 518.5L427.9 517.1L430.4 517.1L432.9 515.8L435.4 515.1L437.9 515L440.4 515.2L442.9 514.6L445.5 513.6L448 513L450.5 512.2L453 511.1L455.5 509.2L458 508.1L460.5 507.3L463 506.7L465.5 504.5L468 504.2L470.5 502.4L473 501.1L475.5 496.9L478 498.3L480.5 496.9L483 495.2L485.6 494.7L488.1 492.8L490.6 489.6L493.1 493.5L495.6 494L498.1 491L500.6 489.2L503.1 489.7L505.6 495.3L508.1 489.4L510.6 494.5L513.1 492.7L515.6 487.6L518.1 487.4L520.6 487L523.1 487.7L525.7 483.7L528.2 484L530.7 480.5L533.2 484.4L535.7 489.4L538.2 493.5L540.7 491.5L543.2 488.1L545.7 485.9L548.2 481.5L550.7 478.1L553.2 481.2L555.7 478.3L558.2 473.5L560.7 472.2L563.3 472.3L565.8 471.3L568.3 470.4L570.8 480.6L573.3 476L575.8 470.1L578.3 466.7L580.8 469.7L583.3 460.7L585.8 455.4L588.3 454.3L590.8 452.2L593.3 450.5L595.8 442.7L598.3 437L600.8 433.9L603.4 431.1L605.9 425.9L608.4 419.6L610.9 419.3L613.4 415.3L615.9 409.1L618.4 402.5L620.9 396.7L623.4 390.2L625.9 385.7L628.4 377.7L630.9 367.6L633.4 354L635.9 346.8L638.4 338.3L641 328L643.5 328.9L646 328.4L648.5 317.3L651 311.2L653.5 304.5L656 298L658.5 299.5L661 305L663.5 306.8L666 305.4L668.5 297.6L671 289.7L673.5 286.1L676 278.5L678.5 268.6L681.1 265L683.6 260.6L686.1 254.9L688.6 262.8L691.1 260L693.6 257.2L696.1 251.4L698.6 242.7L701.1 241L703.6 241.8L706.1 235.8L708.6 227.9L711.1 225.8L713.6 219L716.1 202.3L718.6 190.7L721.2 179.2L723.7 167.1L726.2 156.5L728.7 150L731.2 156.6L733.7 135L736.2 121.5L738.7 115.6L741.2 112.1L743.7 109.3L746.2 109.3L748.7 109.4L751.2 102.6L753.7 93.8L756.2 90.6L758.8 114.7L761.3 93.2L763.8 89.3"></path><g id="polyline"><polyline id="polyline" points="82.00,531.20 84.50,531.20 87.00,531.20 89.50,531.20 92.00,531.20 94.60,531.20 97.10,531.20 99.60,531.20 102.10,531.20 104.60,531.20 107.10,531.20 109.60,531.20 112.10,531.20 114.60,531.20 117.10,531.20 119.60,531.20 122.10,531.20 124.60,531.20 127.10,531.20 129.60,531.10 132.10,531.10 134.70,531.10 137.20,531.10 139.70,531.10 142.20,531.10 144.70,531.10 147.20,531.10 149.70,531.10 152.20,531.10 154.70,531.10 157.20,531.10 159.70,531.10 162.20,531.10 164.70,531.10 167.20,531.10 169.70,531.10 172.30,531.10 174.80,531.10 177.30,531.10 179.80,531.10 182.30,531.10 184.80,531.10 187.30,531.00 189.80,531.00 192.30,531.00 194.80,531.00 197.30,531.00 199.80,531.00 202.30,531.00 204.80,531.00 207.30,530.90 209.80,530.90 212.40,530.80 214.90,530.90 217.40,530.90 219.90,530.90 222.40,530.90 224.90,530.90 227.40,530.90 229.90,530.90 232.40,530.80 234.90,530.80 237.40,530.80 239.90,530.80 242.40,530.80 244.90,530.80 247.40,530.80 249.90,530.70 252.50,530.70 255.00,530.70 257.50,530.70 260.00,530.70 262.50,530.70 265.00,530.60 267.50,530.60 270.00,530.60 272.50,530.60 275.00,530.50 277.50,530.50 280.00,530.50 282.50,530.20 285.00,530.30 287.50,530.30 290.10,530.30 292.60,530.20 295.10,530.10 297.60,530.00 300.10,530.00 302.60,530.00 305.10,530.00 307.60,529.90 310.10,529.80 312.60,529.80 315.10,529.70 317.60,529.60 320.10,529.50 322.60,529.40 325.10,529.30 327.60,529.20 330.20,529.10 332.70,529.00 335.20,528.90 337.70,528.80 340.20,528.70 342.70,528.30 345.20,528.20 347.70,528.00 350.20,528.00 352.70,527.90 355.20,527.70 357.70,527.40 360.20,527.20 362.70,527.10 365.20,526.80 367.80,526.40 370.30,526.10 372.80,526.00 375.30,525.60 377.80,525.50 380.30,525.10 382.80,525.00 385.30,524.60 387.80,523.80 390.30,523.40 392.80,523.90 395.30,523.20 397.80,523.10 400.30,523.00 402.80,522.90 405.30,522.30 407.90,521.10 410.40,520.80 412.90,520.20 415.40,519.50 417.90,519.40 420.40,519.30 422.90,519.10 425.40,518.50 427.90,517.10 430.40,517.10 432.90,515.80 435.40,515.10 437.90,515.00 440.40,515.20 442.90,514.60 445.50,513.60 448.00,513.00 450.50,512.20 453.00,511.10 455.50,509.20 458.00,508.10 460.50,507.30 463.00,506.70 465.50,504.50 468.00,504.20 470.50,502.40 473.00,501.10 475.50,496.90 478.00,498.30 480.50,496.90 483.00,495.20 485.60,494.70 488.10,492.80 490.60,489.60 493.10,493.50 495.60,494.00 498.10,491.00 500.60,489.20 503.10,489.70 505.60,495.30 508.10,489.40 510.60,494.50 513.10,492.70 515.60,487.60 518.10,487.40 520.60,487.00 523.10,487.70 525.70,483.70 528.20,484.00 530.70,480.50 533.20,484.40 535.70,489.40 538.20,493.50 540.70,491.50 543.20,488.10 545.70,485.90 548.20,481.50 550.70,478.10 553.20,481.20 555.70,478.30 558.20,473.50 560.70,472.20 563.30,472.30 565.80,471.30 568.30,470.40 570.80,480.60 573.30,476.00 575.80,470.10 578.30,466.70 580.80,469.70 583.30,460.70 585.80,455.40 588.30,454.30 590.80,452.20 593.30,450.50 595.80,442.70 598.30,437.00 600.80,433.90 603.40,431.10 605.90,425.90 608.40,419.60 610.90,419.30 613.40,415.30 615.90,409.10 618.40,402.50 620.90,396.70 623.40,390.20 625.90,385.70 628.40,377.70 630.90,367.60 633.40,354.00 635.90,346.80 638.40,338.30 641.00,328.00 643.50,328.90 646.00,328.40 648.50,317.30 651.00,311.20 653.50,304.50 656.00,298.00 658.50,299.50 661.00,305.00 663.50,306.80 666.00,305.40 668.50,297.60 671.00,289.70 673.50,286.10 676.00,278.50 678.50,268.60 681.10,265.00 683.60,260.60 686.10,254.90 688.60,262.80 691.10,260.00 693.60,257.20 696.10,251.40 698.60,242.70 701.10,241.00 703.60,241.80 706.10,235.80 708.60,227.90 711.10,225.80 713.60,219.00 716.10,202.30 718.60,190.70 721.20,179.20 723.70,167.10 726.20,156.50 728.70,150.00 731.20,156.60 733.70,135.00 736.20,121.50 738.70,115.60 741.20,112.10 743.70,109.30 746.20,109.30 748.70,109.40 751.20,102.60 753.70,93.80 756.20,90.60 758.80,114.70 761.30,93.20 763.80,89.30" stroke-linejoin="round" stroke-width="1.5" stroke="#C15065" fill="none" stroke-linecap="butt"></polyline></g><g id="markers"><circle cx="82" cy="531.2" r="1.8" fill="#C15065"></circle><circle cx="84.5" cy="531.2" r="1.8" fill="#C15065"></circle><circle cx="87" cy="531.2" r="1.8" fill="#C15065"></circle><circle cx="89.5" cy="531.2" r="1.8" fill="#C15065"></circle><circle cx="92" cy="531.2" r="1.8" fill="#C15065"></circle><circle cx="94.6" cy="531.2" r="1.8" fill="#C15065"></circle><circle cx="97.1" cy="531.2" r="1.8" fill="#C15065"></circle><circle cx="99.6" cy="531.2" r="1.8" fill="#C15065"></circle><circle cx="102.1" cy="531.2" r="1.8" fill="#C15065"></circle><circle cx="104.6" cy="531.2" r="1.8" fill="#C15065"></circle><circle cx="107.1" cy="531.2" r="1.8" fill="#C15065"></circle><circle cx="109.6" cy="531.2" r="1.8" fill="#C15065"></circle><circle cx="112.1" cy="531.2" r="1.8" fill="#C15065"></circle><circle cx="114.6" cy="531.2" r="1.8" fill="#C15065"></circle><circle cx="117.1" cy="531.2" r="1.8" fill="#C15065"></circle><circle cx="119.6" cy="531.2" r="1.8" fill="#C15065"></circle><circle cx="122.1" cy="531.2" r="1.8" fill="#C15065"></circle><circle cx="124.6" cy="531.2" r="1.8" fill="#C15065"></circle><circle cx="127.1" cy="531.2" r="1.8" fill="#C15065"></circle><circle cx="129.6" cy="531.1" r="1.8" fill="#C15065"></circle><circle cx="132.1" cy="531.1" r="1.8" fill="#C15065"></circle><circle cx="134.7" cy="531.1" r="1.8" fill="#C15065"></circle><circle cx="137.2" cy="531.1" r="1.8" fill="#C15065"></circle><circle cx="139.7" cy="531.1" r="1.8" fill="#C15065"></circle><circle cx="142.2" cy="531.1" r="1.8" fill="#C15065"></circle><circle cx="144.7" cy="531.1" r="1.8" fill="#C15065"></circle><circle cx="147.2" cy="531.1" r="1.8" fill="#C15065"></circle><circle cx="149.7" cy="531.1" r="1.8" fill="#C15065"></circle><circle cx="152.2" cy="531.1" r="1.8" fill="#C15065"></circle><circle cx="154.7" cy="531.1" r="1.8" fill="#C15065"></circle><circle cx="157.2" cy="531.1" r="1.8" fill="#C15065"></circle><circle cx="159.7" cy="531.1" r="1.8" fill="#C15065"></circle><circle cx="162.2" cy="531.1" r="1.8" fill="#C15065"></circle><circle cx="164.7" cy="531.1" r="1.8" fill="#C15065"></circle><circle cx="167.2" cy="531.1" r="1.8" fill="#C15065"></circle><circle cx="169.7" cy="531.1" r="1.8" fill="#C15065"></circle><circle cx="172.3" cy="531.1" r="1.8" fill="#C15065"></circle><circle cx="174.8" cy="531.1" r="1.8" fill="#C15065"></circle><circle cx="177.3" cy="531.1" r="1.8" fill="#C15065"></circle><circle cx="179.8" cy="531.1" r="1.8" fill="#C15065"></circle><circle cx="182.3" cy="531.1" r="1.8" fill="#C15065"></circle><circle cx="184.8" cy="531.1" r="1.8" fill="#C15065"></circle><circle cx="187.3" cy="531" r="1.8" fill="#C15065"></circle><circle cx="189.8" cy="531" r="1.8" fill="#C15065"></circle><circle cx="192.3" cy="531" r="1.8" fill="#C15065"></circle><circle cx="194.8" cy="531" r="1.8" fill="#C15065"></circle><circle cx="197.3" cy="531" r="1.8" fill="#C15065"></circle><circle cx="199.8" cy="531" r="1.8" fill="#C15065"></circle><circle cx="202.3" cy="531" r="1.8" fill="#C15065"></circle><circle cx="204.8" cy="531" r="1.8" fill="#C15065"></circle><circle cx="207.3" cy="530.9" r="1.8" fill="#C15065"></circle><circle cx="209.8" cy="530.9" r="1.8" fill="#C15065"></circle><circle cx="212.4" cy="530.8" r="1.8" fill="#C15065"></circle><circle cx="214.9" cy="530.9" r="1.8" fill="#C15065"></circle><circle cx="217.4" cy="530.9" r="1.8" fill="#C15065"></circle><circle cx="219.9" cy="530.9" r="1.8" fill="#C15065"></circle><circle cx="222.4" cy="530.9" r="1.8" fill="#C15065"></circle><circle cx="224.9" cy="530.9" r="1.8" fill="#C15065"></circle><circle cx="227.4" cy="530.9" r="1.8" fill="#C15065"></circle><circle cx="229.9" cy="530.9" r="1.8" fill="#C15065"></circle><circle cx="232.4" cy="530.8" r="1.8" fill="#C15065"></circle><circle cx="234.9" cy="530.8" r="1.8" fill="#C15065"></circle><circle cx="237.4" cy="530.8" r="1.8" fill="#C15065"></circle><circle cx="239.9" cy="530.8" r="1.8" fill="#C15065"></circle><circle cx="242.4" cy="530.8" r="1.8" fill="#C15065"></circle><circle cx="244.9" cy="530.8" r="1.8" fill="#C15065"></circle><circle cx="247.4" cy="530.8" r="1.8" fill="#C15065"></circle><circle cx="249.9" cy="530.7" r="1.8" fill="#C15065"></circle><circle cx="252.5" cy="530.7" r="1.8" fill="#C15065"></circle><circle cx="255" cy="530.7" r="1.8" fill="#C15065"></circle><circle cx="257.5" cy="530.7" r="1.8" fill="#C15065"></circle><circle cx="260" cy="530.7" r="1.8" fill="#C15065"></circle><circle cx="262.5" cy="530.7" r="1.8" fill="#C15065"></circle><circle cx="265" cy="530.6" r="1.8" fill="#C15065"></circle><circle cx="267.5" cy="530.6" r="1.8" fill="#C15065"></circle><circle cx="270" cy="530.6" r="1.8" fill="#C15065"></circle><circle cx="272.5" cy="530.6" r="1.8" fill="#C15065"></circle><circle cx="275" cy="530.5" r="1.8" fill="#C15065"></circle><circle cx="277.5" cy="530.5" r="1.8" fill="#C15065"></circle><circle cx="280" cy="530.5" r="1.8" fill="#C15065"></circle><circle cx="282.5" cy="530.2" r="1.8" fill="#C15065"></circle><circle cx="285" cy="530.3" r="1.8" fill="#C15065"></circle><circle cx="287.5" cy="530.3" r="1.8" fill="#C15065"></circle><circle cx="290.1" cy="530.3" r="1.8" fill="#C15065"></circle><circle cx="292.6" cy="530.2" r="1.8" fill="#C15065"></circle><circle cx="295.1" cy="530.1" r="1.8" fill="#C15065"></circle><circle cx="297.6" cy="530" r="1.8" fill="#C15065"></circle><circle cx="300.1" cy="530" r="1.8" fill="#C15065"></circle><circle cx="302.6" cy="530" r="1.8" fill="#C15065"></circle><circle cx="305.1" cy="530" r="1.8" fill="#C15065"></circle><circle cx="307.6" cy="529.9" r="1.8" fill="#C15065"></circle><circle cx="310.1" cy="529.8" r="1.8" fill="#C15065"></circle><circle cx="312.6" cy="529.8" r="1.8" fill="#C15065"></circle><circle cx="315.1" cy="529.7" r="1.8" fill="#C15065"></circle><circle cx="317.6" cy="529.6" r="1.8" fill="#C15065"></circle><circle cx="320.1" cy="529.5" r="1.8" fill="#C15065"></circle><circle cx="322.6" cy="529.4" r="1.8" fill="#C15065"></circle><circle cx="325.1" cy="529.3" r="1.8" fill="#C15065"></circle><circle cx="327.6" cy="529.2" r="1.8" fill="#C15065"></circle><circle cx="330.2" cy="529.1" r="1.8" fill="#C15065"></circle><circle cx="332.7" cy="529" r="1.8" fill="#C15065"></circle><circle cx="335.2" cy="528.9" r="1.8" fill="#C15065"></circle><circle cx="337.7" cy="528.8" r="1.8" fill="#C15065"></circle><circle cx="340.2" cy="528.7" r="1.8" fill="#C15065"></circle><circle cx="342.7" cy="528.3" r="1.8" fill="#C15065"></circle><circle cx="345.2" cy="528.2" r="1.8" fill="#C15065"></circle><circle cx="347.7" cy="528" r="1.8" fill="#C15065"></circle><circle cx="350.2" cy="528" r="1.8" fill="#C15065"></circle><circle cx="352.7" cy="527.9" r="1.8" fill="#C15065"></circle><circle cx="355.2" cy="527.7" r="1.8" fill="#C15065"></circle><circle cx="357.7" cy="527.4" r="1.8" fill="#C15065"></circle><circle cx="360.2" cy="527.2" r="1.8" fill="#C15065"></circle><circle cx="362.7" cy="527.1" r="1.8" fill="#C15065"></circle><circle cx="365.2" cy="526.8" r="1.8" fill="#C15065"></circle><circle cx="367.8" cy="526.4" r="1.8" fill="#C15065"></circle><circle cx="370.3" cy="526.1" r="1.8" fill="#C15065"></circle><circle cx="372.8" cy="526" r="1.8" fill="#C15065"></circle><circle cx="375.3" cy="525.6" r="1.8" fill="#C15065"></circle><circle cx="377.8" cy="525.5" r="1.8" fill="#C15065"></circle><circle cx="380.3" cy="525.1" r="1.8" fill="#C15065"></circle><circle cx="382.8" cy="525" r="1.8" fill="#C15065"></circle><circle cx="385.3" cy="524.6" r="1.8" fill="#C15065"></circle><circle cx="387.8" cy="523.8" r="1.8" fill="#C15065"></circle><circle cx="390.3" cy="523.4" r="1.8" fill="#C15065"></circle><circle cx="392.8" cy="523.9" r="1.8" fill="#C15065"></circle><circle cx="395.3" cy="523.2" r="1.8" fill="#C15065"></circle><circle cx="397.8" cy="523.1" r="1.8" fill="#C15065"></circle><circle cx="400.3" cy="523" r="1.8" fill="#C15065"></circle><circle cx="402.8" cy="522.9" r="1.8" fill="#C15065"></circle><circle cx="405.3" cy="522.3" r="1.8" fill="#C15065"></circle><circle cx="407.9" cy="521.1" r="1.8" fill="#C15065"></circle><circle cx="410.4" cy="520.8" r="1.8" fill="#C15065"></circle><circle cx="412.9" cy="520.2" r="1.8" fill="#C15065"></circle><circle cx="415.4" cy="519.5" r="1.8" fill="#C15065"></circle><circle cx="417.9" cy="519.4" r="1.8" fill="#C15065"></circle><circle cx="420.4" cy="519.3" r="1.8" fill="#C15065"></circle><circle cx="422.9" cy="519.1" r="1.8" fill="#C15065"></circle><circle cx="425.4" cy="518.5" r="1.8" fill="#C15065"></circle><circle cx="427.9" cy="517.1" r="1.8" fill="#C15065"></circle><circle cx="430.4" cy="517.1" r="1.8" fill="#C15065"></circle><circle cx="432.9" cy="515.8" r="1.8" fill="#C15065"></circle><circle cx="435.4" cy="515.1" r="1.8" fill="#C15065"></circle><circle cx="437.9" cy="515" r="1.8" fill="#C15065"></circle><circle cx="440.4" cy="515.2" r="1.8" fill="#C15065"></circle><circle cx="442.9" cy="514.6" r="1.8" fill="#C15065"></circle><circle cx="445.5" cy="513.6" r="1.8" fill="#C15065"></circle><circle cx="448" cy="513" r="1.8" fill="#C15065"></circle><circle cx="450.5" cy="512.2" r="1.8" fill="#C15065"></circle><circle cx="453" cy="511.1" r="1.8" fill="#C15065"></circle><circle cx="455.5" cy="509.2" r="1.8" fill="#C15065"></circle><circle cx="458" cy="508.1" r="1.8" fill="#C15065"></circle><circle cx="460.5" cy="507.3" r="1.8" fill="#C15065"></circle><circle cx="463" cy="506.7" r="1.8" fill="#C15065"></circle><circle cx="465.5" cy="504.5" r="1.8" fill="#C15065"></circle><circle cx="468" cy="504.2" r="1.8" fill="#C15065"></circle><circle cx="470.5" cy="502.4" r="1.8" fill="#C15065"></circle><circle cx="473" cy="501.1" r="1.8" fill="#C15065"></circle><circle cx="475.5" cy="496.9" r="1.8" fill="#C15065"></circle><circle cx="478" cy="498.3" r="1.8" fill="#C15065"></circle><circle cx="480.5" cy="496.9" r="1.8" fill="#C15065"></circle><circle cx="483" cy="495.2" r="1.8" fill="#C15065"></circle><circle cx="485.6" cy="494.7" r="1.8" fill="#C15065"></circle><circle cx="488.1" cy="492.8" r="1.8" fill="#C15065"></circle><circle cx="490.6" cy="489.6" r="1.8" fill="#C15065"></circle><circle cx="493.1" cy="493.5" r="1.8" fill="#C15065"></circle><circle cx="495.6" cy="494" r="1.8" fill="#C15065"></circle><circle cx="498.1" cy="491" r="1.8" fill="#C15065"></circle><circle cx="500.6" cy="489.2" r="1.8" fill="#C15065"></circle><circle cx="503.1" cy="489.7" r="1.8" fill="#C15065"></circle><circle cx="505.6" cy="495.3" r="1.8" fill="#C15065"></circle><circle cx="508.1" cy="489.4" r="1.8" fill="#C15065"></circle><circle cx="510.6" cy="494.5" r="1.8" fill="#C15065"></circle><circle cx="513.1" cy="492.7" r="1.8" fill="#C15065"></circle><circle cx="515.6" cy="487.6" r="1.8" fill="#C15065"></circle><circle cx="518.1" cy="487.4" r="1.8" fill="#C15065"></circle><circle cx="520.6" cy="487" r="1.8" fill="#C15065"></circle><circle cx="523.1" cy="487.7" r="1.8" fill="#C15065"></circle><circle cx="525.7" cy="483.7" r="1.8" fill="#C15065"></circle><circle cx="528.2" cy="484" r="1.8" fill="#C15065"></circle><circle cx="530.7" cy="480.5" r="1.8" fill="#C15065"></circle><circle cx="533.2" cy="484.4" r="1.8" fill="#C15065"></circle><circle cx="535.7" cy="489.4" r="1.8" fill="#C15065"></circle><circle cx="538.2" cy="493.5" r="1.8" fill="#C15065"></circle><circle cx="540.7" cy="491.5" r="1.8" fill="#C15065"></circle><circle cx="543.2" cy="488.1" r="1.8" fill="#C15065"></circle><circle cx="545.7" cy="485.9" r="1.8" fill="#C15065"></circle><circle cx="548.2" cy="481.5" r="1.8" fill="#C15065"></circle><circle cx="550.7" cy="478.1" r="1.8" fill="#C15065"></circle><circle cx="553.2" cy="481.2" r="1.8" fill="#C15065"></circle><circle cx="555.7" cy="478.3" r="1.8" fill="#C15065"></circle><circle cx="558.2" cy="473.5" r="1.8" fill="#C15065"></circle><circle cx="560.7" cy="472.2" r="1.8" fill="#C15065"></circle><circle cx="563.3" cy="472.3" r="1.8" fill="#C15065"></circle><circle cx="565.8" cy="471.3" r="1.8" fill="#C15065"></circle><circle cx="568.3" cy="470.4" r="1.8" fill="#C15065"></circle><circle cx="570.8" cy="480.6" r="1.8" fill="#C15065"></circle><circle cx="573.3" cy="476" r="1.8" fill="#C15065"></circle><circle cx="575.8" cy="470.1" r="1.8" fill="#C15065"></circle><circle cx="578.3" cy="466.7" r="1.8" fill="#C15065"></circle><circle cx="580.8" cy="469.7" r="1.8" fill="#C15065"></circle><circle cx="583.3" cy="460.7" r="1.8" fill="#C15065"></circle><circle cx="585.8" cy="455.4" r="1.8" fill="#C15065"></circle><circle cx="588.3" cy="454.3" r="1.8" fill="#C15065"></circle><circle cx="590.8" cy="452.2" r="1.8" fill="#C15065"></circle><circle cx="593.3" cy="450.5" r="1.8" fill="#C15065"></circle><circle cx="595.8" cy="442.7" r="1.8" fill="#C15065"></circle><circle cx="598.3" cy="437" r="1.8" fill="#C15065"></circle><circle cx="600.8" cy="433.9" r="1.8" fill="#C15065"></circle><circle cx="603.4" cy="431.1" r="1.8" fill="#C15065"></circle><circle cx="605.9" cy="425.9" r="1.8" fill="#C15065"></circle><circle cx="608.4" cy="419.6" r="1.8" fill="#C15065"></circle><circle cx="610.9" cy="419.3" r="1.8" fill="#C15065"></circle><circle cx="613.4" cy="415.3" r="1.8" fill="#C15065"></circle><circle cx="615.9" cy="409.1" r="1.8" fill="#C15065"></circle><circle cx="618.4" cy="402.5" r="1.8" fill="#C15065"></circle><circle cx="620.9" cy="396.7" r="1.8" fill="#C15065"></circle><circle cx="623.4" cy="390.2" r="1.8" fill="#C15065"></circle><circle cx="625.9" cy="385.7" r="1.8" fill="#C15065"></circle><circle cx="628.4" cy="377.7" r="1.8" fill="#C15065"></circle><circle cx="630.9" cy="367.6" r="1.8" fill="#C15065"></circle><circle cx="633.4" cy="354" r="1.8" fill="#C15065"></circle><circle cx="635.9" cy="346.8" r="1.8" fill="#C15065"></circle><circle cx="638.4" cy="338.3" r="1.8" fill="#C15065"></circle><circle cx="641" cy="328" r="1.8" fill="#C15065"></circle><circle cx="643.5" cy="328.9" r="1.8" fill="#C15065"></circle><circle cx="646" cy="328.4" r="1.8" fill="#C15065"></circle><circle cx="648.5" cy="317.3" r="1.8" fill="#C15065"></circle><circle cx="651" cy="311.2" r="1.8" fill="#C15065"></circle><circle cx="653.5" cy="304.5" r="1.8" fill="#C15065"></circle><circle cx="656" cy="298" r="1.8" fill="#C15065"></circle><circle cx="658.5" cy="299.5" r="1.8" fill="#C15065"></circle><circle cx="661" cy="305" r="1.8" fill="#C15065"></circle><circle cx="663.5" cy="306.8" r="1.8" fill="#C15065"></circle><circle cx="666" cy="305.4" r="1.8" fill="#C15065"></circle><circle cx="668.5" cy="297.6" r="1.8" fill="#C15065"></circle><circle cx="671" cy="289.7" r="1.8" fill="#C15065"></circle><circle cx="673.5" cy="286.1" r="1.8" fill="#C15065"></circle><circle cx="676" cy="278.5" r="1.8" fill="#C15065"></circle><circle cx="678.5" cy="268.6" r="1.8" fill="#C15065"></circle><circle cx="681.1" cy="265" r="1.8" fill="#C15065"></circle><circle cx="683.6" cy="260.6" r="1.8" fill="#C15065"></circle><circle cx="686.1" cy="254.9" r="1.8" fill="#C15065"></circle><circle cx="688.6" cy="262.8" r="1.8" fill="#C15065"></circle><circle cx="691.1" cy="260" r="1.8" fill="#C15065"></circle><circle cx="693.6" cy="257.2" r="1.8" fill="#C15065"></circle><circle cx="696.1" cy="251.4" r="1.8" fill="#C15065"></circle><circle cx="698.6" cy="242.7" r="1.8" fill="#C15065"></circle><circle cx="701.1" cy="241" r="1.8" fill="#C15065"></circle><circle cx="703.6" cy="241.8" r="1.8" fill="#C15065"></circle><circle cx="706.1" cy="235.8" r="1.8" fill="#C15065"></circle><circle cx="708.6" cy="227.9" r="1.8" fill="#C15065"></circle><circle cx="711.1" cy="225.8" r="1.8" fill="#C15065"></circle><circle cx="713.6" cy="219" r="1.8" fill="#C15065"></circle><circle cx="716.1" cy="202.3" r="1.8" fill="#C15065"></circle><circle cx="718.6" cy="190.7" r="1.8" fill="#C15065"></circle><circle cx="721.2" cy="179.2" r="1.8" fill="#C15065"></circle><circle cx="723.7" cy="167.1" r="1.8" fill="#C15065"></circle><circle cx="726.2" cy="156.5" r="1.8" fill="#C15065"></circle><circle cx="728.7" cy="150" r="1.8" fill="#C15065"></circle><circle cx="731.2" cy="156.6" r="1.8" fill="#C15065"></circle><circle cx="733.7" cy="135" r="1.8" fill="#C15065"></circle><circle cx="736.2" cy="121.5" r="1.8" fill="#C15065"></circle><circle cx="738.7" cy="115.6" r="1.8" fill="#C15065"></circle><circle cx="741.2" cy="112.1" r="1.8" fill="#C15065"></circle><circle cx="743.7" cy="109.3" r="1.8" fill="#C15065"></circle><circle cx="746.2" cy="109.3" r="1.8" fill="#C15065"></circle><circle cx="748.7" cy="109.4" r="1.8" fill="#C15065"></circle><circle cx="751.2" cy="102.6" r="1.8" fill="#C15065"></circle><circle cx="753.7" cy="93.8" r="1.8" fill="#C15065"></circle><circle cx="756.2" cy="90.6" r="1.8" fill="#C15065"></circle><circle cx="758.8" cy="114.7" r="1.8" fill="#C15065"></circle><circle cx="761.3" cy="93.2" r="1.8" fill="#C15065"></circle><circle cx="763.8" cy="89.3" r="1.8" fill="#C15065"></circle></g></g></g></g></g></g><g id="footer" class="SourcesFooter" style="fill:#5b5b5b"><g id="sources" class="markdown-text-wrap"><text x="16.0" y="580.9" style="font-size:13.5px;line-height:1.2"><tspan x="16" y="580.9"><tspan style="font-weight:700">Data source:</tspan> Global Carbon Budget (2023)</tspan></text></g><text id="origin-url" font-size="13.50" x="440.7" y="580.9"><tspan x="440.74499999999995" y="580.895"><a target="_blank" style="fill: #5b5b5b;" href="https://ourworldindata.org/co2-and-greenhouse-gas-emissions">OurWorldInData.org/co2-and-greenhouse-gas-emissions</a> | <a target="_blank" style="fill: #5b5b5b;" href="https://creativecommons.org/licenses/by/4.0/">CC BY</a></tspan></text></g></svg>