<svg xmlns="http://www.w3.org/2000/svg" version="1.1" style="font-family:Lato, &#x27;Helvetica Neue&#x27;, Helvetica, Arial, &#x27;Liberation Sans&#x27;, sans-serif;font-size:18px;background-color:white;text-rendering:geometricPrecision;-webkit-font-smoothing:antialiased" width="850" height="676.55" viewBox="0 0 850 676.55"><defs><style>@import url(https://ourworldindata.org/fonts.css)</style></defs><defs><pattern id="noDataPattern" patternUnits="userSpaceOnUse" width="4" height="4" patternTransform="rotate(-45 2 2)"><path d="M -1,2 l 6,0" stroke="#ccc" stroke-width="0.7"></path></pattern></defs><rect class="background-fill" fill="white" width="850" height="676.55"></rect><g id="header" class="HeaderView"><g id="logo" transform="translate(769, 16) scale(1)"><svg className="owidLogo" xmlns="http://www.w3.org/2000/svg" width="65" height="36" viewBox="0 0 65 36"  fill="none"><path fill="#002147" d="M0 0h64.8v36H0z"/><path fill="#CE261E" d="M0 33.3h64.8V36H0z"/><path fill="#fff" d="M13.796 10.575c0 .636-.106 1.226-.318 1.77a4.193 4.193 0 0 1-.894 1.404 4.084 4.084 0 0 1-1.386.93c-.54.22-1.138.33-1.794.33-.656 0-1.256-.11-1.8-.33a4.149 4.149 0 0 1-1.392-.93 4.193 4.193 0 0 1-.894-1.404A4.833 4.833 0 0 1 5 10.575c0-.636.106-1.224.318-1.764a4.18 4.18 0 0 1 .894-1.41 4.076 4.076 0 0 1 1.392-.924 4.684 4.684 0 0 1 1.8-.336c.656 0 1.254.112 1.794.336.54.224 1.002.534 1.386.93.384.392.682.86.894 1.404.212.54.318 1.128.318 1.764Zm-1.656 0c0-.476-.064-.902-.192-1.278a2.671 2.671 0 0 0-.54-.966 2.332 2.332 0 0 0-.864-.606 2.94 2.94 0 0 0-1.14-.21c-.424 0-.806.07-1.146.21-.34.14-.63.342-.87.606a2.742 2.742 0 0 0-.546.966 3.955 3.955 0 0 0-.192 1.278c0 .476.064.904.192 1.284.128.376.31.696.546.96.24.26.53.46.87.6.34.14.722.21 1.146.21.424 0 .804-.07 1.14-.21.34-.14.628-.34.864-.6.236-.264.416-.584.54-.96a4.01 4.01 0 0 0 .192-1.284ZM16.104 8.757v3.912c0 .376.086.668.258.876.176.204.438.306.786.306.256 0 .496-.056.72-.168a2.58 2.58 0 0 0 .636-.474V8.757h1.482v6.156h-.906c-.192 0-.318-.09-.378-.27l-.102-.492a4.65 4.65 0 0 1-.396.354 2.577 2.577 0 0 1-.438.27 2.35 2.35 0 0 1-.498.168 2.345 2.345 0 0 1-.57.066c-.336 0-.634-.056-.894-.168a1.821 1.821 0 0 1-.648-.486 2.157 2.157 0 0 1-.402-.738 3.233 3.233 0 0 1-.132-.948V8.757h1.482ZM21.328 14.913V8.757h.87c.152 0 .258.028.318.084.06.056.1.152.12.288l.09.744c.22-.38.478-.68.774-.9.296-.22.628-.33.996-.33.304 0 .556.07.756.21l-.192 1.11c-.012.072-.038.124-.078.156a.278.278 0 0 1-.162.042 1.01 1.01 0 0 1-.246-.042 1.646 1.646 0 0 0-.414-.042c-.308 0-.572.086-.792.258-.22.168-.406.416-.558.744v3.834h-1.482ZM27.347 6.237h1.356a.57.57 0 0 1 .348.102c.096.064.16.152.192.264l1.476 5.19c.036.128.068.268.096.42.032.148.062.306.09.474a5.968 5.968 0 0 1 .228-.894l1.704-5.19a.575.575 0 0 1 .186-.252.543.543 0 0 1 .348-.114h.474a.57.57 0 0 1 .348.102.497.497 0 0 1 .192.264l1.692 5.19c.088.256.164.54.228.852.028-.156.056-.306.084-.45.032-.144.064-.278.096-.402l1.476-5.19c.028-.1.09-.186.186-.258a.563.563 0 0 1 .348-.108h1.266l-2.694 8.676h-1.458l-1.896-5.928-.078-.246a9.504 9.504 0 0 1-.072-.282c-.024.1-.05.194-.078.282-.024.088-.048.17-.072.246l-1.914 5.928H30.04l-2.694-8.676ZM42.771 8.661c.46 0 .876.074 1.248.222.376.148.696.358.96.63s.468.604.612.996c.144.392.216.83.216 1.314 0 .488-.072.928-.216 1.32a2.85 2.85 0 0 1-.612 1.002 2.653 2.653 0 0 1-.96.636 3.35 3.35 0 0 1-1.248.222c-.46 0-.878-.074-1.254-.222a2.712 2.712 0 0 1-.966-.636 2.922 2.922 0 0 1-.618-1.002 3.807 3.807 0 0 1-.216-1.32c0-.484.072-.922.216-1.314.148-.392.354-.724.618-.996.268-.272.59-.482.966-.63a3.397 3.397 0 0 1 1.254-.222Zm0 5.202c.512 0 .89-.172 1.134-.516.248-.344.372-.848.372-1.512s-.124-1.17-.372-1.518c-.244-.348-.622-.522-1.134-.522-.52 0-.904.176-1.152.528-.248.348-.372.852-.372 1.512s.124 1.164.372 1.512c.248.344.632.516 1.152.516ZM46.723 14.913V8.757h.87c.152 0 .258.028.318.084.06.056.1.152.12.288l.09.744c.22-.38.478-.68.774-.9.296-.22.628-.33.996-.33.304 0 .556.07.756.21l-.192 1.11c-.012.072-.038.124-.078.156a.278.278 0 0 1-.162.042 1.01 1.01 0 0 1-.246-.042 1.646 1.646 0 0 0-.414-.042c-.308 0-.572.086-.792.258-.22.168-.406.416-.558.744v3.834h-1.482ZM52.96 5.997v8.916h-1.482V5.997h1.482ZM58.732 14.913c-.192 0-.318-.09-.378-.27l-.12-.594a3.68 3.68 0 0 1-.402.39c-.14.116-.292.216-.456.3-.16.084-.334.148-.522.192a2.372 2.372 0 0 1-.6.072c-.336 0-.644-.07-.924-.21a2.098 2.098 0 0 1-.726-.606 3.033 3.033 0 0 1-.468-.99 5.072 5.072 0 0 1-.162-1.344c0-.456.062-.88.186-1.272s.302-.732.534-1.02c.232-.288.51-.512.834-.672a2.384 2.384 0 0 1 1.092-.246 2.103 2.103 0 0 1 1.536.606V5.997h1.482v8.916h-.906Zm-1.974-1.086c.308 0 .57-.064.786-.192.216-.128.42-.31.612-.546v-2.76a1.452 1.452 0 0 0-.552-.432 1.597 1.597 0 0 0-.636-.126c-.224 0-.428.042-.612.126a1.21 1.21 0 0 0-.462.384c-.124.168-.22.384-.288.648-.068.26-.102.568-.102.924 0 .36.028.666.084.918.06.248.144.452.252.612.108.156.24.27.396.342.156.068.33.102.522.102ZM16.331 20.757v6.156H14.85v-6.156h1.481Zm.223-1.794a.844.844 0 0 1-.078.36.963.963 0 0 1-.21.294.995.995 0 0 1-.3.204.963.963 0 0 1-.372.072.948.948 0 0 1-.367-.072 1.018 1.018 0 0 1-.498-.498.963.963 0 0 1 0-.732.995.995 0 0 1 .205-.3.929.929 0 0 1 .293-.198.899.899 0 0 1 .738 0 .912.912 0 0 1 .3.198.943.943 0 0 1 .288.672ZM17.771 26.913v-6.156h.906c.192 0 .318.09.378.27l.102.486a2.934 2.934 0 0 1 .828-.618c.156-.076.322-.134.498-.174.176-.04.368-.06.576-.06.336 0 .634.058.894.174.26.112.476.272.648.48.176.204.308.45.396.738.092.284.138.598.138.942v3.918h-1.482v-3.918c0-.376-.088-.666-.264-.87-.172-.208-.432-.312-.78-.312-.256 0-.496.058-.72.174a2.58 2.58 0 0 0-.636.474v4.452h-1.482ZM34.22 22.575c0 .636-.106 1.22-.318 1.752-.212.532-.51.99-.894 1.374a4 4 0 0 1-1.386.894 4.87 4.87 0 0 1-1.794.318h-3.312v-8.676h3.312a4.79 4.79 0 0 1 1.794.324 4 4 0 0 1 1.386.894c.384.38.682.836.894 1.368.212.532.318 1.116.318 1.752Zm-1.65 0c0-.476-.064-.902-.192-1.278a2.68 2.68 0 0 0-.546-.96 2.332 2.332 0 0 0-.864-.606 2.94 2.94 0 0 0-1.14-.21h-1.686v6.108h1.686c.424 0 .804-.07 1.14-.21.34-.14.628-.34.864-.6a2.75 2.75 0 0 0 .546-.96 4.01 4.01 0 0 0 .192-1.284ZM39.98 26.913h-.665c-.14 0-.25-.02-.33-.06-.08-.044-.14-.13-.18-.258l-.132-.438c-.156.14-.31.264-.462.372a2.804 2.804 0 0 1-.462.264c-.16.072-.33.126-.51.162-.18.036-.38.054-.6.054-.26 0-.5-.034-.72-.102a1.618 1.618 0 0 1-.57-.318 1.448 1.448 0 0 1-.366-.522 1.852 1.852 0 0 1-.132-.726c0-.232.06-.46.18-.684.124-.228.328-.432.612-.612.284-.184.662-.336 1.134-.456.472-.12 1.058-.188 1.758-.204v-.36c0-.412-.088-.716-.264-.912-.172-.2-.424-.3-.756-.3a1.837 1.837 0 0 0-1.02.276c-.116.068-.224.13-.324.186a.664.664 0 0 1-.33.084.429.429 0 0 1-.258-.078.614.614 0 0 1-.174-.192l-.27-.474c.708-.648 1.562-.972 2.562-.972.36 0 .68.06.96.18.284.116.524.28.72.492.196.208.344.458.444.75.104.292.156.612.156.96v3.888Zm-2.88-.924c.153 0 .293-.014.42-.042.129-.028.249-.07.36-.126.117-.056.227-.124.33-.204.109-.084.217-.182.325-.294v-1.038c-.432.02-.794.058-1.086.114-.288.052-.52.12-.696.204a.923.923 0 0 0-.378.294.664.664 0 0 0-.108.366c0 .26.076.446.228.558.156.112.358.168.606.168ZM43.22 27.01c-.532 0-.942-.15-1.23-.45-.288-.305-.432-.723-.432-1.255v-3.438h-.624a.31.31 0 0 1-.21-.078c-.056-.052-.084-.13-.084-.234v-.588l.99-.162.312-1.68a.302.302 0 0 1 .108-.186.365.365 0 0 1 .222-.066h.768v1.938h1.62v1.056h-1.62v3.336c0 .192.048.342.144.45a.488.488 0 0 0 .384.162c.092 0 .168-.01.228-.03.064-.024.118-.048.162-.072.048-.024.09-.046.126-.066a.194.194 0 0 1 .108-.036.16.16 0 0 1 .108.036c.028.02.058.052.09.096l.444.72c-.216.18-.464.316-.744.408a2.77 2.77 0 0 1-.87.138ZM50.423 26.913h-.666c-.14 0-.25-.02-.33-.06-.08-.044-.14-.13-.18-.258l-.132-.438c-.156.14-.31.264-.462.372a2.804 2.804 0 0 1-.462.264c-.16.072-.33.126-.51.162-.18.036-.38.054-.6.054-.26 0-.5-.034-.72-.102a1.618 1.618 0 0 1-.57-.318 1.448 1.448 0 0 1-.366-.522 1.852 1.852 0 0 1-.132-.726c0-.232.06-.46.18-.684.124-.228.328-.432.612-.612.284-.184.662-.336 1.134-.456.472-.12 1.058-.188 1.758-.204v-.36c0-.412-.088-.716-.264-.912-.172-.2-.424-.3-.756-.3a1.837 1.837 0 0 0-1.02.276c-.116.068-.224.13-.324.186a.664.664 0 0 1-.33.084.429.429 0 0 1-.258-.078.614.614 0 0 1-.174-.192l-.27-.474c.708-.648 1.562-.972 2.562-.972.36 0 .68.06.96.18.284.116.524.28.72.492.196.208.344.458.444.75.104.292.156.612.156.96v3.888Zm-2.88-.924c.152 0 .292-.014.42-.042.128-.028.248-.07.36-.126.116-.056.226-.124.33-.204.108-.084.216-.182.324-.294v-1.038c-.432.02-.794.058-1.086.114-.288.052-.52.12-.696.204a.923.923 0 0 0-.378.294.664.664 0 0 0-.108.366c0 .26.076.446.228.558.156.112.358.168.606.168Z"/></svg></g><a id="title" href="https://ourworldindata.org/grapher/annual-co2-emissions-per-country?country=USA~OWID_EUR" style="font-family:&#x27;Playfair Display&#x27;, Georgia, &#x27;Times New Roman&#x27;, &#x27;Liberation Serif&#x27;, serif" target="_blank" rel="noopener"><text font-size="24.75" font-weight="600" x="16.0" y="40.0" fill="#5b5b5b"><tspan x="16" y="40.0075">Annual CO₂ emissions</tspan></text></a><g id="subtitle" class="markdown-text-wrap"><text x="16.0" y="63.9" style="font-size:14.625px;line-height:1.2" fill="#5b5b5b"><tspan x="16" y="63.9">Carbon dioxide (CO₂) emissions from <tspan class="dod-span" data-id="fossilemissions">fossil fuels and industry<tspan style="font-feature-settings:&quot;sups&quot;">¹</tspan></tspan>. Land-use change is not included.</tspan></text></g></g><g id="chart-area" style="pointer-events:none"><g id="line-chart" class="LineChart"><defs><clipPath id="boundsClip-2"><rect x="64.46000000000001" y="73.25" width="838" height="488.55"></rect></clipPath></defs><rect x="16" y="83.25" width="818" height="468.55" fill="none"></rect><g id="dual-axis" class="DualAxisView"><g id="horizontal-axis" class="HorizontalAxis"><g id="tick__1750"><line x1="74.5" y1="530.8" x2="74.5" y2="536.3" stroke="#999" stroke-width="1"></line><text x="74.46000000000001" y="549.8" fill="#5b5b5b" text-anchor="start" font-size="13.5">1750</text></g><g id="tick__2022"><line x1="717.6" y1="530.8" x2="717.6" y2="536.3" stroke="#999" stroke-width="1"></line><text x="717.595" y="549.8" fill="#5b5b5b" text-anchor="end" font-size="13.5">2022</text></g><g id="tick__1800"><line x1="192.7" y1="530.8" x2="192.7" y2="536.3" stroke="#999" stroke-width="1"></line><text x="192.7" y="549.8" fill="#5b5b5b" text-anchor="middle" font-size="13.5">1800</text></g><g id="tick__1850"><line x1="310.9" y1="530.8" x2="310.9" y2="536.3" stroke="#999" stroke-width="1"></line><text x="310.9" y="549.8" fill="#5b5b5b" text-anchor="middle" font-size="13.5">1850</text></g><g id="tick__1900"><line x1="429.1" y1="530.8" x2="429.1" y2="536.3" stroke="#999" stroke-width="1"></line><text x="429.1" y="549.8" fill="#5b5b5b" text-anchor="middle" font-size="13.5">1900</text></g><g id="tick__1950"><line x1="547.4" y1="530.8" x2="547.4" y2="536.3" stroke="#999" stroke-width="1"></line><text x="547.4" y="549.8" fill="#5b5b5b" text-anchor="middle" font-size="13.5">1950</text></g><g id="tick__2000"><line x1="665.6" y1="530.8" x2="665.6" y2="536.3" stroke="#999" stroke-width="1"></line><text x="665.6" y="549.8" fill="#5b5b5b" text-anchor="middle" font-size="13.5">2000</text></g></g><g id="vertical-axis" class="VerticalAxis"><g id="tick-labels"><text id="tick-label__0-t" x="69.46" y="531.3" dy=".32em" text-anchor="end" fill="#5b5b5b" font-size="13.5">0 t</text><text id="tick-label__1-billion-t" x="69.46" y="476.3" dy=".32em" text-anchor="end" fill="#5b5b5b" font-size="13.5">1 billion t</text><text id="tick-label__2-billion-t" x="69.46" y="421.3" dy=".32em" text-anchor="end" fill="#5b5b5b" font-size="13.5">2 billion t</text><text id="tick-label__3-billion-t" x="69.46" y="366.3" dy=".32em" text-anchor="end" fill="#5b5b5b" font-size="13.5">3 billion t</text><text id="tick-label__4-billion-t" x="69.46" y="311.3" dy=".32em" text-anchor="end" fill="#5b5b5b" font-size="13.5">4 billion t</text><text id="tick-label__5-billion-t" x="69.46" y="256.3" dy=".32em" text-anchor="end" fill="#5b5b5b" font-size="13.5">5 billion t</text><text id="tick-label__6-billion-t" x="69.46" y="201.3" dy=".32em" text-anchor="end" fill="#5b5b5b" font-size="13.5">6 billion t</text><text id="tick-label__7-billion-t" x="69.46" y="146.4" dy=".32em" text-anchor="end" fill="#5b5b5b" font-size="13.5">7 billion t</text><text id="tick-label__8-billion-t" x="69.46" y="91.4" dy=".32em" text-anchor="end" fill="#5b5b5b" font-size="13.5">8 billion t</text></g></g><g id="horizontal-grid-lines" class="AxisGridLines horizontalLines"><line id="grid-line__0" x1="74.46" y1="531.3" x2="717.60" y2="531.3" stroke="#999" stroke-width="1"></line><line id="grid-line__1000000000" x1="74.46" y1="476.3" x2="717.60" y2="476.3" stroke="#ddd" stroke-width="1" stroke-dasharray="3,2"></line><line id="grid-line__2000000000" x1="74.46" y1="421.3" x2="717.60" y2="421.3" stroke="#ddd" stroke-width="1" stroke-dasharray="3,2"></line><line id="grid-line__3000000000" x1="74.46" y1="366.3" x2="717.60" y2="366.3" stroke="#ddd" stroke-width="1" stroke-dasharray="3,2"></line><line id="grid-line__4000000000" x1="74.46" y1="311.3" x2="717.60" y2="311.3" stroke="#ddd" stroke-width="1" stroke-dasharray="3,2"></line><line id="grid-line__5000000000" x1="74.46" y1="256.3" x2="717.60" y2="256.3" stroke="#ddd" stroke-width="1" stroke-dasharray="3,2"></line><line id="grid-line__6000000000" x1="74.46" y1="201.3" x2="717.60" y2="201.3" stroke="#ddd" stroke-width="1" stroke-dasharray="3,2"></line><line id="grid-line__7000000000" x1="74.46" y1="146.4" x2="717.60" y2="146.4" stroke="#ddd" stroke-width="1" stroke-dasharray="3,2"></line><line id="grid-line__8000000000" x1="74.46" y1="91.4" x2="717.60" y2="91.4" stroke="#ddd" stroke-width="1" stroke-dasharray="3,2"></line></g></g><g clip-path="url(#boundsClip-2)"><g id="line-labels" class="LineLabels"><g id="mark__Europe" class="legendMark" style="cursor:default"><rect id="background" x="717.595" y="237.35" width="78.74000000000001" height="13.5" fill="#fff" opacity="0"></rect><text id="label" font-size="13.50" font-weight="400" x="721.6" y="249.1" fill="#883039"><tspan x="721.595" y="249.095">Europe</tspan></text></g><g id="mark__United-States" class="legendMark" style="cursor:default"><rect id="background" x="717.595" y="252.85" width="116.405" height="13.5" fill="#fff" opacity="0"></rect><text id="label" font-size="13.50" font-weight="400" x="721.6" y="264.6" fill="#be5915"><tspan x="721.595" y="264.59499999999997">United States</tspan></text></g></g><g id="lines" class="Lines"><rect x="74" y="89" width="643" height="442" fill="rgba(255,255,255,0)" opacity="0"></rect><g id="line__United-States"><path stroke-linecap="round" stroke-linejoin="round" stroke="#ddd" d="M192.7 531.3L195 531.3L197.4 531.3L199.8 531.3L202.1 531.3L204.5 531.3L206.9 531.3L209.2 531.3L211.6 531.3L214 531.3L216.3 531.3L218.7 531.3L221.1 531.3L223.4 531.3L225.8 531.3L228.2 531.3L230.5 531.3L232.9 531.3L235.2 531.3L237.6 531.3L240 531.3L242.3 531.3L244.7 531.3L247.1 531.3L249.4 531.2L251.8 531.2L254.2 531.2L256.5 531.2L258.9 531.2L261.3 531.2L263.6 531.2L266 531.2L268.3 531.1L270.7 531.1L273.1 531.1L275.4 531.1L277.8 531L280.2 531L282.5 531L284.9 531L287.3 531L289.6 531L292 530.9L294.4 530.9L296.7 530.8L299.1 530.7L301.4 530.6L303.8 530.5L306.2 530.4L308.5 530.3L310.9 530.2L313.3 529.9L315.6 529.8L318 529.6L320.4 529.5L322.7 529.2L325.1 529.1L327.5 529L329.8 529L332.2 528.8L334.6 528.7L336.9 528.8L339.3 528.7L341.6 528.3L344 528.1L346.4 528.1L348.7 528L351.1 527.3L353.5 526.8L355.8 526.1L358.2 525.9L360.6 525.6L362.9 524.4L365.3 523.6L367.7 523.9L370 523.8L372.4 524L374.7 523.2L377.1 523.4L379.5 521.7L381.8 520.4L384.2 519.7L386.6 518.4L388.9 517.3L391.3 516.6L393.7 516.3L396 515.5L398.4 514.4L400.8 510.7L403.1 512.8L405.5 509.2L407.8 507.8L410.2 506.5L412.6 506.3L414.9 507.9L417.3 504.9L419.7 504.9L422 503.8L424.4 501.3L426.8 496.9L429.1 494.9L431.5 491.6L433.9 489.3L436.2 482.1L438.6 482.8L441 477.1L443.3 474.4L445.7 465.1L448 473.4L450.4 467.2L452.8 461.4L455.1 462.1L457.5 457.4L459.9 452L462.2 458.8L464.6 456.1L467 447.8L469.3 439.4L471.7 435.2L474.1 450L476.4 435.7L478.8 453L481.1 452.3L483.5 427L485.9 437.9L488.2 434.6L490.6 426.5L493 428.9L495.3 430.6L497.7 423.3L500.1 435.3L502.4 449.6L504.8 462.1L507.2 457.1L509.5 452.3L511.9 449.2L514.3 437.1L516.6 432.7L519 447.9L521.3 439.4L523.7 428.2L526.1 418.9L528.4 410.4L530.8 406.4L533.2 396.8L535.5 401.5L537.9 407.2L540.3 394.6L542.6 389.3L545 412.2L547.4 391.5L549.7 387.3L552.1 391L554.4 387.6L556.8 394.4L559.2 381.3L561.5 374L563.9 375.4L566.3 380.2L568.6 375.6L571 372L573.4 372.5L575.7 366.7L578.1 359.4L580.5 351.8L582.8 344.4L585.2 334.9L587.5 327.5L589.9 320.1L592.3 309.4L594.6 292.7L597 291.2L599.4 279.8L601.7 268.2L604.1 277.2L606.5 285L608.8 270.2L611.2 262.4L613.6 259.6L615.9 255.9L618.3 266.9L620.7 273.6L623 286.7L625.4 287.7L627.7 274.9L630.1 275.4L632.5 274.8L634.8 265.9L637.2 253.6L639.6 249.1L641.9 249.7L644.3 252.9L646.7 246.8L649 241.3L651.4 236.3L653.8 233L656.1 222.6L658.5 218.5L660.8 216L663.2 212.1L665.6 200.8L667.9 206.4L670.3 204.3L672.7 200.8L675 195.2L677.4 194.1L679.8 198.5L682.1 194.2L684.5 206L686.9 229.9L689.2 219L691.6 226.3L694 237.4L696.3 229.9L698.7 227.3L701 235.6L703.4 242.4L705.8 244.7L708.1 235.6L710.5 241.9L712.9 272L715.2 254.6L717.6 253.2" fill="none" stroke-width="1"></path></g><g id="line__Europe"><path stroke-linecap="round" stroke-linejoin="round" stroke="#ddd" d="M74.5 530.8L76.8 530.8L79.2 530.8L81.6 530.8L83.9 530.8L86.3 530.8L88.6 530.8L91 530.7L93.4 530.7L95.7 530.7L98.1 530.7L100.5 530.7L102.8 530.7L105.2 530.7L107.6 530.7L109.9 530.7L112.3 530.6L114.7 530.6L117 530.6L119.4 530.6L121.7 530.6L124.1 530.6L126.5 530.6L128.8 530.5L131.2 530.5L133.6 530.5L135.9 530.5L138.3 530.5L140.7 530.5L143 530.4L145.4 530.4L147.8 530.4L150.1 530.4L152.5 530.4L154.9 530.3L157.2 530.3L159.6 530.3L161.9 530.3L164.3 530.2L166.7 530.2L169 530.2L171.4 530.1L173.8 530.1L176.1 530.1L178.5 530.1L180.9 530.1L183.2 530.1L185.6 530.1L188 530L190.3 529.8L192.7 529.5L195 529.6L197.4 529.1L199.8 529.7L202.1 529.6L204.5 529.6L206.9 529.5L209.2 529.3L211.6 529.4L214 529.3L216.3 529.2L218.7 529.1L221.1 529.1L223.4 529.1L225.8 529L228.2 528.9L230.5 528.8L232.9 528.6L235.2 528.5L237.6 528.5L240 528.6L242.3 528.5L244.7 528.4L247.1 528.3L249.4 528.2L251.8 528L254.2 528L256.5 527.8L258.9 527.7L261.3 527.8L263.6 526.5L266 526.8L268.3 527L270.7 526.9L273.1 526.6L275.4 526.2L277.8 525.7L280.2 525.8L282.5 525.8L284.9 525.6L287.3 525.1L289.6 524.9L292 524.6L294.4 524.5L296.7 524L299.1 523.4L301.4 523.3L303.8 522.7L306.2 522.7L308.5 522.1L310.9 521.6L313.3 521.7L315.6 521.4L318 521L320.4 519.1L322.7 519.1L325.1 518.3L327.5 518.2L329.8 518L332.2 517.3L334.6 515.8L336.9 514.8L339.3 514.5L341.6 513.6L344 512.2L346.4 510.9L348.7 510.2L351.1 509.2L353.5 509L355.8 507.9L358.2 507.6L360.6 506L362.9 504L365.3 502.6L367.7 504.7L370 501.9L372.4 501.2L374.7 501.3L377.1 501L379.5 500L381.8 496.1L384.2 495.1L386.6 493.9L388.9 491.8L391.3 492L393.7 491.9L396 491.9L398.4 490.4L400.8 488L403.1 486L405.5 483.9L407.8 482.2L410.2 482.9L412.6 484.3L414.9 480.3L417.3 478.9L419.7 476.5L422 473.8L424.4 472L426.8 468.1L429.1 465L431.5 465.6L433.9 465.5L436.2 462.8L438.6 461.5L441 459.5L443.3 457.2L445.7 449.2L448 447.9L450.4 447.8L452.8 446.7L455.1 444.7L457.5 441.5L459.9 434.1L462.2 444.7L464.6 449.2L467 445.4L469.3 447L471.7 454.6L474.1 466.2L476.4 455.8L478.8 462.4L481.1 454.4L483.5 457.8L485.9 446.5L488.2 447.3L490.6 459.3L493 439.4L495.3 439.1L497.7 431.2L500.1 436.6L502.4 442.9L504.8 449.2L507.2 446.8L509.5 438.8L511.9 434.1L514.3 428.1L516.6 419.3L519 418.8L521.3 416.1L523.7 408.7L526.1 413.4L528.4 421.5L530.8 421.1L533.2 427.4L535.5 463.4L537.9 440.1L540.3 426.3L542.6 418.2L545 407.9L547.4 400.2L549.7 386.7L552.1 382L554.4 377.8L556.8 368L559.2 353.5L561.5 341.8L563.9 333.7L566.3 331.6L568.6 327.1L571 313.3L573.4 305.3L575.7 292.8L578.1 277.8L580.5 265.2L582.8 257.4L585.2 247.9L587.5 241.7L589.9 228.2L592.3 211.7L594.6 196.2L597 183.6L599.4 171L601.7 154.9L604.1 153.9L606.5 151.7L608.8 131.1L611.2 128L613.6 115.2L615.9 105.4L618.3 105.2L620.7 120.6L623 123.9L625.4 123.6L627.7 120.8L630.1 103L632.5 102.2L634.8 101L637.2 98.9L639.6 100.8L641.9 89.3L644.3 105.7L646.7 141L649 156.9L651.4 176.7L653.8 178L656.1 175.3L658.5 186.6L660.8 188.1L663.2 192.7L665.6 192.8L667.9 185.8L670.3 187.6L672.7 179.5L675 177.7L677.4 178.2L679.8 172.6L682.1 175L684.5 179.1L686.9 207.2L689.2 194.5L691.6 198.6L694 201.4L696.3 209.9L698.7 222.6L701 222.5L703.4 223L705.8 221.2L708.1 222.7L710.5 232.3L712.9 254.7L715.2 239.3L717.6 250.5" fill="none" stroke-width="1"></path></g><g id="line__United-States"><path id="outline" fill="none" stroke-linecap="butt" stroke-linejoin="round" stroke="#fff" stroke-width="2.5" d="M192.7 531.3L195 531.3L197.4 531.3L199.8 531.3L202.1 531.3L204.5 531.3L206.9 531.3L209.2 531.3L211.6 531.3L214 531.3L216.3 531.3L218.7 531.3L221.1 531.3L223.4 531.3L225.8 531.3L228.2 531.3L230.5 531.3L232.9 531.3L235.2 531.3L237.6 531.3L240 531.3L242.3 531.3L244.7 531.3L247.1 531.3L249.4 531.2L251.8 531.2L254.2 531.2L256.5 531.2L258.9 531.2L261.3 531.2L263.6 531.2L266 531.2L268.3 531.1L270.7 531.1L273.1 531.1L275.4 531.1L277.8 531L280.2 531L282.5 531L284.9 531L287.3 531L289.6 531L292 530.9L294.4 530.9L296.7 530.8L299.1 530.7L301.4 530.6L303.8 530.5L306.2 530.4L308.5 530.3L310.9 530.2L313.3 529.9L315.6 529.8L318 529.6L320.4 529.5L322.7 529.2L325.1 529.1L327.5 529L329.8 529L332.2 528.8L334.6 528.7L336.9 528.8L339.3 528.7L341.6 528.3L344 528.1L346.4 528.1L348.7 528L351.1 527.3L353.5 526.8L355.8 526.1L358.2 525.9L360.6 525.6L362.9 524.4L365.3 523.6L367.7 523.9L370 523.8L372.4 524L374.7 523.2L377.1 523.4L379.5 521.7L381.8 520.4L384.2 519.7L386.6 518.4L388.9 517.3L391.3 516.6L393.7 516.3L396 515.5L398.4 514.4L400.8 510.7L403.1 512.8L405.5 509.2L407.8 507.8L410.2 506.5L412.6 506.3L414.9 507.9L417.3 504.9L419.7 504.9L422 503.8L424.4 501.3L426.8 496.9L429.1 494.9L431.5 491.6L433.9 489.3L436.2 482.1L438.6 482.8L441 477.1L443.3 474.4L445.7 465.1L448 473.4L450.4 467.2L452.8 461.4L455.1 462.1L457.5 457.4L459.9 452L462.2 458.8L464.6 456.1L467 447.8L469.3 439.4L471.7 435.2L474.1 450L476.4 435.7L478.8 453L481.1 452.3L483.5 427L485.9 437.9L488.2 434.6L490.6 426.5L493 428.9L495.3 430.6L497.7 423.3L500.1 435.3L502.4 449.6L504.8 462.1L507.2 457.1L509.5 452.3L511.9 449.2L514.3 437.1L516.6 432.7L519 447.9L521.3 439.4L523.7 428.2L526.1 418.9L528.4 410.4L530.8 406.4L533.2 396.8L535.5 401.5L537.9 407.2L540.3 394.6L542.6 389.3L545 412.2L547.4 391.5L549.7 387.3L552.1 391L554.4 387.6L556.8 394.4L559.2 381.3L561.5 374L563.9 375.4L566.3 380.2L568.6 375.6L571 372L573.4 372.5L575.7 366.7L578.1 359.4L580.5 351.8L582.8 344.4L585.2 334.9L587.5 327.5L589.9 320.1L592.3 309.4L594.6 292.7L597 291.2L599.4 279.8L601.7 268.2L604.1 277.2L606.5 285L608.8 270.2L611.2 262.4L613.6 259.6L615.9 255.9L618.3 266.9L620.7 273.6L623 286.7L625.4 287.7L627.7 274.9L630.1 275.4L632.5 274.8L634.8 265.9L637.2 253.6L639.6 249.1L641.9 249.7L644.3 252.9L646.7 246.8L649 241.3L651.4 236.3L653.8 233L656.1 222.6L658.5 218.5L660.8 216L663.2 212.1L665.6 200.8L667.9 206.4L670.3 204.3L672.7 200.8L675 195.2L677.4 194.1L679.8 198.5L682.1 194.2L684.5 206L686.9 229.9L689.2 219L691.6 226.3L694 237.4L696.3 229.9L698.7 227.3L701 235.6L703.4 242.4L705.8 244.7L708.1 235.6L710.5 241.9L712.9 272L715.2 254.6L717.6 253.2"></path><g id="polyline"><polyline id="polyline" points="192.70,531.30 195.00,531.30 197.40,531.30 199.80,531.30 202.10,531.30 204.50,531.30 206.90,531.30 209.20,531.30 211.60,531.30 214.00,531.30 216.30,531.30 218.70,531.30 221.10,531.30 223.40,531.30 225.80,531.30 228.20,531.30 230.50,531.30 232.90,531.30 235.20,531.30 237.60,531.30 240.00,531.30 242.30,531.30 244.70,531.30 247.10,531.30 249.40,531.20 251.80,531.20 254.20,531.20 256.50,531.20 258.90,531.20 261.30,531.20 263.60,531.20 266.00,531.20 268.30,531.10 270.70,531.10 273.10,531.10 275.40,531.10 277.80,531.00 280.20,531.00 282.50,531.00 284.90,531.00 287.30,531.00 289.60,531.00 292.00,530.90 294.40,530.90 296.70,530.80 299.10,530.70 301.40,530.60 303.80,530.50 306.20,530.40 308.50,530.30 310.90,530.20 313.30,529.90 315.60,529.80 318.00,529.60 320.40,529.50 322.70,529.20 325.10,529.10 327.50,529.00 329.80,529.00 332.20,528.80 334.60,528.70 336.90,528.80 339.30,528.70 341.60,528.30 344.00,528.10 346.40,528.10 348.70,528.00 351.10,527.30 353.50,526.80 355.80,526.10 358.20,525.90 360.60,525.60 362.90,524.40 365.30,523.60 367.70,523.90 370.00,523.80 372.40,524.00 374.70,523.20 377.10,523.40 379.50,521.70 381.80,520.40 384.20,519.70 386.60,518.40 388.90,517.30 391.30,516.60 393.70,516.30 396.00,515.50 398.40,514.40 400.80,510.70 403.10,512.80 405.50,509.20 407.80,507.80 410.20,506.50 412.60,506.30 414.90,507.90 417.30,504.90 419.70,504.90 422.00,503.80 424.40,501.30 426.80,496.90 429.10,494.90 431.50,491.60 433.90,489.30 436.20,482.10 438.60,482.80 441.00,477.10 443.30,474.40 445.70,465.10 448.00,473.40 450.40,467.20 452.80,461.40 455.10,462.10 457.50,457.40 459.90,452.00 462.20,458.80 464.60,456.10 467.00,447.80 469.30,439.40 471.70,435.20 474.10,450.00 476.40,435.70 478.80,453.00 481.10,452.30 483.50,427.00 485.90,437.90 488.20,434.60 490.60,426.50 493.00,428.90 495.30,430.60 497.70,423.30 500.10,435.30 502.40,449.60 504.80,462.10 507.20,457.10 509.50,452.30 511.90,449.20 514.30,437.10 516.60,432.70 519.00,447.90 521.30,439.40 523.70,428.20 526.10,418.90 528.40,410.40 530.80,406.40 533.20,396.80 535.50,401.50 537.90,407.20 540.30,394.60 542.60,389.30 545.00,412.20 547.40,391.50 549.70,387.30 552.10,391.00 554.40,387.60 556.80,394.40 559.20,381.30 561.50,374.00 563.90,375.40 566.30,380.20 568.60,375.60 571.00,372.00 573.40,372.50 575.70,366.70 578.10,359.40 580.50,351.80 582.80,344.40 585.20,334.90 587.50,327.50 589.90,320.10 592.30,309.40 594.60,292.70 597.00,291.20 599.40,279.80 601.70,268.20 604.10,277.20 606.50,285.00 608.80,270.20 611.20,262.40 613.60,259.60 615.90,255.90 618.30,266.90 620.70,273.60 623.00,286.70 625.40,287.70 627.70,274.90 630.10,275.40 632.50,274.80 634.80,265.90 637.20,253.60 639.60,249.10 641.90,249.70 644.30,252.90 646.70,246.80 649.00,241.30 651.40,236.30 653.80,233.00 656.10,222.60 658.50,218.50 660.80,216.00 663.20,212.10 665.60,200.80 667.90,206.40 670.30,204.30 672.70,200.80 675.00,195.20 677.40,194.10 679.80,198.50 682.10,194.20 684.50,206.00 686.90,229.90 689.20,219.00 691.60,226.30 694.00,237.40 696.30,229.90 698.70,227.30 701.00,235.60 703.40,242.40 705.80,244.70 708.10,235.60 710.50,241.90 712.90,272.00 715.20,254.60 717.60,253.20" stroke-linejoin="round" stroke-width="1.5" stroke="#BE5915" fill="none" stroke-linecap="butt"></polyline></g><g id="markers"><circle cx="192.7" cy="531.3" r="1.8" fill="#BE5915"></circle><circle cx="195" cy="531.3" r="1.8" fill="#BE5915"></circle><circle cx="197.4" cy="531.3" r="1.8" fill="#BE5915"></circle><circle cx="199.8" cy="531.3" r="1.8" fill="#BE5915"></circle><circle cx="202.1" cy="531.3" r="1.8" fill="#BE5915"></circle><circle cx="204.5" cy="531.3" r="1.8" fill="#BE5915"></circle><circle cx="206.9" cy="531.3" r="1.8" fill="#BE5915"></circle><circle cx="209.2" cy="531.3" r="1.8" fill="#BE5915"></circle><circle cx="211.6" cy="531.3" r="1.8" fill="#BE5915"></circle><circle cx="214" cy="531.3" r="1.8" fill="#BE5915"></circle><circle cx="216.3" cy="531.3" r="1.8" fill="#BE5915"></circle><circle cx="218.7" cy="531.3" r="1.8" fill="#BE5915"></circle><circle cx="221.1" cy="531.3" r="1.8" fill="#BE5915"></circle><circle cx="223.4" cy="531.3" r="1.8" fill="#BE5915"></circle><circle cx="225.8" cy="531.3" r="1.8" fill="#BE5915"></circle><circle cx="228.2" cy="531.3" r="1.8" fill="#BE5915"></circle><circle cx="230.5" cy="531.3" r="1.8" fill="#BE5915"></circle><circle cx="232.9" cy="531.3" r="1.8" fill="#BE5915"></circle><circle cx="235.2" cy="531.3" r="1.8" fill="#BE5915"></circle><circle cx="237.6" cy="531.3" r="1.8" fill="#BE5915"></circle><circle cx="240" cy="531.3" r="1.8" fill="#BE5915"></circle><circle cx="242.3" cy="531.3" r="1.8" fill="#BE5915"></circle><circle cx="244.7" cy="531.3" r="1.8" fill="#BE5915"></circle><circle cx="247.1" cy="531.3" r="1.8" fill="#BE5915"></circle><circle cx="249.4" cy="531.2" r="1.8" fill="#BE5915"></circle><circle cx="251.8" cy="531.2" r="1.8" fill="#BE5915"></circle><circle cx="254.2" cy="531.2" r="1.8" fill="#BE5915"></circle><circle cx="256.5" cy="531.2" r="1.8" fill="#BE5915"></circle><circle cx="258.9" cy="531.2" r="1.8" fill="#BE5915"></circle><circle cx="261.3" cy="531.2" r="1.8" fill="#BE5915"></circle><circle cx="263.6" cy="531.2" r="1.8" fill="#BE5915"></circle><circle cx="266" cy="531.2" r="1.8" fill="#BE5915"></circle><circle cx="268.3" cy="531.1" r="1.8" fill="#BE5915"></circle><circle cx="270.7" cy="531.1" r="1.8" fill="#BE5915"></circle><circle cx="273.1" cy="531.1" r="1.8" fill="#BE5915"></circle><circle cx="275.4" cy="531.1" r="1.8" fill="#BE5915"></circle><circle cx="277.8" cy="531" r="1.8" fill="#BE5915"></circle><circle cx="280.2" cy="531" r="1.8" fill="#BE5915"></circle><circle cx="282.5" cy="531" r="1.8" fill="#BE5915"></circle><circle cx="284.9" cy="531" r="1.8" fill="#BE5915"></circle><circle cx="287.3" cy="531" r="1.8" fill="#BE5915"></circle><circle cx="289.6" cy="531" r="1.8" fill="#BE5915"></circle><circle cx="292" cy="530.9" r="1.8" fill="#BE5915"></circle><circle cx="294.4" cy="530.9" r="1.8" fill="#BE5915"></circle><circle cx="296.7" cy="530.8" r="1.8" fill="#BE5915"></circle><circle cx="299.1" cy="530.7" r="1.8" fill="#BE5915"></circle><circle cx="301.4" cy="530.6" r="1.8" fill="#BE5915"></circle><circle cx="303.8" cy="530.5" r="1.8" fill="#BE5915"></circle><circle cx="306.2" cy="530.4" r="1.8" fill="#BE5915"></circle><circle cx="308.5" cy="530.3" r="1.8" fill="#BE5915"></circle><circle cx="310.9" cy="530.2" r="1.8" fill="#BE5915"></circle><circle cx="313.3" cy="529.9" r="1.8" fill="#BE5915"></circle><circle cx="315.6" cy="529.8" r="1.8" fill="#BE5915"></circle><circle cx="318" cy="529.6" r="1.8" fill="#BE5915"></circle><circle cx="320.4" cy="529.5" r="1.8" fill="#BE5915"></circle><circle cx="322.7" cy="529.2" r="1.8" fill="#BE5915"></circle><circle cx="325.1" cy="529.1" r="1.8" fill="#BE5915"></circle><circle cx="327.5" cy="529" r="1.8" fill="#BE5915"></circle><circle cx="329.8" cy="529" r="1.8" fill="#BE5915"></circle><circle cx="332.2" cy="528.8" r="1.8" fill="#BE5915"></circle><circle cx="334.6" cy="528.7" r="1.8" fill="#BE5915"></circle><circle cx="336.9" cy="528.8" r="1.8" fill="#BE5915"></circle><circle cx="339.3" cy="528.7" r="1.8" fill="#BE5915"></circle><circle cx="341.6" cy="528.3" r="1.8" fill="#BE5915"></circle><circle cx="344" cy="528.1" r="1.8" fill="#BE5915"></circle><circle cx="346.4" cy="528.1" r="1.8" fill="#BE5915"></circle><circle cx="348.7" cy="528" r="1.8" fill="#BE5915"></circle><circle cx="351.1" cy="527.3" r="1.8" fill="#BE5915"></circle><circle cx="353.5" cy="526.8" r="1.8" fill="#BE5915"></circle><circle cx="355.8" cy="526.1" r="1.8" fill="#BE5915"></circle><circle cx="358.2" cy="525.9" r="1.8" fill="#BE5915"></circle><circle cx="360.6" cy="525.6" r="1.8" fill="#BE5915"></circle><circle cx="362.9" cy="524.4" r="1.8" fill="#BE5915"></circle><circle cx="365.3" cy="523.6" r="1.8" fill="#BE5915"></circle><circle cx="367.7" cy="523.9" r="1.8" fill="#BE5915"></circle><circle cx="370" cy="523.8" r="1.8" fill="#BE5915"></circle><circle cx="372.4" cy="524" r="1.8" fill="#BE5915"></circle><circle cx="374.7" cy="523.2" r="1.8" fill="#BE5915"></circle><circle cx="377.1" cy="523.4" r="1.8" fill="#BE5915"></circle><circle cx="379.5" cy="521.7" r="1.8" fill="#BE5915"></circle><circle cx="381.8" cy="520.4" r="1.8" fill="#BE5915"></circle><circle cx="384.2" cy="519.7" r="1.8" fill="#BE5915"></circle><circle cx="386.6" cy="518.4" r="1.8" fill="#BE5915"></circle><circle cx="388.9" cy="517.3" r="1.8" fill="#BE5915"></circle><circle cx="391.3" cy="516.6" r="1.8" fill="#BE5915"></circle><circle cx="393.7" cy="516.3" r="1.8" fill="#BE5915"></circle><circle cx="396" cy="515.5" r="1.8" fill="#BE5915"></circle><circle cx="398.4" cy="514.4" r="1.8" fill="#BE5915"></circle><circle cx="400.8" cy="510.7" r="1.8" fill="#BE5915"></circle><circle cx="403.1" cy="512.8" r="1.8" fill="#BE5915"></circle><circle cx="405.5" cy="509.2" r="1.8" fill="#BE5915"></circle><circle cx="407.8" cy="507.8" r="1.8" fill="#BE5915"></circle><circle cx="410.2" cy="506.5" r="1.8" fill="#BE5915"></circle><circle cx="412.6" cy="506.3" r="1.8" fill="#BE5915"></circle><circle cx="414.9" cy="507.9" r="1.8" fill="#BE5915"></circle><circle cx="417.3" cy="504.9" r="1.8" fill="#BE5915"></circle><circle cx="419.7" cy="504.9" r="1.8" fill="#BE5915"></circle><circle cx="422" cy="503.8" r="1.8" fill="#BE5915"></circle><circle cx="424.4" cy="501.3" r="1.8" fill="#BE5915"></circle><circle cx="426.8" cy="496.9" r="1.8" fill="#BE5915"></circle><circle cx="429.1" cy="494.9" r="1.8" fill="#BE5915"></circle><circle cx="431.5" cy="491.6" r="1.8" fill="#BE5915"></circle><circle cx="433.9" cy="489.3" r="1.8" fill="#BE5915"></circle><circle cx="436.2" cy="482.1" r="1.8" fill="#BE5915"></circle><circle cx="438.6" cy="482.8" r="1.8" fill="#BE5915"></circle><circle cx="441" cy="477.1" r="1.8" fill="#BE5915"></circle><circle cx="443.3" cy="474.4" r="1.8" fill="#BE5915"></circle><circle cx="445.7" cy="465.1" r="1.8" fill="#BE5915"></circle><circle cx="448" cy="473.4" r="1.8" fill="#BE5915"></circle><circle cx="450.4" cy="467.2" r="1.8" fill="#BE5915"></circle><circle cx="452.8" cy="461.4" r="1.8" fill="#BE5915"></circle><circle cx="455.1" cy="462.1" r="1.8" fill="#BE5915"></circle><circle cx="457.5" cy="457.4" r="1.8" fill="#BE5915"></circle><circle cx="459.9" cy="452" r="1.8" fill="#BE5915"></circle><circle cx="462.2" cy="458.8" r="1.8" fill="#BE5915"></circle><circle cx="464.6" cy="456.1" r="1.8" fill="#BE5915"></circle><circle cx="467" cy="447.8" r="1.8" fill="#BE5915"></circle><circle cx="469.3" cy="439.4" r="1.8" fill="#BE5915"></circle><circle cx="471.7" cy="435.2" r="1.8" fill="#BE5915"></circle><circle cx="474.1" cy="450" r="1.8" fill="#BE5915"></circle><circle cx="476.4" cy="435.7" r="1.8" fill="#BE5915"></circle><circle cx="478.8" cy="453" r="1.8" fill="#BE5915"></circle><circle cx="481.1" cy="452.3" r="1.8" fill="#BE5915"></circle><circle cx="483.5" cy="427" r="1.8" fill="#BE5915"></circle><circle cx="485.9" cy="437.9" r="1.8" fill="#BE5915"></circle><circle cx="488.2" cy="434.6" r="1.8" fill="#BE5915"></circle><circle cx="490.6" cy="426.5" r="1.8" fill="#BE5915"></circle><circle cx="493" cy="428.9" r="1.8" fill="#BE5915"></circle><circle cx="495.3" cy="430.6" r="1.8" fill="#BE5915"></circle><circle cx="497.7" cy="423.3" r="1.8" fill="#BE5915"></circle><circle cx="500.1" cy="435.3" r="1.8" fill="#BE5915"></circle><circle cx="502.4" cy="449.6" r="1.8" fill="#BE5915"></circle><circle cx="504.8" cy="462.1" r="1.8" fill="#BE5915"></circle><circle cx="507.2" cy="457.1" r="1.8" fill="#BE5915"></circle><circle cx="509.5" cy="452.3" r="1.8" fill="#BE5915"></circle><circle cx="511.9" cy="449.2" r="1.8" fill="#BE5915"></circle><circle cx="514.3" cy="437.1" r="1.8" fill="#BE5915"></circle><circle cx="516.6" cy="432.7" r="1.8" fill="#BE5915"></circle><circle cx="519" cy="447.9" r="1.8" fill="#BE5915"></circle><circle cx="521.3" cy="439.4" r="1.8" fill="#BE5915"></circle><circle cx="523.7" cy="428.2" r="1.8" fill="#BE5915"></circle><circle cx="526.1" cy="418.9" r="1.8" fill="#BE5915"></circle><circle cx="528.4" cy="410.4" r="1.8" fill="#BE5915"></circle><circle cx="530.8" cy="406.4" r="1.8" fill="#BE5915"></circle><circle cx="533.2" cy="396.8" r="1.8" fill="#BE5915"></circle><circle cx="535.5" cy="401.5" r="1.8" fill="#BE5915"></circle><circle cx="537.9" cy="407.2" r="1.8" fill="#BE5915"></circle><circle cx="540.3" cy="394.6" r="1.8" fill="#BE5915"></circle><circle cx="542.6" cy="389.3" r="1.8" fill="#BE5915"></circle><circle cx="545" cy="412.2" r="1.8" fill="#BE5915"></circle><circle cx="547.4" cy="391.5" r="1.8" fill="#BE5915"></circle><circle cx="549.7" cy="387.3" r="1.8" fill="#BE5915"></circle><circle cx="552.1" cy="391" r="1.8" fill="#BE5915"></circle><circle cx="554.4" cy="387.6" r="1.8" fill="#BE5915"></circle><circle cx="556.8" cy="394.4" r="1.8" fill="#BE5915"></circle><circle cx="559.2" cy="381.3" r="1.8" fill="#BE5915"></circle><circle cx="561.5" cy="374" r="1.8" fill="#BE5915"></circle><circle cx="563.9" cy="375.4" r="1.8" fill="#BE5915"></circle><circle cx="566.3" cy="380.2" r="1.8" fill="#BE5915"></circle><circle cx="568.6" cy="375.6" r="1.8" fill="#BE5915"></circle><circle cx="571" cy="372" r="1.8" fill="#BE5915"></circle><circle cx="573.4" cy="372.5" r="1.8" fill="#BE5915"></circle><circle cx="575.7" cy="366.7" r="1.8" fill="#BE5915"></circle><circle cx="578.1" cy="359.4" r="1.8" fill="#BE5915"></circle><circle cx="580.5" cy="351.8" r="1.8" fill="#BE5915"></circle><circle cx="582.8" cy="344.4" r="1.8" fill="#BE5915"></circle><circle cx="585.2" cy="334.9" r="1.8" fill="#BE5915"></circle><circle cx="587.5" cy="327.5" r="1.8" fill="#BE5915"></circle><circle cx="589.9" cy="320.1" r="1.8" fill="#BE5915"></circle><circle cx="592.3" cy="309.4" r="1.8" fill="#BE5915"></circle><circle cx="594.6" cy="292.7" r="1.8" fill="#BE5915"></circle><circle cx="597" cy="291.2" r="1.8" fill="#BE5915"></circle><circle cx="599.4" cy="279.8" r="1.8" fill="#BE5915"></circle><circle cx="601.7" cy="268.2" r="1.8" fill="#BE5915"></circle><circle cx="604.1" cy="277.2" r="1.8" fill="#BE5915"></circle><circle cx="606.5" cy="285" r="1.8" fill="#BE5915"></circle><circle cx="608.8" cy="270.2" r="1.8" fill="#BE5915"></circle><circle cx="611.2" cy="262.4" r="1.8" fill="#BE5915"></circle><circle cx="613.6" cy="259.6" r="1.8" fill="#BE5915"></circle><circle cx="615.9" cy="255.9" r="1.8" fill="#BE5915"></circle><circle cx="618.3" cy="266.9" r="1.8" fill="#BE5915"></circle><circle cx="620.7" cy="273.6" r="1.8" fill="#BE5915"></circle><circle cx="623" cy="286.7" r="1.8" fill="#BE5915"></circle><circle cx="625.4" cy="287.7" r="1.8" fill="#BE5915"></circle><circle cx="627.7" cy="274.9" r="1.8" fill="#BE5915"></circle><circle cx="630.1" cy="275.4" r="1.8" fill="#BE5915"></circle><circle cx="632.5" cy="274.8" r="1.8" fill="#BE5915"></circle><circle cx="634.8" cy="265.9" r="1.8" fill="#BE5915"></circle><circle cx="637.2" cy="253.6" r="1.8" fill="#BE5915"></circle><circle cx="639.6" cy="249.1" r="1.8" fill="#BE5915"></circle><circle cx="641.9" cy="249.7" r="1.8" fill="#BE5915"></circle><circle cx="644.3" cy="252.9" r="1.8" fill="#BE5915"></circle><circle cx="646.7" cy="246.8" r="1.8" fill="#BE5915"></circle><circle cx="649" cy="241.3" r="1.8" fill="#BE5915"></circle><circle cx="651.4" cy="236.3" r="1.8" fill="#BE5915"></circle><circle cx="653.8" cy="233" r="1.8" fill="#BE5915"></circle><circle cx="656.1" cy="222.6" r="1.8" fill="#BE5915"></circle><circle cx="658.5" cy="218.5" r="1.8" fill="#BE5915"></circle><circle cx="660.8" cy="216" r="1.8" fill="#BE5915"></circle><circle cx="663.2" cy="212.1" r="1.8" fill="#BE5915"></circle><circle cx="665.6" cy="200.8" r="1.8" fill="#BE5915"></circle><circle cx="667.9" cy="206.4" r="1.8" fill="#BE5915"></circle><circle cx="670.3" cy="204.3" r="1.8" fill="#BE5915"></circle><circle cx="672.7" cy="200.8" r="1.8" fill="#BE5915"></circle><circle cx="675" cy="195.2" r="1.8" fill="#BE5915"></circle><circle cx="677.4" cy="194.1" r="1.8" fill="#BE5915"></circle><circle cx="679.8" cy="198.5" r="1.8" fill="#BE5915"></circle><circle cx="682.1" cy="194.2" r="1.8" fill="#BE5915"></circle><circle cx="684.5" cy="206" r="1.8" fill="#BE5915"></circle><circle cx="686.9" cy="229.9" r="1.8" fill="#BE5915"></circle><circle cx="689.2" cy="219" r="1.8" fill="#BE5915"></circle><circle cx="691.6" cy="226.3" r="1.8" fill="#BE5915"></circle><circle cx="694" cy="237.4" r="1.8" fill="#BE5915"></circle><circle cx="696.3" cy="229.9" r="1.8" fill="#BE5915"></circle><circle cx="698.7" cy="227.3" r="1.8" fill="#BE5915"></circle><circle cx="701" cy="235.6" r="1.8" fill="#BE5915"></circle><circle cx="703.4" cy="242.4" r="1.8" fill="#BE5915"></circle><circle cx="705.8" cy="244.7" r="1.8" fill="#BE5915"></circle><circle cx="708.1" cy="235.6" r="1.8" fill="#BE5915"></circle><circle cx="710.5" cy="241.9" r="1.8" fill="#BE5915"></circle><circle cx="712.9" cy="272" r="1.8" fill="#BE5915"></circle><circle cx="715.2" cy="254.6" r="1.8" fill="#BE5915"></circle><circle cx="717.6" cy="253.2" r="1.8" fill="#BE5915"></circle></g></g><g id="line__Europe"><path id="outline" fill="none" stroke-linecap="butt" stroke-linejoin="round" stroke="#fff" stroke-width="2.5" d="M74.5 530.8L76.8 530.8L79.2 530.8L81.6 530.8L83.9 530.8L86.3 530.8L88.6 530.8L91 530.7L93.4 530.7L95.7 530.7L98.1 530.7L100.5 530.7L102.8 530.7L105.2 530.7L107.6 530.7L109.9 530.7L112.3 530.6L114.7 530.6L117 530.6L119.4 530.6L121.7 530.6L124.1 530.6L126.5 530.6L128.8 530.5L131.2 530.5L133.6 530.5L135.9 530.5L138.3 530.5L140.7 530.5L143 530.4L145.4 530.4L147.8 530.4L150.1 530.4L152.5 530.4L154.9 530.3L157.2 530.3L159.6 530.3L161.9 530.3L164.3 530.2L166.7 530.2L169 530.2L171.4 530.1L173.8 530.1L176.1 530.1L178.5 530.1L180.9 530.1L183.2 530.1L185.6 530.1L188 530L190.3 529.8L192.7 529.5L195 529.6L197.4 529.1L199.8 529.7L202.1 529.6L204.5 529.6L206.9 529.5L209.2 529.3L211.6 529.4L214 529.3L216.3 529.2L218.7 529.1L221.1 529.1L223.4 529.1L225.8 529L228.2 528.9L230.5 528.8L232.9 528.6L235.2 528.5L237.6 528.5L240 528.6L242.3 528.5L244.7 528.4L247.1 528.3L249.4 528.2L251.8 528L254.2 528L256.5 527.8L258.9 527.7L261.3 527.8L263.6 526.5L266 526.8L268.3 527L270.7 526.9L273.1 526.6L275.4 526.2L277.8 525.7L280.2 525.8L282.5 525.8L284.9 525.6L287.3 525.1L289.6 524.9L292 524.6L294.4 524.5L296.7 524L299.1 523.4L301.4 523.3L303.8 522.7L306.2 522.7L308.5 522.1L310.9 521.6L313.3 521.7L315.6 521.4L318 521L320.4 519.1L322.7 519.1L325.1 518.3L327.5 518.2L329.8 518L332.2 517.3L334.6 515.8L336.9 514.8L339.3 514.5L341.6 513.6L344 512.2L346.4 510.9L348.7 510.2L351.1 509.2L353.5 509L355.8 507.9L358.2 507.6L360.6 506L362.9 504L365.3 502.6L367.7 504.7L370 501.9L372.4 501.2L374.7 501.3L377.1 501L379.5 500L381.8 496.1L384.2 495.1L386.6 493.9L388.9 491.8L391.3 492L393.7 491.9L396 491.9L398.4 490.4L400.8 488L403.1 486L405.5 483.9L407.8 482.2L410.2 482.9L412.6 484.3L414.9 480.3L417.3 478.9L419.7 476.5L422 473.8L424.4 472L426.8 468.1L429.1 465L431.5 465.6L433.9 465.5L436.2 462.8L438.6 461.5L441 459.5L443.3 457.2L445.7 449.2L448 447.9L450.4 447.8L452.8 446.7L455.1 444.7L457.5 441.5L459.9 434.1L462.2 444.7L464.6 449.2L467 445.4L469.3 447L471.7 454.6L474.1 466.2L476.4 455.8L478.8 462.4L481.1 454.4L483.5 457.8L485.9 446.5L488.2 447.3L490.6 459.3L493 439.4L495.3 439.1L497.7 431.2L500.1 436.6L502.4 442.9L504.8 449.2L507.2 446.8L509.5 438.8L511.9 434.1L514.3 428.1L516.6 419.3L519 418.8L521.3 416.1L523.7 408.7L526.1 413.4L528.4 421.5L530.8 421.1L533.2 427.4L535.5 463.4L537.9 440.1L540.3 426.3L542.6 418.2L545 407.9L547.4 400.2L549.7 386.7L552.1 382L554.4 377.8L556.8 368L559.2 353.5L561.5 341.8L563.9 333.7L566.3 331.6L568.6 327.1L571 313.3L573.4 305.3L575.7 292.8L578.1 277.8L580.5 265.2L582.8 257.4L585.2 247.9L587.5 241.7L589.9 228.2L592.3 211.7L594.6 196.2L597 183.6L599.4 171L601.7 154.9L604.1 153.9L606.5 151.7L608.8 131.1L611.2 128L613.6 115.2L615.9 105.4L618.3 105.2L620.7 120.6L623 123.9L625.4 123.6L627.7 120.8L630.1 103L632.5 102.2L634.8 101L637.2 98.9L639.6 100.8L641.9 89.3L644.3 105.7L646.7 141L649 156.9L651.4 176.7L653.8 178L656.1 175.3L658.5 186.6L660.8 188.1L663.2 192.7L665.6 192.8L667.9 185.8L670.3 187.6L672.7 179.5L675 177.7L677.4 178.2L679.8 172.6L682.1 175L684.5 179.1L686.9 207.2L689.2 194.5L691.6 198.6L694 201.4L696.3 209.9L698.7 222.6L701 222.5L703.4 223L705.8 221.2L708.1 222.7L710.5 232.3L712.9 254.7L715.2 239.3L717.6 250.5"></path><g id="polyline"><polyline id="polyline" points="74.50,530.80 76.80,530.80 79.20,530.80 81.60,530.80 83.90,530.80 86.30,530.80 88.60,530.80 91.00,530.70 93.40,530.70 95.70,530.70 98.10,530.70 100.50,530.70 102.80,530.70 105.20,530.70 107.60,530.70 109.90,530.70 112.30,530.60 114.70,530.60 117.00,530.60 119.40,530.60 121.70,530.60 124.10,530.60 126.50,530.60 128.80,530.50 131.20,530.50 133.60,530.50 135.90,530.50 138.30,530.50 140.70,530.50 143.00,530.40 145.40,530.40 147.80,530.40 150.10,530.40 152.50,530.40 154.90,530.30 157.20,530.30 159.60,530.30 161.90,530.30 164.30,530.20 166.70,530.20 169.00,530.20 171.40,530.10 173.80,530.10 176.10,530.10 178.50,530.10 180.90,530.10 183.20,530.10 185.60,530.10 188.00,530.00 190.30,529.80 192.70,529.50 195.00,529.60 197.40,529.10 199.80,529.70 202.10,529.60 204.50,529.60 206.90,529.50 209.20,529.30 211.60,529.40 214.00,529.30 216.30,529.20 218.70,529.10 221.10,529.10 223.40,529.10 225.80,529.00 228.20,528.90 230.50,528.80 232.90,528.60 235.20,528.50 237.60,528.50 240.00,528.60 242.30,528.50 244.70,528.40 247.10,528.30 249.40,528.20 251.80,528.00 254.20,528.00 256.50,527.80 258.90,527.70 261.30,527.80 263.60,526.50 266.00,526.80 268.30,527.00 270.70,526.90 273.10,526.60 275.40,526.20 277.80,525.70 280.20,525.80 282.50,525.80 284.90,525.60 287.30,525.10 289.60,524.90 292.00,524.60 294.40,524.50 296.70,524.00 299.10,523.40 301.40,523.30 303.80,522.70 306.20,522.70 308.50,522.10 310.90,521.60 313.30,521.70 315.60,521.40 318.00,521.00 320.40,519.10 322.70,519.10 325.10,518.30 327.50,518.20 329.80,518.00 332.20,517.30 334.60,515.80 336.90,514.80 339.30,514.50 341.60,513.60 344.00,512.20 346.40,510.90 348.70,510.20 351.10,509.20 353.50,509.00 355.80,507.90 358.20,507.60 360.60,506.00 362.90,504.00 365.30,502.60 367.70,504.70 370.00,501.90 372.40,501.20 374.70,501.30 377.10,501.00 379.50,500.00 381.80,496.10 384.20,495.10 386.60,493.90 388.90,491.80 391.30,492.00 393.70,491.90 396.00,491.90 398.40,490.40 400.80,488.00 403.10,486.00 405.50,483.90 407.80,482.20 410.20,482.90 412.60,484.30 414.90,480.30 417.30,478.90 419.70,476.50 422.00,473.80 424.40,472.00 426.80,468.10 429.10,465.00 431.50,465.60 433.90,465.50 436.20,462.80 438.60,461.50 441.00,459.50 443.30,457.20 445.70,449.20 448.00,447.90 450.40,447.80 452.80,446.70 455.10,444.70 457.50,441.50 459.90,434.10 462.20,444.70 464.60,449.20 467.00,445.40 469.30,447.00 471.70,454.60 474.10,466.20 476.40,455.80 478.80,462.40 481.10,454.40 483.50,457.80 485.90,446.50 488.20,447.30 490.60,459.30 493.00,439.40 495.30,439.10 497.70,431.20 500.10,436.60 502.40,442.90 504.80,449.20 507.20,446.80 509.50,438.80 511.90,434.10 514.30,428.10 516.60,419.30 519.00,418.80 521.30,416.10 523.70,408.70 526.10,413.40 528.40,421.50 530.80,421.10 533.20,427.40 535.50,463.40 537.90,440.10 540.30,426.30 542.60,418.20 545.00,407.90 547.40,400.20 549.70,386.70 552.10,382.00 554.40,377.80 556.80,368.00 559.20,353.50 561.50,341.80 563.90,333.70 566.30,331.60 568.60,327.10 571.00,313.30 573.40,305.30 575.70,292.80 578.10,277.80 580.50,265.20 582.80,257.40 585.20,247.90 587.50,241.70 589.90,228.20 592.30,211.70 594.60,196.20 597.00,183.60 599.40,171.00 601.70,154.90 604.10,153.90 606.50,151.70 608.80,131.10 611.20,128.00 613.60,115.20 615.90,105.40 618.30,105.20 620.70,120.60 623.00,123.90 625.40,123.60 627.70,120.80 630.10,103.00 632.50,102.20 634.80,101.00 637.20,98.90 639.60,100.80 641.90,89.30 644.30,105.70 646.70,141.00 649.00,156.90 651.40,176.70 653.80,178.00 656.10,175.30 658.50,186.60 660.80,188.10 663.20,192.70 665.60,192.80 667.90,185.80 670.30,187.60 672.70,179.50 675.00,177.70 677.40,178.20 679.80,172.60 682.10,175.00 684.50,179.10 686.90,207.20 689.20,194.50 691.60,198.60 694.00,201.40 696.30,209.90 698.70,222.60 701.00,222.50 703.40,223.00 705.80,221.20 708.10,222.70 710.50,232.30 712.90,254.70 715.20,239.30 717.60,250.50" stroke-linejoin="round" stroke-width="1.5" stroke="#883039" fill="none" stroke-linecap="butt"></polyline></g><g id="markers"><circle cx="74.5" cy="530.8" r="1.8" fill="#883039"></circle><circle cx="76.8" cy="530.8" r="1.8" fill="#883039"></circle><circle cx="79.2" cy="530.8" r="1.8" fill="#883039"></circle><circle cx="81.6" cy="530.8" r="1.8" fill="#883039"></circle><circle cx="83.9" cy="530.8" r="1.8" fill="#883039"></circle><circle cx="86.3" cy="530.8" r="1.8" fill="#883039"></circle><circle cx="88.6" cy="530.8" r="1.8" fill="#883039"></circle><circle cx="91" cy="530.7" r="1.8" fill="#883039"></circle><circle cx="93.4" cy="530.7" r="1.8" fill="#883039"></circle><circle cx="95.7" cy="530.7" r="1.8" fill="#883039"></circle><circle cx="98.1" cy="530.7" r="1.8" fill="#883039"></circle><circle cx="100.5" cy="530.7" r="1.8" fill="#883039"></circle><circle cx="102.8" cy="530.7" r="1.8" fill="#883039"></circle><circle cx="105.2" cy="530.7" r="1.8" fill="#883039"></circle><circle cx="107.6" cy="530.7" r="1.8" fill="#883039"></circle><circle cx="109.9" cy="530.7" r="1.8" fill="#883039"></circle><circle cx="112.3" cy="530.6" r="1.8" fill="#883039"></circle><circle cx="114.7" cy="530.6" r="1.8" fill="#883039"></circle><circle cx="117" cy="530.6" r="1.8" fill="#883039"></circle><circle cx="119.4" cy="530.6" r="1.8" fill="#883039"></circle><circle cx="121.7" cy="530.6" r="1.8" fill="#883039"></circle><circle cx="124.1" cy="530.6" r="1.8" fill="#883039"></circle><circle cx="126.5" cy="530.6" r="1.8" fill="#883039"></circle><circle cx="128.8" cy="530.5" r="1.8" fill="#883039"></circle><circle cx="131.2" cy="530.5" r="1.8" fill="#883039"></circle><circle cx="133.6" cy="530.5" r="1.8" fill="#883039"></circle><circle cx="135.9" cy="530.5" r="1.8" fill="#883039"></circle><circle cx="138.3" cy="530.5" r="1.8" fill="#883039"></circle><circle cx="140.7" cy="530.5" r="1.8" fill="#883039"></circle><circle cx="143" cy="530.4" r="1.8" fill="#883039"></circle><circle cx="145.4" cy="530.4" r="1.8" fill="#883039"></circle><circle cx="147.8" cy="530.4" r="1.8" fill="#883039"></circle><circle cx="150.1" cy="530.4" r="1.8" fill="#883039"></circle><circle cx="152.5" cy="530.4" r="1.8" fill="#883039"></circle><circle cx="154.9" cy="530.3" r="1.8" fill="#883039"></circle><circle cx="157.2" cy="530.3" r="1.8" fill="#883039"></circle><circle cx="159.6" cy="530.3" r="1.8" fill="#883039"></circle><circle cx="161.9" cy="530.3" r="1.8" fill="#883039"></circle><circle cx="164.3" cy="530.2" r="1.8" fill="#883039"></circle><circle cx="166.7" cy="530.2" r="1.8" fill="#883039"></circle><circle cx="169" cy="530.2" r="1.8" fill="#883039"></circle><circle cx="171.4" cy="530.1" r="1.8" fill="#883039"></circle><circle cx="173.8" cy="530.1" r="1.8" fill="#883039"></circle><circle cx="176.1" cy="530.1" r="1.8" fill="#883039"></circle><circle cx="178.5" cy="530.1" r="1.8" fill="#883039"></circle><circle cx="180.9" cy="530.1" r="1.8" fill="#883039"></circle><circle cx="183.2" cy="530.1" r="1.8" fill="#883039"></circle><circle cx="185.6" cy="530.1" r="1.8" fill="#883039"></circle><circle cx="188" cy="530" r="1.8" fill="#883039"></circle><circle cx="190.3" cy="529.8" r="1.8" fill="#883039"></circle><circle cx="192.7" cy="529.5" r="1.8" fill="#883039"></circle><circle cx="195" cy="529.6" r="1.8" fill="#883039"></circle><circle cx="197.4" cy="529.1" r="1.8" fill="#883039"></circle><circle cx="199.8" cy="529.7" r="1.8" fill="#883039"></circle><circle cx="202.1" cy="529.6" r="1.8" fill="#883039"></circle><circle cx="204.5" cy="529.6" r="1.8" fill="#883039"></circle><circle cx="206.9" cy="529.5" r="1.8" fill="#883039"></circle><circle cx="209.2" cy="529.3" r="1.8" fill="#883039"></circle><circle cx="211.6" cy="529.4" r="1.8" fill="#883039"></circle><circle cx="214" cy="529.3" r="1.8" fill="#883039"></circle><circle cx="216.3" cy="529.2" r="1.8" fill="#883039"></circle><circle cx="218.7" cy="529.1" r="1.8" fill="#883039"></circle><circle cx="221.1" cy="529.1" r="1.8" fill="#883039"></circle><circle cx="223.4" cy="529.1" r="1.8" fill="#883039"></circle><circle cx="225.8" cy="529" r="1.8" fill="#883039"></circle><circle cx="228.2" cy="528.9" r="1.8" fill="#883039"></circle><circle cx="230.5" cy="528.8" r="1.8" fill="#883039"></circle><circle cx="232.9" cy="528.6" r="1.8" fill="#883039"></circle><circle cx="235.2" cy="528.5" r="1.8" fill="#883039"></circle><circle cx="237.6" cy="528.5" r="1.8" fill="#883039"></circle><circle cx="240" cy="528.6" r="1.8" fill="#883039"></circle><circle cx="242.3" cy="528.5" r="1.8" fill="#883039"></circle><circle cx="244.7" cy="528.4" r="1.8" fill="#883039"></circle><circle cx="247.1" cy="528.3" r="1.8" fill="#883039"></circle><circle cx="249.4" cy="528.2" r="1.8" fill="#883039"></circle><circle cx="251.8" cy="528" r="1.8" fill="#883039"></circle><circle cx="254.2" cy="528" r="1.8" fill="#883039"></circle><circle cx="256.5" cy="527.8" r="1.8" fill="#883039"></circle><circle cx="258.9" cy="527.7" r="1.8" fill="#883039"></circle><circle cx="261.3" cy="527.8" r="1.8" fill="#883039"></circle><circle cx="263.6" cy="526.5" r="1.8" fill="#883039"></circle><circle cx="266" cy="526.8" r="1.8" fill="#883039"></circle><circle cx="268.3" cy="527" r="1.8" fill="#883039"></circle><circle cx="270.7" cy="526.9" r="1.8" fill="#883039"></circle><circle cx="273.1" cy="526.6" r="1.8" fill="#883039"></circle><circle cx="275.4" cy="526.2" r="1.8" fill="#883039"></circle><circle cx="277.8" cy="525.7" r="1.8" fill="#883039"></circle><circle cx="280.2" cy="525.8" r="1.8" fill="#883039"></circle><circle cx="282.5" cy="525.8" r="1.8" fill="#883039"></circle><circle cx="284.9" cy="525.6" r="1.8" fill="#883039"></circle><circle cx="287.3" cy="525.1" r="1.8" fill="#883039"></circle><circle cx="289.6" cy="524.9" r="1.8" fill="#883039"></circle><circle cx="292" cy="524.6" r="1.8" fill="#883039"></circle><circle cx="294.4" cy="524.5" r="1.8" fill="#883039"></circle><circle cx="296.7" cy="524" r="1.8" fill="#883039"></circle><circle cx="299.1" cy="523.4" r="1.8" fill="#883039"></circle><circle cx="301.4" cy="523.3" r="1.8" fill="#883039"></circle><circle cx="303.8" cy="522.7" r="1.8" fill="#883039"></circle><circle cx="306.2" cy="522.7" r="1.8" fill="#883039"></circle><circle cx="308.5" cy="522.1" r="1.8" fill="#883039"></circle><circle cx="310.9" cy="521.6" r="1.8" fill="#883039"></circle><circle cx="313.3" cy="521.7" r="1.8" fill="#883039"></circle><circle cx="315.6" cy="521.4" r="1.8" fill="#883039"></circle><circle cx="318" cy="521" r="1.8" fill="#883039"></circle><circle cx="320.4" cy="519.1" r="1.8" fill="#883039"></circle><circle cx="322.7" cy="519.1" r="1.8" fill="#883039"></circle><circle cx="325.1" cy="518.3" r="1.8" fill="#883039"></circle><circle cx="327.5" cy="518.2" r="1.8" fill="#883039"></circle><circle cx="329.8" cy="518" r="1.8" fill="#883039"></circle><circle cx="332.2" cy="517.3" r="1.8" fill="#883039"></circle><circle cx="334.6" cy="515.8" r="1.8" fill="#883039"></circle><circle cx="336.9" cy="514.8" r="1.8" fill="#883039"></circle><circle cx="339.3" cy="514.5" r="1.8" fill="#883039"></circle><circle cx="341.6" cy="513.6" r="1.8" fill="#883039"></circle><circle cx="344" cy="512.2" r="1.8" fill="#883039"></circle><circle cx="346.4" cy="510.9" r="1.8" fill="#883039"></circle><circle cx="348.7" cy="510.2" r="1.8" fill="#883039"></circle><circle cx="351.1" cy="509.2" r="1.8" fill="#883039"></circle><circle cx="353.5" cy="509" r="1.8" fill="#883039"></circle><circle cx="355.8" cy="507.9" r="1.8" fill="#883039"></circle><circle cx="358.2" cy="507.6" r="1.8" fill="#883039"></circle><circle cx="360.6" cy="506" r="1.8" fill="#883039"></circle><circle cx="362.9" cy="504" r="1.8" fill="#883039"></circle><circle cx="365.3" cy="502.6" r="1.8" fill="#883039"></circle><circle cx="367.7" cy="504.7" r="1.8" fill="#883039"></circle><circle cx="370" cy="501.9" r="1.8" fill="#883039"></circle><circle cx="372.4" cy="501.2" r="1.8" fill="#883039"></circle><circle cx="374.7" cy="501.3" r="1.8" fill="#883039"></circle><circle cx="377.1" cy="501" r="1.8" fill="#883039"></circle><circle cx="379.5" cy="500" r="1.8" fill="#883039"></circle><circle cx="381.8" cy="496.1" r="1.8" fill="#883039"></circle><circle cx="384.2" cy="495.1" r="1.8" fill="#883039"></circle><circle cx="386.6" cy="493.9" r="1.8" fill="#883039"></circle><circle cx="388.9" cy="491.8" r="1.8" fill="#883039"></circle><circle cx="391.3" cy="492" r="1.8" fill="#883039"></circle><circle cx="393.7" cy="491.9" r="1.8" fill="#883039"></circle><circle cx="396" cy="491.9" r="1.8" fill="#883039"></circle><circle cx="398.4" cy="490.4" r="1.8" fill="#883039"></circle><circle cx="400.8" cy="488" r="1.8" fill="#883039"></circle><circle cx="403.1" cy="486" r="1.8" fill="#883039"></circle><circle cx="405.5" cy="483.9" r="1.8" fill="#883039"></circle><circle cx="407.8" cy="482.2" r="1.8" fill="#883039"></circle><circle cx="410.2" cy="482.9" r="1.8" fill="#883039"></circle><circle cx="412.6" cy="484.3" r="1.8" fill="#883039"></circle><circle cx="414.9" cy="480.3" r="1.8" fill="#883039"></circle><circle cx="417.3" cy="478.9" r="1.8" fill="#883039"></circle><circle cx="419.7" cy="476.5" r="1.8" fill="#883039"></circle><circle cx="422" cy="473.8" r="1.8" fill="#883039"></circle><circle cx="424.4" cy="472" r="1.8" fill="#883039"></circle><circle cx="426.8" cy="468.1" r="1.8" fill="#883039"></circle><circle cx="429.1" cy="465" r="1.8" fill="#883039"></circle><circle cx="431.5" cy="465.6" r="1.8" fill="#883039"></circle><circle cx="433.9" cy="465.5" r="1.8" fill="#883039"></circle><circle cx="436.2" cy="462.8" r="1.8" fill="#883039"></circle><circle cx="438.6" cy="461.5" r="1.8" fill="#883039"></circle><circle cx="441" cy="459.5" r="1.8" fill="#883039"></circle><circle cx="443.3" cy="457.2" r="1.8" fill="#883039"></circle><circle cx="445.7" cy="449.2" r="1.8" fill="#883039"></circle><circle cx="448" cy="447.9" r="1.8" fill="#883039"></circle><circle cx="450.4" cy="447.8" r="1.8" fill="#883039"></circle><circle cx="452.8" cy="446.7" r="1.8" fill="#883039"></circle><circle cx="455.1" cy="444.7" r="1.8" fill="#883039"></circle><circle cx="457.5" cy="441.5" r="1.8" fill="#883039"></circle><circle cx="459.9" cy="434.1" r="1.8" fill="#883039"></circle><circle cx="462.2" cy="444.7" r="1.8" fill="#883039"></circle><circle cx="464.6" cy="449.2" r="1.8" fill="#883039"></circle><circle cx="467" cy="445.4" r="1.8" fill="#883039"></circle><circle cx="469.3" cy="447" r="1.8" fill="#883039"></circle><circle cx="471.7" cy="454.6" r="1.8" fill="#883039"></circle><circle cx="474.1" cy="466.2" r="1.8" fill="#883039"></circle><circle cx="476.4" cy="455.8" r="1.8" fill="#883039"></circle><circle cx="478.8" cy="462.4" r="1.8" fill="#883039"></circle><circle cx="481.1" cy="454.4" r="1.8" fill="#883039"></circle><circle cx="483.5" cy="457.8" r="1.8" fill="#883039"></circle><circle cx="485.9" cy="446.5" r="1.8" fill="#883039"></circle><circle cx="488.2" cy="447.3" r="1.8" fill="#883039"></circle><circle cx="490.6" cy="459.3" r="1.8" fill="#883039"></circle><circle cx="493" cy="439.4" r="1.8" fill="#883039"></circle><circle cx="495.3" cy="439.1" r="1.8" fill="#883039"></circle><circle cx="497.7" cy="431.2" r="1.8" fill="#883039"></circle><circle cx="500.1" cy="436.6" r="1.8" fill="#883039"></circle><circle cx="502.4" cy="442.9" r="1.8" fill="#883039"></circle><circle cx="504.8" cy="449.2" r="1.8" fill="#883039"></circle><circle cx="507.2" cy="446.8" r="1.8" fill="#883039"></circle><circle cx="509.5" cy="438.8" r="1.8" fill="#883039"></circle><circle cx="511.9" cy="434.1" r="1.8" fill="#883039"></circle><circle cx="514.3" cy="428.1" r="1.8" fill="#883039"></circle><circle cx="516.6" cy="419.3" r="1.8" fill="#883039"></circle><circle cx="519" cy="418.8" r="1.8" fill="#883039"></circle><circle cx="521.3" cy="416.1" r="1.8" fill="#883039"></circle><circle cx="523.7" cy="408.7" r="1.8" fill="#883039"></circle><circle cx="526.1" cy="413.4" r="1.8" fill="#883039"></circle><circle cx="528.4" cy="421.5" r="1.8" fill="#883039"></circle><circle cx="530.8" cy="421.1" r="1.8" fill="#883039"></circle><circle cx="533.2" cy="427.4" r="1.8" fill="#883039"></circle><circle cx="535.5" cy="463.4" r="1.8" fill="#883039"></circle><circle cx="537.9" cy="440.1" r="1.8" fill="#883039"></circle><circle cx="540.3" cy="426.3" r="1.8" fill="#883039"></circle><circle cx="542.6" cy="418.2" r="1.8" fill="#883039"></circle><circle cx="545" cy="407.9" r="1.8" fill="#883039"></circle><circle cx="547.4" cy="400.2" r="1.8" fill="#883039"></circle><circle cx="549.7" cy="386.7" r="1.8" fill="#883039"></circle><circle cx="552.1" cy="382" r="1.8" fill="#883039"></circle><circle cx="554.4" cy="377.8" r="1.8" fill="#883039"></circle><circle cx="556.8" cy="368" r="1.8" fill="#883039"></circle><circle cx="559.2" cy="353.5" r="1.8" fill="#883039"></circle><circle cx="561.5" cy="341.8" r="1.8" fill="#883039"></circle><circle cx="563.9" cy="333.7" r="1.8" fill="#883039"></circle><circle cx="566.3" cy="331.6" r="1.8" fill="#883039"></circle><circle cx="568.6" cy="327.1" r="1.8" fill="#883039"></circle><circle cx="571" cy="313.3" r="1.8" fill="#883039"></circle><circle cx="573.4" cy="305.3" r="1.8" fill="#883039"></circle><circle cx="575.7" cy="292.8" r="1.8" fill="#883039"></circle><circle cx="578.1" cy="277.8" r="1.8" fill="#883039"></circle><circle cx="580.5" cy="265.2" r="1.8" fill="#883039"></circle><circle cx="582.8" cy="257.4" r="1.8" fill="#883039"></circle><circle cx="585.2" cy="247.9" r="1.8" fill="#883039"></circle><circle cx="587.5" cy="241.7" r="1.8" fill="#883039"></circle><circle cx="589.9" cy="228.2" r="1.8" fill="#883039"></circle><circle cx="592.3" cy="211.7" r="1.8" fill="#883039"></circle><circle cx="594.6" cy="196.2" r="1.8" fill="#883039"></circle><circle cx="597" cy="183.6" r="1.8" fill="#883039"></circle><circle cx="599.4" cy="171" r="1.8" fill="#883039"></circle><circle cx="601.7" cy="154.9" r="1.8" fill="#883039"></circle><circle cx="604.1" cy="153.9" r="1.8" fill="#883039"></circle><circle cx="606.5" cy="151.7" r="1.8" fill="#883039"></circle><circle cx="608.8" cy="131.1" r="1.8" fill="#883039"></circle><circle cx="611.2" cy="128" r="1.8" fill="#883039"></circle><circle cx="613.6" cy="115.2" r="1.8" fill="#883039"></circle><circle cx="615.9" cy="105.4" r="1.8" fill="#883039"></circle><circle cx="618.3" cy="105.2" r="1.8" fill="#883039"></circle><circle cx="620.7" cy="120.6" r="1.8" fill="#883039"></circle><circle cx="623" cy="123.9" r="1.8" fill="#883039"></circle><circle cx="625.4" cy="123.6" r="1.8" fill="#883039"></circle><circle cx="627.7" cy="120.8" r="1.8" fill="#883039"></circle><circle cx="630.1" cy="103" r="1.8" fill="#883039"></circle><circle cx="632.5" cy="102.2" r="1.8" fill="#883039"></circle><circle cx="634.8" cy="101" r="1.8" fill="#883039"></circle><circle cx="637.2" cy="98.9" r="1.8" fill="#883039"></circle><circle cx="639.6" cy="100.8" r="1.8" fill="#883039"></circle><circle cx="641.9" cy="89.3" r="1.8" fill="#883039"></circle><circle cx="644.3" cy="105.7" r="1.8" fill="#883039"></circle><circle cx="646.7" cy="141" r="1.8" fill="#883039"></circle><circle cx="649" cy="156.9" r="1.8" fill="#883039"></circle><circle cx="651.4" cy="176.7" r="1.8" fill="#883039"></circle><circle cx="653.8" cy="178" r="1.8" fill="#883039"></circle><circle cx="656.1" cy="175.3" r="1.8" fill="#883039"></circle><circle cx="658.5" cy="186.6" r="1.8" fill="#883039"></circle><circle cx="660.8" cy="188.1" r="1.8" fill="#883039"></circle><circle cx="663.2" cy="192.7" r="1.8" fill="#883039"></circle><circle cx="665.6" cy="192.8" r="1.8" fill="#883039"></circle><circle cx="667.9" cy="185.8" r="1.8" fill="#883039"></circle><circle cx="670.3" cy="187.6" r="1.8" fill="#883039"></circle><circle cx="672.7" cy="179.5" r="1.8" fill="#883039"></circle><circle cx="675" cy="177.7" r="1.8" fill="#883039"></circle><circle cx="677.4" cy="178.2" r="1.8" fill="#883039"></circle><circle cx="679.8" cy="172.6" r="1.8" fill="#883039"></circle><circle cx="682.1" cy="175" r="1.8" fill="#883039"></circle><circle cx="684.5" cy="179.1" r="1.8" fill="#883039"></circle><circle cx="686.9" cy="207.2" r="1.8" fill="#883039"></circle><circle cx="689.2" cy="194.5" r="1.8" fill="#883039"></circle><circle cx="691.6" cy="198.6" r="1.8" fill="#883039"></circle><circle cx="694" cy="201.4" r="1.8" fill="#883039"></circle><circle cx="696.3" cy="209.9" r="1.8" fill="#883039"></circle><circle cx="698.7" cy="222.6" r="1.8" fill="#883039"></circle><circle cx="701" cy="222.5" r="1.8" fill="#883039"></circle><circle cx="703.4" cy="223" r="1.8" fill="#883039"></circle><circle cx="705.8" cy="221.2" r="1.8" fill="#883039"></circle><circle cx="708.1" cy="222.7" r="1.8" fill="#883039"></circle><circle cx="710.5" cy="232.3" r="1.8" fill="#883039"></circle><circle cx="712.9" cy="254.7" r="1.8" fill="#883039"></circle><circle cx="715.2" cy="239.3" r="1.8" fill="#883039"></circle><circle cx="717.6" cy="250.5" r="1.8" fill="#883039"></circle></g></g></g></g></g></g><g id="footer" class="SourcesFooter" style="fill:#5b5b5b"><g id="sources" class="markdown-text-wrap"><text x="16.0" y="580.9" style="font-size:13.5px;line-height:1.2"><tspan x="16" y="580.9"><tspan style="font-weight:700">Data source:</tspan> Global Carbon Budget (2023)</tspan></text></g><text id="origin-url" font-size="13.50" x="440.7" y="580.9"><tspan x="440.74499999999995" y="580.895"><a target="_blank" style="fill: #5b5b5b;" href="https://ourworldindata.org/co2-and-greenhouse-gas-emissions">OurWorldInData.org/co2-and-greenhouse-gas-emissions</a> | <a target="_blank" style="fill: #5b5b5b;" href="https://creativecommons.org/licenses/by/4.0/">CC BY</a></tspan></text></g><line id="separator-line" x1="16" y1="600" x2="834" y2="600" stroke="#e7e7e7"></line><g id="details" transform="translate(15, 616)"><g class="markdown-text-wrap"><text x="0.0" y="12.0" style="font-size:12.375px;fill:#5b5b5b;line-height:1.2"><tspan x="0" y="12.0"><tspan style="font-weight:700">1.</tspan> <tspan style="font-weight:700">Fossil emissions</tspan>: Fossil emissions measure the quantity of carbon dioxide (CO₂) emitted from the burning of fossil fuels, and directly from</tspan><tspan x="0" y="26.9">industrial processes such as cement and steel production. Fossil CO₂ includes emissions from coal, oil, gas, flaring, cement, steel, and other</tspan><tspan x="0" y="41.7">industrial processes. Fossil emissions do not include land use change, deforestation, soils, or vegetation.</tspan></text></g></g></svg>